<svg xmlns="http://www.w3.org/2000/svg" xmlns:xlink="http://www.w3.org/1999/xlink" width="200" zoomAndPan="magnify" viewBox="0 0 150 149.999998" height="200" preserveAspectRatio="xMidYMid meet" version="1.0"><defs><clipPath id="76fc3e860a"><path d="M 0 50.625 L 47 50.625 L 47 99.375 L 0 99.375 Z M 0 50.625 " clip-rule="nonzero"/></clipPath></defs><rect x="-15" width="180" fill="#ffffff" y="-15" height="179.999997" fill-opacity="1"/><rect x="-15" width="180" fill="#ffffff" y="-15" height="179.999997" fill-opacity="1"/><g clip-path="url(#76fc3e860a)"><path fill="#fbae17" d="M 45.9375 78.015625 C 46.644531 78.925781 46.972656 79.972656 46.972656 81.007812 C 46.972656 83.082031 45.652344 85.089844 43.425781 85.726562 C 41.324219 86.332031 39.886719 88.257812 39.886719 90.433594 C 39.886719 90.484375 39.886719 90.546875 39.886719 90.597656 C 39.886719 90.660156 39.886719 90.710938 39.886719 90.769531 C 39.886719 91.027344 39.867188 91.273438 39.828125 91.519531 C 39.375 94.484375 36.277344 96.441406 33.316406 95.367188 C 32.773438 95.171875 32.207031 95.066406 31.644531 95.066406 C 30.054688 95.066406 28.515625 95.847656 27.582031 97.222656 C 26.609375 98.65625 25.070312 99.375 23.523438 99.375 C 21.984375 99.375 20.4375 98.65625 19.460938 97.222656 C 18.527344 95.847656 16.988281 95.066406 15.402344 95.066406 C 14.847656 95.066406 14.28125 95.160156 13.730469 95.367188 C 13.164062 95.570312 12.601562 95.664062 12.046875 95.664062 C 9.390625 95.664062 7.0625 93.46875 7.15625 90.597656 C 7.15625 90.546875 7.15625 90.484375 7.15625 90.433594 C 7.15625 88.257812 5.71875 86.332031 3.617188 85.726562 C 1.421875 85.089844 0.101562 83.089844 0.101562 81.007812 C 0.101562 79.972656 0.429688 78.917969 1.136719 78.015625 C 1.824219 77.132812 2.171875 76.066406 2.171875 75 C 2.171875 73.933594 1.824219 72.878906 1.136719 71.984375 C 0.429688 71.082031 0.101562 70.027344 0.101562 68.992188 C 0.101562 66.917969 1.421875 64.910156 3.648438 64.273438 C 5.75 63.667969 7.1875 61.742188 7.1875 59.566406 C 7.1875 59.515625 7.1875 59.453125 7.1875 59.402344 C 7.1875 59.339844 7.1875 59.289062 7.1875 59.230469 C 7.1875 55.855469 10.550781 53.464844 13.761719 54.632812 C 14.304688 54.828125 14.867188 54.933594 15.429688 54.933594 C 17.019531 54.933594 18.558594 54.152344 19.492188 52.777344 C 20.464844 51.34375 22.003906 50.625 23.554688 50.625 C 25.089844 50.625 26.640625 51.34375 27.613281 52.777344 C 28.875 54.632812 31.234375 55.402344 33.347656 54.632812 C 33.910156 54.429688 34.472656 54.335938 35.027344 54.335938 C 37.386719 54.335938 39.5 56.082031 39.859375 58.480469 C 39.898438 58.777344 39.917969 59.085938 39.910156 59.402344 C 39.910156 59.453125 39.910156 59.515625 39.910156 59.566406 C 39.910156 61.742188 41.34375 63.667969 43.445312 64.273438 C 45.671875 64.910156 46.996094 66.917969 46.996094 68.992188 C 46.996094 70.027344 46.667969 71.082031 45.960938 71.984375 C 45.273438 72.867188 44.921875 73.933594 44.921875 75 C 44.902344 76.066406 45.25 77.132812 45.9375 78.015625 Z M 45.9375 78.015625 " fill-opacity="1" fill-rule="nonzero"/></g><path fill="#f2f2f2" d="M 10.777344 85.859375 L 16.058594 85.859375 C 16.578125 85.859375 17 85.4375 17 84.917969 L 17 72.363281 C 17 71.839844 16.578125 71.421875 16.058594 71.421875 L 10.777344 71.421875 C 10.253906 71.421875 9.832031 71.839844 9.832031 72.363281 L 9.832031 84.925781 C 9.832031 85.4375 10.253906 85.859375 10.777344 85.859375 Z M 10.777344 85.859375 " fill-opacity="1" fill-rule="nonzero"/><path fill="#f2f2f2" d="M 37.242188 71.410156 C 37.242188 70.886719 37.027344 70.417969 36.6875 70.078125 C 36.351562 69.738281 35.878906 69.523438 35.355469 69.523438 L 27.019531 69.523438 C 27.296875 68.621094 27.46875 67.523438 27.46875 66.34375 C 27.46875 63.207031 26.289062 60.652344 24.84375 60.652344 C 24.375 60.652344 23.933594 60.921875 23.554688 61.390625 C 23.410156 61.566406 23.335938 61.78125 23.335938 62.007812 L 23.335938 64.992188 C 23.335938 65.371094 23.214844 65.738281 22.988281 66.046875 L 20.355469 69.535156 L 17.71875 73.011719 L 17.71875 84.617188 L 32.976562 84.617188 C 34.023438 84.617188 34.863281 83.777344 34.863281 82.730469 C 34.863281 81.6875 34.023438 80.84375 32.976562 80.84375 L 33.828125 80.84375 C 34.875 80.84375 35.714844 80.003906 35.714844 78.957031 C 35.714844 77.914062 34.875 77.070312 33.828125 77.070312 L 34.597656 77.070312 C 35.644531 77.070312 36.484375 76.230469 36.484375 75.183594 C 36.484375 74.148438 35.644531 73.296875 34.609375 73.296875 L 35.375 73.296875 C 36.390625 73.296875 37.242188 72.457031 37.242188 71.410156 Z M 37.242188 71.410156 " fill-opacity="1" fill-rule="nonzero"/><path fill="#333333" d="M 147.703125 67.011719 L 136.035156 87.109375 C 134.445312 89.847656 131.523438 91.53125 128.363281 91.53125 L 39.835938 91.53125 C 39.878906 91.285156 39.898438 91.039062 39.898438 90.78125 C 39.898438 90.71875 39.898438 90.667969 39.898438 90.605469 C 39.898438 90.554688 39.898438 90.496094 39.898438 90.441406 C 39.898438 88.269531 41.335938 86.339844 43.4375 85.738281 C 45.660156 85.101562 46.984375 83.089844 46.984375 81.019531 C 46.984375 79.984375 46.65625 78.925781 45.949219 78.023438 C 45.261719 77.144531 44.914062 76.078125 44.914062 75.011719 C 44.914062 73.945312 45.261719 72.886719 45.949219 71.996094 C 46.65625 71.082031 46.984375 70.035156 46.984375 69 C 46.984375 66.929688 45.660156 64.917969 43.4375 64.285156 C 41.324219 63.667969 39.886719 61.742188 39.886719 59.566406 C 39.886719 59.515625 39.886719 59.453125 39.886719 59.402344 C 39.898438 59.085938 39.878906 58.777344 39.835938 58.480469 L 142.792969 58.480469 C 147.171875 58.480469 149.898438 63.21875 147.703125 67.011719 Z M 147.703125 67.011719 " fill-opacity="1" fill-rule="nonzero"/><path fill="#f2f2f2" d="M 103.136719 64.261719 L 104.492188 66.746094 L 107.269531 67.257812 L 105.324219 69.308594 L 105.691406 72.117188 L 103.136719 70.898438 L 100.585938 72.117188 L 100.964844 69.308594 L 99.015625 67.257812 L 101.796875 66.746094 Z M 103.136719 64.261719 " fill-opacity="1" fill-rule="nonzero"/><path fill="#f2f2f2" d="M 89.847656 62.550781 L 91.488281 65.585938 L 94.875 66.210938 L 92.503906 68.703125 L 92.957031 72.117188 L 89.847656 70.632812 L 86.742188 72.117188 L 87.191406 68.703125 L 84.824219 66.210938 L 88.207031 65.585938 Z M 89.847656 62.550781 " fill-opacity="1" fill-rule="nonzero"/><path fill="#f2f2f2" d="M 76.546875 64.261719 L 77.902344 66.746094 L 80.679688 67.257812 L 78.734375 69.308594 L 79.101562 72.117188 L 76.546875 70.898438 L 73.996094 72.117188 L 74.375 69.308594 L 72.414062 67.257812 L 75.207031 66.746094 Z M 76.546875 64.261719 " fill-opacity="1" fill-rule="nonzero"/><path fill="#f2f2f2" d="M 114.625 65.492188 L 115.761719 67.585938 L 118.109375 68.015625 L 116.46875 69.75 L 116.777344 72.117188 L 114.625 71.082031 L 112.480469 72.117188 L 112.789062 69.75 L 111.148438 68.015625 L 113.496094 67.585938 Z M 114.625 65.492188 " fill-opacity="1" fill-rule="nonzero"/><path fill="#f2f2f2" d="M 65.0625 65.492188 L 66.203125 67.585938 L 68.550781 68.015625 L 66.910156 69.75 L 67.21875 72.117188 L 65.0625 71.082031 L 62.910156 72.117188 L 63.226562 69.75 L 61.585938 68.015625 L 63.925781 67.585938 Z M 65.0625 65.492188 " fill-opacity="1" fill-rule="nonzero"/><path fill="#f2f2f2" d="M 65.617188 77.308594 L 62.140625 77.308594 L 62.140625 86.894531 L 60.222656 86.894531 L 60.222656 77.308594 L 56.777344 77.308594 L 56.777344 75.75 L 65.628906 75.75 L 65.628906 77.308594 Z M 65.617188 77.308594 " fill-opacity="1" fill-rule="nonzero"/><path fill="#f2f2f2" d="M 70.917969 82.609375 L 68.753906 82.609375 L 68.753906 86.894531 L 66.816406 86.894531 L 66.816406 75.75 L 70.734375 75.75 C 72.015625 75.75 73.011719 76.035156 73.71875 76.609375 C 74.414062 77.183594 74.765625 78.023438 74.765625 79.113281 C 74.765625 79.859375 74.578125 80.484375 74.21875 80.988281 C 73.863281 81.492188 73.359375 81.878906 72.714844 82.148438 L 75.214844 86.792969 L 75.214844 86.894531 L 73.144531 86.894531 Z M 68.753906 81.050781 L 70.753906 81.050781 C 71.410156 81.050781 71.921875 80.886719 72.28125 80.558594 C 72.652344 80.230469 72.835938 79.777344 72.835938 79.203125 C 72.835938 78.609375 72.660156 78.148438 72.324219 77.820312 C 71.984375 77.492188 71.472656 77.328125 70.804688 77.316406 L 68.765625 77.316406 L 68.765625 81.050781 Z M 68.753906 81.050781 " fill-opacity="1" fill-rule="nonzero"/><path fill="#f2f2f2" d="M 84.515625 75.75 L 84.515625 83.203125 C 84.515625 84.394531 84.136719 85.328125 83.378906 86.011719 C 82.617188 86.699219 81.613281 87.050781 80.351562 87.050781 C 79.082031 87.050781 78.066406 86.710938 77.316406 86.023438 C 76.570312 85.347656 76.191406 84.394531 76.191406 83.183594 L 76.191406 75.738281 L 78.117188 75.738281 L 78.117188 83.191406 C 78.117188 83.941406 78.300781 84.507812 78.679688 84.90625 C 79.0625 85.296875 79.613281 85.5 80.351562 85.5 C 81.839844 85.5 82.589844 84.710938 82.589844 83.140625 L 82.589844 75.75 Z M 84.515625 75.75 " fill-opacity="1" fill-rule="nonzero"/><path fill="#f2f2f2" d="M 92.175781 84.023438 C 92.175781 83.53125 92.003906 83.152344 91.664062 82.886719 C 91.316406 82.617188 90.699219 82.351562 89.796875 82.085938 C 88.894531 81.820312 88.1875 81.511719 87.652344 81.183594 C 86.640625 80.546875 86.125 79.71875 86.125 78.691406 C 86.125 77.789062 86.496094 77.050781 87.222656 76.464844 C 87.953125 75.882812 88.90625 75.59375 90.074219 75.59375 C 90.851562 75.59375 91.539062 75.738281 92.144531 76.027344 C 92.75 76.3125 93.234375 76.722656 93.582031 77.246094 C 93.929688 77.777344 94.105469 78.363281 94.105469 79 L 92.175781 79 C 92.175781 78.414062 91.992188 77.964844 91.632812 77.636719 C 91.261719 77.308594 90.742188 77.144531 90.0625 77.144531 C 89.429688 77.144531 88.9375 77.277344 88.585938 77.554688 C 88.238281 77.820312 88.0625 78.199219 88.0625 78.691406 C 88.0625 79.101562 88.25 79.441406 88.628906 79.71875 C 89.007812 79.992188 89.632812 80.261719 90.496094 80.515625 C 91.367188 80.773438 92.0625 81.070312 92.585938 81.398438 C 93.109375 81.726562 93.5 82.105469 93.746094 82.535156 C 93.992188 82.96875 94.113281 83.460938 94.113281 84.035156 C 94.113281 84.96875 93.753906 85.707031 93.046875 86.25 C 92.339844 86.804688 91.367188 87.070312 90.144531 87.070312 C 89.335938 87.070312 88.597656 86.914062 87.921875 86.617188 C 87.242188 86.320312 86.722656 85.910156 86.339844 85.378906 C 85.960938 84.855469 85.777344 84.238281 85.777344 83.542969 L 87.714844 83.542969 C 87.714844 84.179688 87.921875 84.671875 88.339844 85.007812 C 88.761719 85.355469 89.355469 85.53125 90.144531 85.53125 C 90.824219 85.53125 91.324219 85.398438 91.664062 85.121094 C 92.011719 84.835938 92.175781 84.476562 92.175781 84.023438 Z M 92.175781 84.023438 " fill-opacity="1" fill-rule="nonzero"/><path fill="#f2f2f2" d="M 103.710938 77.308594 L 100.238281 77.308594 L 100.238281 86.894531 L 98.320312 86.894531 L 98.320312 77.308594 L 94.875 77.308594 L 94.875 75.75 L 103.722656 75.75 L 103.722656 77.308594 Z M 103.710938 77.308594 " fill-opacity="1" fill-rule="nonzero"/><path fill="#f2f2f2" d="M 111.433594 81.921875 L 106.851562 81.921875 L 106.851562 85.355469 L 112.203125 85.355469 L 112.203125 86.90625 L 104.914062 86.90625 L 104.914062 75.75 L 112.152344 75.75 L 112.152344 77.308594 L 106.851562 77.308594 L 106.851562 80.382812 L 111.433594 80.382812 Z M 111.433594 81.921875 " fill-opacity="1" fill-rule="nonzero"/><path fill="#f2f2f2" d="M 113.503906 86.894531 L 113.503906 75.75 L 116.796875 75.75 C 117.78125 75.75 118.652344 75.964844 119.421875 76.40625 C 120.179688 76.847656 120.777344 77.472656 121.195312 78.269531 C 121.617188 79.082031 121.820312 80.003906 121.820312 81.039062 L 121.820312 81.605469 C 121.820312 82.660156 121.605469 83.59375 121.1875 84.394531 C 120.765625 85.191406 120.160156 85.808594 119.382812 86.25 C 118.601562 86.679688 117.710938 86.894531 116.707031 86.894531 Z M 115.445312 77.308594 L 115.445312 85.347656 L 116.707031 85.347656 C 117.71875 85.347656 118.5 85.027344 119.042969 84.394531 C 119.585938 83.757812 119.863281 82.84375 119.875 81.65625 L 119.875 81.039062 C 119.875 79.828125 119.605469 78.90625 119.085938 78.269531 C 118.5625 77.636719 117.792969 77.316406 116.796875 77.316406 L 115.445312 77.316406 Z M 115.445312 77.308594 " fill-opacity="1" fill-rule="nonzero"/></svg>