<svg xmlns="http://www.w3.org/2000/svg" xmlns:xlink="http://www.w3.org/1999/xlink" width="200" zoomAndPan="magnify" viewBox="0 0 150 149.999998" height="200" preserveAspectRatio="xMidYMid meet" version="1.0"><defs><g/><clipPath id="d831618aae"><path d="M 26.003906 23.902344 L 128.003906 23.902344 L 128.003906 125.902344 L 26.003906 125.902344 Z M 26.003906 23.902344 " clip-rule="nonzero"/></clipPath></defs><rect x="-15" width="180" fill="#ffffff" y="-15" height="179.999997" fill-opacity="1"/><rect x="-15" width="180" fill="#ffffff" y="-15" height="179.999997" fill-opacity="1"/><path fill="#1f3c6f" d="M 117.15625 67.449219 L 36.902344 67.449219 C 40.429688 48.472656 57.058594 34.128906 77.03125 34.128906 C 97 34.128906 113.632812 48.5 117.15625 67.449219 Z M 117.15625 67.449219 " fill-opacity="1" fill-rule="nonzero"/><path fill="#f4f4f5" d="M 117.828125 73.476562 L 36.230469 73.476562 C 36.308594 71.402344 36.527344 69.386719 36.902344 67.421875 L 117.15625 67.421875 C 117.535156 69.386719 117.75 71.402344 117.828125 73.476562 Z M 117.828125 73.476562 " fill-opacity="1" fill-rule="nonzero"/><path fill="#ca202b" d="M 117.855469 74.929688 C 117.855469 76.492188 117.777344 77.996094 117.585938 79.503906 L 36.472656 79.503906 C 36.308594 77.996094 36.203125 76.464844 36.203125 74.929688 C 36.203125 74.445312 36.203125 73.960938 36.203125 73.476562 L 117.800781 73.476562 C 117.800781 73.960938 117.800781 74.417969 117.800781 74.929688 Z M 117.855469 74.929688 " fill-opacity="1" fill-rule="nonzero"/><path fill="#f4f4f5" d="M 117.585938 79.503906 C 117.34375 81.578125 116.996094 83.59375 116.429688 85.558594 L 37.628906 85.558594 C 37.0625 83.59375 36.714844 81.578125 36.472656 79.503906 Z M 117.585938 79.503906 " fill-opacity="1" fill-rule="nonzero"/><path fill="#ca202b" d="M 116.429688 85.558594 C 115.890625 87.660156 115.191406 89.652344 114.304688 91.589844 L 39.753906 91.589844 C 38.867188 89.652344 38.167969 87.660156 37.628906 85.558594 Z M 116.429688 85.558594 " fill-opacity="1" fill-rule="nonzero"/><path fill="#f4f4f5" d="M 114.304688 91.589844 C 113.363281 93.6875 112.230469 95.734375 110.941406 97.644531 L 43.121094 97.644531 C 41.828125 95.734375 40.695312 93.714844 39.753906 91.589844 Z M 114.304688 91.589844 " fill-opacity="1" fill-rule="nonzero"/><path fill="#ca202b" d="M 110.941406 97.644531 C 109.488281 99.824219 107.871094 101.816406 106.042969 103.671875 L 48.042969 103.671875 C 46.214844 101.816406 44.574219 99.824219 43.144531 97.644531 Z M 110.941406 97.644531 " fill-opacity="1" fill-rule="nonzero"/><path fill="#f4f4f5" d="M 106.042969 103.671875 C 103.753906 105.960938 101.222656 107.980469 98.453125 109.699219 L 55.605469 109.699219 C 52.863281 107.980469 50.304688 105.960938 48.015625 103.671875 Z M 106.042969 103.671875 " fill-opacity="1" fill-rule="nonzero"/><path fill="#ca202b" d="M 98.453125 109.699219 C 92.234375 113.523438 84.886719 115.757812 77.03125 115.757812 C 69.171875 115.757812 61.824219 113.550781 55.605469 109.699219 Z M 98.453125 109.699219 " fill-opacity="1" fill-rule="nonzero"/><path fill="#ffffff" d="M 60.882812 50.4375 L 61.90625 53.613281 L 65.242188 53.613281 L 62.550781 55.550781 L 63.574219 58.726562 L 60.882812 56.761719 L 58.191406 58.726562 L 59.214844 55.550781 L 56.523438 53.613281 L 59.859375 53.613281 Z M 60.882812 50.4375 " fill-opacity="1" fill-rule="nonzero"/><path fill="#ffffff" d="M 77.03125 45.03125 L 78.914062 50.789062 L 84.96875 50.789062 L 80.070312 54.367188 L 81.929688 60.128906 L 77.03125 56.546875 L 72.132812 60.128906 L 74.015625 54.367188 L 69.117188 50.789062 L 75.171875 50.789062 Z M 77.03125 45.03125 " fill-opacity="1" fill-rule="nonzero"/><path fill="#ffffff" d="M 93.175781 50.4375 L 94.199219 53.613281 L 97.539062 53.613281 L 94.847656 55.550781 L 95.867188 58.726562 L 93.175781 56.761719 L 90.484375 58.726562 L 91.507812 55.550781 L 88.84375 53.613281 L 92.15625 53.613281 Z M 93.175781 50.4375 " fill-opacity="1" fill-rule="nonzero"/><g clip-path="url(#d831618aae)"><path fill="#1f3c6f" d="M 77.03125 125.957031 C 48.90625 125.957031 26.003906 103.054688 26.003906 74.929688 C 26.003906 46.804688 48.90625 23.902344 77.03125 23.902344 C 105.152344 23.902344 128.054688 46.804688 128.054688 74.929688 C 128.054688 103.054688 105.152344 125.957031 77.03125 125.957031 Z M 77.03125 30.363281 C 52.457031 30.363281 32.460938 50.359375 32.460938 74.929688 C 32.460938 99.5 52.457031 119.496094 77.03125 119.496094 C 101.601562 119.496094 121.597656 99.5 121.597656 74.929688 C 121.597656 50.359375 101.601562 30.363281 77.03125 30.363281 Z M 77.03125 30.363281 " fill-opacity="1" fill-rule="nonzero"/></g><g fill="#0a173b" fill-opacity="1"><g transform="translate(40.869829, 32.28573)"><g><path d="M -10.53125 -16.34375 L -7.5 -18.421875 L 1.671875 -8.6875 L -4.171875 -20.6875 L -0.953125 -22.890625 L 7.0625 -4.828125 L 3.328125 -2.28125 Z M -10.53125 -16.34375 "/></g></g></g><g fill="#0a173b" fill-opacity="1"><g transform="translate(50.44663, 25.726802)"><g><path d="M -6.40625 -18.421875 L 1.625 -21.875 L 2.796875 -19.1875 L -1.28125 -17.4375 L 0.625 -13.015625 L 3.734375 -14.359375 L 4.921875 -11.625 L 1.8125 -10.28125 L 4.109375 -4.953125 L 8.21875 -6.71875 L 9.375 -4.046875 L 1.3125 -0.578125 Z M -6.40625 -18.421875 "/></g></g></g><g fill="#0a173b" fill-opacity="1"><g transform="translate(59.46153, 21.747415)"><g><path d="M -0.609375 -16.546875 L -3.453125 -15.875 L -4.1875 -18.984375 L 5.6875 -21.3125 L 6.421875 -18.203125 L 3.59375 -17.53125 L 7.3125 -1.71875 L 3.109375 -0.734375 Z M -0.609375 -16.546875 "/></g></g></g><g fill="#0a173b" fill-opacity="1"><g transform="translate(68.988618, 19.422756)"><g><path d="M 0.390625 -19.484375 L 9.109375 -19.953125 L 9.265625 -17.03125 L 4.828125 -16.796875 L 5.078125 -11.984375 L 8.46875 -12.171875 L 8.640625 -9.203125 L 5.25 -9.015625 L 5.5625 -3.21875 L 10.046875 -3.453125 L 10.203125 -0.546875 L 1.4375 -0.078125 Z M 0.390625 -19.484375 "/></g></g></g><g fill="#0a173b" fill-opacity="1"><g transform="translate(78.576225, 18.597341)"><g><path d="M 4.34375 -19 L 9.640625 -18.1875 C 11.742188 -17.875 13.273438 -17.257812 14.234375 -16.34375 C 15.203125 -15.4375 15.539062 -14.035156 15.25 -12.140625 C 15.050781 -10.859375 14.726562 -9.863281 14.28125 -9.15625 C 13.832031 -8.457031 13.128906 -7.957031 12.171875 -7.65625 L 13.375 2.03125 L 8.984375 1.375 L 8.1875 -7.578125 L 6.984375 -7.765625 L 5.671875 0.859375 L 1.421875 0.21875 Z M 8.546875 -10.015625 C 9.398438 -9.890625 10.03125 -10.023438 10.4375 -10.421875 C 10.84375 -10.816406 11.113281 -11.46875 11.25 -12.375 C 11.382812 -13.238281 11.328125 -13.910156 11.078125 -14.390625 C 10.828125 -14.878906 10.316406 -15.179688 9.546875 -15.296875 L 8.171875 -15.515625 L 7.359375 -10.203125 Z M 8.546875 -10.015625 "/></g></g></g><g fill="#0a173b" fill-opacity="1"><g transform="translate(91.535255, 20.489095)"><g><path d="M 11.015625 -16.546875 L 15.578125 -14.75 L 11.8125 4.65625 L 8.125 3.203125 L 9.046875 -0.859375 L 6.390625 -1.90625 L 4.25 1.671875 L 0.46875 0.1875 Z M 9.609375 -3.375 L 11.40625 -10.8125 L 7.671875 -4.140625 Z M 9.609375 -3.375 "/></g></g></g><g fill="#0a173b" fill-opacity="1"><g transform="translate(102.743443, 24.754602)"><g><path d="M 12.0625 -15.3125 L 14.578125 -13.609375 L 12.65625 -3.640625 L 17.890625 -11.390625 L 20.828125 -9.40625 L 9.953125 6.703125 L 7.546875 5.078125 L 9.875 -5.5 L 4.234375 2.859375 L 1.1875 0.796875 Z M 12.0625 -15.3125 "/></g></g></g><g fill="#0a173b" fill-opacity="1"><g transform="translate(39.659012, 135.42495)"><g><path d="M 6.203125 3.28125 C 4.304688 2.375 3.1875 1.242188 2.84375 -0.109375 C 2.507812 -1.472656 2.800781 -3.109375 3.71875 -5.015625 L 6.828125 -11.53125 C 7.742188 -13.4375 8.832031 -14.671875 10.09375 -15.234375 C 11.363281 -15.804688 12.945312 -15.640625 14.84375 -14.734375 C 16.738281 -13.816406 17.863281 -12.675781 18.21875 -11.3125 C 18.570312 -9.957031 18.296875 -8.335938 17.390625 -6.453125 L 14.28125 0.0625 C 13.363281 1.96875 12.257812 3.207031 10.96875 3.78125 C 9.6875 4.363281 8.097656 4.195312 6.203125 3.28125 Z M 7.53125 0.53125 C 8.070312 0.789062 8.515625 0.78125 8.859375 0.5 C 9.203125 0.21875 9.53125 -0.238281 9.84375 -0.875 L 13.890625 -9.3125 C 14.203125 -9.957031 14.359375 -10.503906 14.359375 -10.953125 C 14.359375 -11.398438 14.085938 -11.753906 13.546875 -12.015625 C 13.015625 -12.265625 12.570312 -12.242188 12.21875 -11.953125 C 11.875 -11.671875 11.550781 -11.210938 11.25 -10.578125 L 7.203125 -2.140625 C 6.890625 -1.503906 6.726562 -0.960938 6.71875 -0.515625 C 6.707031 -0.078125 6.976562 0.269531 7.53125 0.53125 Z M 7.53125 0.53125 "/></g></g></g><g fill="#0a173b" fill-opacity="1"><g transform="translate(55.373181, 142.699504)"><g><path d="M 4.453125 -18.9375 L 8.046875 -18.21875 L 6.9375 -6.875 L 10.59375 -17.6875 L 13.40625 -17.125 L 12.6875 -5.8125 L 16.0625 -16.609375 L 19.59375 -15.890625 L 13.484375 2.703125 L 9.8125 1.96875 L 10.515625 -9.859375 L 6.65625 1.34375 L 2.9375 0.59375 Z M 4.453125 -18.9375 "/></g></g></g><g fill="#0a173b" fill-opacity="1"><g transform="translate(74.985927, 146.040562)"><g><path d="M 0.546875 -19.484375 L 3.578125 -19.625 L 7.96875 -10.453125 L 7.546875 -19.8125 L 11.09375 -19.96875 L 11.984375 -0.546875 L 9.078125 -0.421875 L 4.640625 -10.296875 L 5.109375 -0.234375 L 1.4375 -0.0625 Z M 0.546875 -19.484375 "/></g></g></g><g fill="#0a173b" fill-opacity="1"><g transform="translate(91.118697, 144.890691)"><g><path d="M -3.3125 -19.203125 L 5.171875 -21.328125 L 5.875 -18.5 L 1.5625 -17.421875 L 2.734375 -12.734375 L 6.03125 -13.546875 L 6.75 -10.65625 L 3.453125 -9.84375 L 4.859375 -4.203125 L 9.21875 -5.28125 L 9.921875 -2.46875 L 1.390625 -0.34375 Z M -3.3125 -19.203125 "/></g></g></g><g fill="#0a173b" fill-opacity="1"><g transform="translate(104.199262, 141.512869)"><g><path d="M -7.109375 -18.15625 L -2.671875 -20.28125 C -1.160156 -21.007812 0.109375 -21.382812 1.140625 -21.40625 C 2.179688 -21.4375 3.066406 -21.140625 3.796875 -20.515625 C 4.535156 -19.890625 5.226562 -18.90625 5.875 -17.5625 L 8.921875 -11.203125 C 9.578125 -9.847656 9.921875 -8.679688 9.953125 -7.703125 C 9.984375 -6.722656 9.671875 -5.835938 9.015625 -5.046875 C 8.359375 -4.253906 7.28125 -3.492188 5.78125 -2.765625 L 1.296875 -0.625 Z M 4.5 -5.4375 C 5.0625 -5.707031 5.429688 -5.992188 5.609375 -6.296875 C 5.796875 -6.597656 5.851562 -6.914062 5.78125 -7.25 C 5.707031 -7.59375 5.523438 -8.066406 5.234375 -8.671875 L 1.5625 -16.328125 C 1.300781 -16.878906 1.054688 -17.285156 0.828125 -17.546875 C 0.597656 -17.804688 0.316406 -17.941406 -0.015625 -17.953125 C -0.347656 -17.960938 -0.789062 -17.835938 -1.34375 -17.578125 L -1.9375 -17.296875 L 3.890625 -5.15625 Z M 4.5 -5.4375 "/></g></g></g></svg>