<svg width="19" height="20" viewBox="0 0 19 20" fill="none" xmlns="http://www.w3.org/2000/svg">
<g id="Group">
<path id="Vector" d="M13.9805 8.75H2C1.30859 8.75 0.75 9.30859 0.75 10C0.75 10.6914 1.30859 11.25 2 11.25H13.9805L15.2305 10L13.9805 8.75Z" fill="white"/>
<path id="Vector_2" d="M17.8828 9.11719C18.3711 9.60547 18.3711 10.3984 17.8828 10.8867L11.6328 17.1367C11.1445 17.625 10.3516 17.625 9.86328 17.1367C9.375 16.6484 9.375 15.8555 9.86328 15.3672L15.2305 10L9.86719 4.63281C9.37891 4.14453 9.37891 3.35156 9.86719 2.86328C10.3555 2.375 11.1484 2.375 11.6367 2.86328L17.8867 9.11328L17.8828 9.11719Z" fill="white"/>
</g>
</svg>
