<svg xmlns="http://www.w3.org/2000/svg" xmlns:xlink="http://www.w3.org/1999/xlink" width="1024" zoomAndPan="magnify" viewBox="0 0 768 767.999994" height="1024" preserveAspectRatio="xMidYMid meet" version="1.0"><defs><clipPath id="57d11df405"><path d="M 0 0 L 691.5 0 L 691.5 763.5 L 0 763.5 Z M 0 0 " clip-rule="nonzero"/></clipPath><clipPath id="c586613b75"><path d="M 315 398 L 681 398 L 681 763.5 L 315 763.5 Z M 315 398 " clip-rule="nonzero"/></clipPath><clipPath id="99bed858b0"><path d="M 0 0 L 691.5 0 L 691.5 763.5 L 0 763.5 Z M 0 0 " clip-rule="nonzero"/></clipPath><clipPath id="b655475d9c"><path d="M 315 398 L 681 398 L 681 763.5 L 315 763.5 Z M 315 398 " clip-rule="nonzero"/></clipPath></defs><g clip-path="url(#57d11df405)"><path fill="#80030e" d="M 676.023438 128.660156 L 628.757812 128.660156 L 628.757812 81.394531 C 628.757812 73.019531 621.96875 66.234375 613.597656 66.234375 L 566.332031 66.234375 L 566.332031 15.402344 C 566.332031 7.027344 559.542969 0.238281 551.171875 0.238281 L 202.21875 0.238281 C 202.1875 0.238281 202.15625 0.242188 202.125 0.242188 C 201.933594 0.242188 201.742188 0.25 201.554688 0.257812 C 201.496094 0.257812 201.441406 0.261719 201.382812 0.261719 C 201.167969 0.277344 200.953125 0.292969 200.738281 0.3125 C 200.648438 0.320312 200.558594 0.335938 200.46875 0.34375 C 200.347656 0.359375 200.222656 0.375 200.101562 0.386719 C 199.984375 0.40625 199.867188 0.421875 199.75 0.441406 C 199.671875 0.457031 199.597656 0.46875 199.519531 0.484375 C 199.238281 0.53125 198.964844 0.589844 198.691406 0.65625 C 198.667969 0.664062 198.648438 0.667969 198.625 0.671875 C 198.464844 0.710938 198.308594 0.75 198.152344 0.792969 C 198.121094 0.800781 198.085938 0.8125 198.054688 0.820312 C 197.566406 0.960938 197.089844 1.125 196.625 1.308594 C 196.597656 1.320312 196.570312 1.332031 196.542969 1.339844 C 196.394531 1.398438 196.25 1.460938 196.105469 1.523438 C 196.066406 1.542969 196.023438 1.5625 195.980469 1.582031 C 195.566406 1.769531 195.160156 1.976562 194.761719 2.199219 C 194.675781 2.246094 194.59375 2.292969 194.511719 2.34375 C 194.417969 2.398438 194.320312 2.457031 194.226562 2.515625 C 194.125 2.578125 194.023438 2.644531 193.921875 2.707031 C 193.84375 2.757812 193.769531 2.808594 193.695312 2.859375 C 193.523438 2.972656 193.359375 3.09375 193.191406 3.214844 C 193.136719 3.257812 193.082031 3.300781 193.027344 3.34375 C 192.90625 3.433594 192.785156 3.53125 192.664062 3.628906 C 192.601562 3.675781 192.542969 3.726562 192.484375 3.777344 C 192.363281 3.875 192.246094 3.980469 192.132812 4.082031 C 192.082031 4.125 192.03125 4.167969 191.984375 4.214844 C 191.964844 4.230469 191.945312 4.25 191.925781 4.269531 L 4.855469 177.34375 C 4.546875 177.632812 4.253906 177.929688 3.96875 178.238281 C 3.929688 178.285156 3.886719 178.332031 3.847656 178.375 C 3.738281 178.496094 3.632812 178.621094 3.527344 178.746094 C 3.480469 178.800781 3.4375 178.855469 3.390625 178.910156 C 3.289062 179.035156 3.191406 179.160156 3.09375 179.289062 C 3.054688 179.34375 3.015625 179.394531 2.972656 179.449219 C 2.847656 179.617188 2.722656 179.792969 2.601562 179.96875 C 2.558594 180.03125 2.519531 180.097656 2.476562 180.164062 C 2.402344 180.277344 2.328125 180.390625 2.257812 180.503906 C 2.199219 180.597656 2.140625 180.695312 2.085938 180.792969 C 2.035156 180.875 1.988281 180.960938 1.941406 181.042969 C 1.878906 181.15625 1.816406 181.269531 1.753906 181.382812 C 1.726562 181.433594 1.703125 181.484375 1.675781 181.539062 C 1.445312 181.980469 1.242188 182.433594 1.054688 182.898438 C 1.046875 182.929688 1.035156 182.953125 1.023438 182.980469 C 0.769531 183.636719 0.5625 184.3125 0.398438 185.007812 C 0.386719 185.054688 0.375 185.105469 0.363281 185.152344 C 0.328125 185.296875 0.296875 185.445312 0.269531 185.59375 C 0.257812 185.664062 0.242188 185.738281 0.230469 185.808594 C 0.195312 186.003906 0.164062 186.203125 0.136719 186.402344 C 0.117188 186.542969 0.0976562 186.679688 0.0859375 186.816406 C 0.0742188 186.90625 0.0664062 186.992188 0.0585938 187.082031 C 0.0429688 187.242188 0.03125 187.40625 0.0234375 187.566406 C 0.015625 187.628906 0.0117188 187.691406 0.0117188 187.757812 C 0 187.992188 -0.0078125 188.226562 -0.0078125 188.464844 C -0.0078125 188.46875 -0.0078125 188.472656 -0.0078125 188.472656 L -0.0078125 748.339844 C -0.0078125 756.710938 6.78125 763.5 15.15625 763.5 L 357.851562 763.5 C 366.226562 763.5 373.011719 756.710938 373.011719 748.339844 C 373.011719 739.964844 366.226562 733.179688 357.851562 733.179688 L 30.3125 733.179688 L 30.3125 203.640625 L 202.21875 203.640625 C 210.589844 203.640625 217.378906 196.851562 217.378906 188.480469 L 217.378906 30.5625 L 536.011719 30.5625 L 536.011719 370.136719 C 536.011719 378.507812 542.800781 385.296875 551.171875 385.296875 C 559.546875 385.296875 566.332031 378.507812 566.332031 370.136719 L 566.332031 96.554688 L 598.4375 96.554688 L 598.4375 401.8125 C 598.4375 410.1875 605.226562 416.976562 613.597656 416.976562 C 621.972656 416.976562 628.761719 410.1875 628.761719 401.8125 L 628.761719 158.980469 L 660.863281 158.980469 L 660.863281 467.878906 C 660.863281 476.25 667.652344 483.039062 676.027344 483.039062 C 684.398438 483.039062 691.1875 476.25 691.1875 467.878906 L 691.1875 143.820312 C 691.183594 135.445312 684.398438 128.660156 676.023438 128.660156 Z M 187.058594 173.320312 L 53.859375 173.320312 L 187.058594 50.082031 Z M 187.058594 173.320312 " fill-opacity="1" fill-rule="nonzero"/></g><g clip-path="url(#c586613b75)"><path fill="#80030e" d="M 627.132812 451.933594 C 610.375 435.179688 590.855469 422.019531 569.121094 412.828125 C 546.609375 403.304688 522.707031 398.476562 498.074219 398.476562 C 473.441406 398.476562 449.539062 403.304688 427.027344 412.828125 C 405.292969 422.019531 385.777344 435.179688 369.015625 451.933594 C 352.261719 468.691406 339.101562 488.210938 329.910156 509.945312 C 320.386719 532.457031 315.558594 556.359375 315.558594 580.992188 C 315.558594 605.625 320.386719 629.527344 329.910156 652.039062 C 339.101562 673.773438 352.261719 693.292969 369.015625 710.050781 C 385.773438 726.804688 405.292969 739.964844 427.027344 749.160156 C 449.539062 758.679688 473.441406 763.507812 498.074219 763.507812 C 522.707031 763.507812 546.609375 758.679688 569.121094 749.160156 C 590.855469 739.964844 610.375 726.804688 627.132812 710.050781 C 643.886719 693.292969 657.046875 673.773438 666.242188 652.039062 C 675.761719 629.527344 680.589844 605.625 680.589844 580.992188 C 680.589844 556.359375 675.761719 532.457031 666.242188 509.945312 C 657.046875 488.210938 643.886719 468.691406 627.132812 451.933594 Z M 638.316406 640.226562 C 630.648438 658.347656 619.671875 674.625 605.691406 688.609375 C 591.710938 702.589844 575.433594 713.566406 557.3125 721.230469 C 538.558594 729.164062 518.628906 733.183594 498.078125 733.183594 C 477.523438 733.183594 457.59375 729.164062 438.839844 721.230469 C 420.71875 713.566406 404.441406 702.589844 390.460938 688.609375 C 376.480469 674.625 365.503906 658.347656 357.839844 640.226562 C 349.90625 621.472656 345.882812 601.542969 345.882812 580.992188 C 345.882812 560.441406 349.90625 540.511719 357.839844 521.757812 C 365.503906 503.636719 376.480469 487.359375 390.460938 473.375 C 404.441406 459.394531 420.71875 448.421875 438.839844 440.753906 C 457.59375 432.820312 477.523438 428.800781 498.078125 428.800781 C 518.628906 428.800781 538.558594 432.820312 557.3125 440.753906 C 575.433594 448.421875 591.710938 459.394531 605.691406 473.375 C 619.671875 487.359375 630.648438 503.636719 638.316406 521.757812 C 646.246094 540.511719 650.269531 560.441406 650.269531 580.992188 C 650.269531 601.542969 646.246094 621.472656 638.316406 640.226562 Z M 638.316406 640.226562 " fill-opacity="1" fill-rule="nonzero"/></g><path fill="#80030e" d="M 276.1875 132.867188 L 457.726562 132.867188 C 466.101562 132.867188 472.890625 126.082031 472.890625 117.707031 C 472.890625 109.335938 466.101562 102.546875 457.726562 102.546875 L 276.1875 102.546875 C 267.8125 102.546875 261.027344 109.335938 261.027344 117.707031 C 261.027344 126.082031 267.8125 132.867188 276.1875 132.867188 Z M 276.1875 132.867188 " fill-opacity="1" fill-rule="nonzero"/><path fill="#80030e" d="M 276.1875 219.40625 L 457.726562 219.40625 C 466.101562 219.40625 472.890625 212.617188 472.890625 204.246094 C 472.890625 195.871094 466.101562 189.085938 457.726562 189.085938 L 276.1875 189.085938 C 267.8125 189.085938 261.027344 195.871094 261.027344 204.246094 C 261.027344 212.617188 267.8125 219.40625 276.1875 219.40625 Z M 276.1875 219.40625 " fill-opacity="1" fill-rule="nonzero"/><path fill="#80030e" d="M 96.554688 290.785156 C 96.554688 299.15625 103.34375 305.945312 111.714844 305.945312 L 457.726562 305.945312 C 466.101562 305.945312 472.890625 299.15625 472.890625 290.785156 C 472.890625 282.414062 466.101562 275.625 457.726562 275.625 L 111.714844 275.625 C 103.34375 275.625 96.554688 282.414062 96.554688 290.785156 Z M 96.554688 290.785156 " fill-opacity="1" fill-rule="nonzero"/><path fill="#80030e" d="M 111.714844 392.484375 L 416.707031 392.484375 C 425.082031 392.484375 431.867188 385.695312 431.867188 377.324219 C 431.867188 368.949219 425.082031 362.164062 416.707031 362.164062 L 111.714844 362.164062 C 103.34375 362.164062 96.554688 368.949219 96.554688 377.324219 C 96.554688 385.695312 103.34375 392.484375 111.714844 392.484375 Z M 111.714844 392.484375 " fill-opacity="1" fill-rule="nonzero"/><path fill="#80030e" d="M 325.386719 463.863281 C 325.386719 455.492188 318.597656 448.703125 310.226562 448.703125 L 111.714844 448.703125 C 103.34375 448.703125 96.554688 455.492188 96.554688 463.863281 C 96.554688 472.234375 103.34375 479.023438 111.714844 479.023438 L 310.226562 479.023438 C 318.597656 479.023438 325.386719 472.234375 325.386719 463.863281 Z M 325.386719 463.863281 " fill-opacity="1" fill-rule="nonzero"/><path fill="#80030e" d="M 111.714844 565.5625 L 278.3125 565.5625 C 286.683594 565.5625 293.472656 558.773438 293.472656 550.402344 C 293.472656 542.027344 286.683594 535.242188 278.3125 535.242188 L 111.714844 535.242188 C 103.34375 535.242188 96.554688 542.027344 96.554688 550.402344 C 96.554688 558.773438 103.34375 565.5625 111.714844 565.5625 Z M 111.714844 565.5625 " fill-opacity="1" fill-rule="nonzero"/><path fill="#80030e" d="M 111.714844 652.101562 L 284.722656 652.101562 C 293.09375 652.101562 299.882812 645.3125 299.882812 636.9375 C 299.882812 628.566406 293.09375 621.777344 284.722656 621.777344 L 111.714844 621.777344 C 103.34375 621.777344 96.554688 628.566406 96.554688 636.9375 C 96.554688 645.3125 103.34375 652.101562 111.714844 652.101562 Z M 111.714844 652.101562 " fill-opacity="1" fill-rule="nonzero"/><path fill="#80030e" d="M 460.820312 620.179688 L 411.929688 571.289062 L 381.914062 601.304688 L 460.820312 680.210938 L 607.875 533.15625 L 577.859375 503.140625 Z M 460.820312 620.179688 " fill-opacity="1" fill-rule="nonzero"/><g clip-path="url(#99bed858b0)"><path fill="#80030e" d="M 676.023438 128.660156 L 628.757812 128.660156 L 628.757812 81.394531 C 628.757812 73.019531 621.96875 66.234375 613.597656 66.234375 L 566.332031 66.234375 L 566.332031 15.402344 C 566.332031 7.027344 559.542969 0.238281 551.171875 0.238281 L 202.21875 0.238281 C 202.1875 0.238281 202.15625 0.242188 202.125 0.242188 C 201.933594 0.242188 201.742188 0.25 201.554688 0.257812 C 201.496094 0.257812 201.441406 0.261719 201.382812 0.261719 C 201.167969 0.277344 200.953125 0.292969 200.738281 0.3125 C 200.648438 0.320312 200.558594 0.335938 200.46875 0.34375 C 200.347656 0.359375 200.222656 0.375 200.101562 0.386719 C 199.984375 0.40625 199.867188 0.421875 199.75 0.441406 C 199.671875 0.457031 199.597656 0.46875 199.519531 0.484375 C 199.238281 0.53125 198.964844 0.589844 198.691406 0.65625 C 198.667969 0.664062 198.648438 0.667969 198.625 0.671875 C 198.464844 0.710938 198.308594 0.75 198.152344 0.792969 C 198.121094 0.800781 198.085938 0.8125 198.054688 0.820312 C 197.566406 0.960938 197.089844 1.125 196.625 1.308594 C 196.597656 1.320312 196.570312 1.332031 196.542969 1.339844 C 196.394531 1.398438 196.25 1.460938 196.105469 1.523438 C 196.066406 1.542969 196.023438 1.5625 195.980469 1.582031 C 195.566406 1.769531 195.160156 1.976562 194.761719 2.199219 C 194.675781 2.246094 194.59375 2.292969 194.511719 2.34375 C 194.417969 2.398438 194.320312 2.457031 194.226562 2.515625 C 194.125 2.578125 194.023438 2.644531 193.921875 2.707031 C 193.84375 2.757812 193.769531 2.808594 193.695312 2.859375 C 193.523438 2.972656 193.359375 3.09375 193.191406 3.214844 C 193.136719 3.257812 193.082031 3.300781 193.027344 3.34375 C 192.90625 3.433594 192.785156 3.53125 192.664062 3.628906 C 192.601562 3.675781 192.542969 3.726562 192.484375 3.777344 C 192.363281 3.875 192.246094 3.980469 192.132812 4.082031 C 192.082031 4.125 192.03125 4.167969 191.984375 4.214844 C 191.964844 4.230469 191.945312 4.25 191.925781 4.269531 L 4.855469 177.34375 C 4.546875 177.632812 4.253906 177.929688 3.96875 178.238281 C 3.929688 178.285156 3.886719 178.332031 3.847656 178.375 C 3.738281 178.496094 3.632812 178.621094 3.527344 178.746094 C 3.480469 178.800781 3.4375 178.855469 3.390625 178.910156 C 3.289062 179.035156 3.191406 179.160156 3.09375 179.289062 C 3.054688 179.34375 3.015625 179.394531 2.972656 179.449219 C 2.847656 179.617188 2.722656 179.792969 2.601562 179.96875 C 2.558594 180.03125 2.519531 180.097656 2.476562 180.164062 C 2.402344 180.277344 2.328125 180.390625 2.257812 180.503906 C 2.199219 180.597656 2.140625 180.695312 2.085938 180.792969 C 2.035156 180.875 1.988281 180.960938 1.941406 181.042969 C 1.878906 181.15625 1.816406 181.269531 1.753906 181.382812 C 1.726562 181.433594 1.703125 181.484375 1.675781 181.539062 C 1.445312 181.980469 1.242188 182.433594 1.054688 182.898438 C 1.046875 182.929688 1.035156 182.953125 1.023438 182.980469 C 0.769531 183.636719 0.5625 184.3125 0.398438 185.007812 C 0.386719 185.054688 0.375 185.105469 0.363281 185.152344 C 0.328125 185.296875 0.296875 185.445312 0.269531 185.59375 C 0.257812 185.664062 0.242188 185.738281 0.230469 185.808594 C 0.195312 186.003906 0.164062 186.203125 0.136719 186.402344 C 0.117188 186.542969 0.0976562 186.679688 0.0859375 186.816406 C 0.0742188 186.90625 0.0664062 186.992188 0.0585938 187.082031 C 0.0429688 187.242188 0.03125 187.40625 0.0234375 187.566406 C 0.015625 187.628906 0.0117188 187.691406 0.0117188 187.757812 C 0 187.992188 -0.0078125 188.226562 -0.0078125 188.464844 C -0.0078125 188.46875 -0.0078125 188.472656 -0.0078125 188.472656 L -0.0078125 748.339844 C -0.0078125 756.710938 6.78125 763.5 15.15625 763.5 L 357.851562 763.5 C 366.226562 763.5 373.011719 756.710938 373.011719 748.339844 C 373.011719 739.964844 366.226562 733.179688 357.851562 733.179688 L 30.3125 733.179688 L 30.3125 203.640625 L 202.21875 203.640625 C 210.589844 203.640625 217.378906 196.851562 217.378906 188.480469 L 217.378906 30.5625 L 536.011719 30.5625 L 536.011719 370.136719 C 536.011719 378.507812 542.800781 385.296875 551.171875 385.296875 C 559.546875 385.296875 566.332031 378.507812 566.332031 370.136719 L 566.332031 96.554688 L 598.4375 96.554688 L 598.4375 401.8125 C 598.4375 410.1875 605.226562 416.976562 613.597656 416.976562 C 621.972656 416.976562 628.761719 410.1875 628.761719 401.8125 L 628.761719 158.980469 L 660.863281 158.980469 L 660.863281 467.878906 C 660.863281 476.25 667.652344 483.039062 676.027344 483.039062 C 684.398438 483.039062 691.1875 476.25 691.1875 467.878906 L 691.1875 143.820312 C 691.183594 135.445312 684.398438 128.660156 676.023438 128.660156 Z M 187.058594 173.320312 L 53.859375 173.320312 L 187.058594 50.082031 Z M 187.058594 173.320312 " fill-opacity="1" fill-rule="nonzero"/></g><g clip-path="url(#b655475d9c)"><path fill="#80030e" d="M 627.132812 451.933594 C 610.375 435.179688 590.855469 422.019531 569.121094 412.828125 C 546.609375 403.304688 522.707031 398.476562 498.074219 398.476562 C 473.441406 398.476562 449.539062 403.304688 427.027344 412.828125 C 405.292969 422.019531 385.777344 435.179688 369.015625 451.933594 C 352.261719 468.691406 339.101562 488.210938 329.910156 509.945312 C 320.386719 532.457031 315.558594 556.359375 315.558594 580.992188 C 315.558594 605.625 320.386719 629.527344 329.910156 652.039062 C 339.101562 673.773438 352.261719 693.292969 369.015625 710.050781 C 385.773438 726.804688 405.292969 739.964844 427.027344 749.160156 C 449.539062 758.679688 473.441406 763.507812 498.074219 763.507812 C 522.707031 763.507812 546.609375 758.679688 569.121094 749.160156 C 590.855469 739.964844 610.375 726.804688 627.132812 710.050781 C 643.886719 693.292969 657.046875 673.773438 666.242188 652.039062 C 675.761719 629.527344 680.589844 605.625 680.589844 580.992188 C 680.589844 556.359375 675.761719 532.457031 666.242188 509.945312 C 657.046875 488.210938 643.886719 468.691406 627.132812 451.933594 Z M 638.316406 640.226562 C 630.648438 658.347656 619.671875 674.625 605.691406 688.609375 C 591.710938 702.589844 575.433594 713.566406 557.3125 721.230469 C 538.558594 729.164062 518.628906 733.183594 498.078125 733.183594 C 477.523438 733.183594 457.59375 729.164062 438.839844 721.230469 C 420.71875 713.566406 404.441406 702.589844 390.460938 688.609375 C 376.480469 674.625 365.503906 658.347656 357.839844 640.226562 C 349.90625 621.472656 345.882812 601.542969 345.882812 580.992188 C 345.882812 560.441406 349.90625 540.511719 357.839844 521.757812 C 365.503906 503.636719 376.480469 487.359375 390.460938 473.375 C 404.441406 459.394531 420.71875 448.421875 438.839844 440.753906 C 457.59375 432.820312 477.523438 428.800781 498.078125 428.800781 C 518.628906 428.800781 538.558594 432.820312 557.3125 440.753906 C 575.433594 448.421875 591.710938 459.394531 605.691406 473.375 C 619.671875 487.359375 630.648438 503.636719 638.316406 521.757812 C 646.246094 540.511719 650.269531 560.441406 650.269531 580.992188 C 650.269531 601.542969 646.246094 621.472656 638.316406 640.226562 Z M 638.316406 640.226562 " fill-opacity="1" fill-rule="nonzero"/></g><path fill="#80030e" d="M 276.1875 132.867188 L 457.726562 132.867188 C 466.101562 132.867188 472.890625 126.082031 472.890625 117.707031 C 472.890625 109.335938 466.101562 102.546875 457.726562 102.546875 L 276.1875 102.546875 C 267.8125 102.546875 261.027344 109.335938 261.027344 117.707031 C 261.027344 126.082031 267.8125 132.867188 276.1875 132.867188 Z M 276.1875 132.867188 " fill-opacity="1" fill-rule="nonzero"/><path fill="#80030e" d="M 276.1875 219.40625 L 457.726562 219.40625 C 466.101562 219.40625 472.890625 212.617188 472.890625 204.246094 C 472.890625 195.871094 466.101562 189.085938 457.726562 189.085938 L 276.1875 189.085938 C 267.8125 189.085938 261.027344 195.871094 261.027344 204.246094 C 261.027344 212.617188 267.8125 219.40625 276.1875 219.40625 Z M 276.1875 219.40625 " fill-opacity="1" fill-rule="nonzero"/><path fill="#80030e" d="M 96.554688 290.785156 C 96.554688 299.15625 103.34375 305.945312 111.714844 305.945312 L 457.726562 305.945312 C 466.101562 305.945312 472.890625 299.15625 472.890625 290.785156 C 472.890625 282.414062 466.101562 275.625 457.726562 275.625 L 111.714844 275.625 C 103.34375 275.625 96.554688 282.414062 96.554688 290.785156 Z M 96.554688 290.785156 " fill-opacity="1" fill-rule="nonzero"/><path fill="#80030e" d="M 111.714844 392.484375 L 416.707031 392.484375 C 425.082031 392.484375 431.867188 385.695312 431.867188 377.324219 C 431.867188 368.949219 425.082031 362.164062 416.707031 362.164062 L 111.714844 362.164062 C 103.34375 362.164062 96.554688 368.949219 96.554688 377.324219 C 96.554688 385.695312 103.34375 392.484375 111.714844 392.484375 Z M 111.714844 392.484375 " fill-opacity="1" fill-rule="nonzero"/><path fill="#80030e" d="M 325.386719 463.863281 C 325.386719 455.492188 318.597656 448.703125 310.226562 448.703125 L 111.714844 448.703125 C 103.34375 448.703125 96.554688 455.492188 96.554688 463.863281 C 96.554688 472.234375 103.34375 479.023438 111.714844 479.023438 L 310.226562 479.023438 C 318.597656 479.023438 325.386719 472.234375 325.386719 463.863281 Z M 325.386719 463.863281 " fill-opacity="1" fill-rule="nonzero"/><path fill="#80030e" d="M 111.714844 565.5625 L 278.3125 565.5625 C 286.683594 565.5625 293.472656 558.773438 293.472656 550.402344 C 293.472656 542.027344 286.683594 535.242188 278.3125 535.242188 L 111.714844 535.242188 C 103.34375 535.242188 96.554688 542.027344 96.554688 550.402344 C 96.554688 558.773438 103.34375 565.5625 111.714844 565.5625 Z M 111.714844 565.5625 " fill-opacity="1" fill-rule="nonzero"/><path fill="#80030e" d="M 111.714844 652.101562 L 284.722656 652.101562 C 293.09375 652.101562 299.882812 645.3125 299.882812 636.9375 C 299.882812 628.566406 293.09375 621.777344 284.722656 621.777344 L 111.714844 621.777344 C 103.34375 621.777344 96.554688 628.566406 96.554688 636.9375 C 96.554688 645.3125 103.34375 652.101562 111.714844 652.101562 Z M 111.714844 652.101562 " fill-opacity="1" fill-rule="nonzero"/><path fill="#80030e" d="M 460.820312 620.179688 L 411.929688 571.289062 L 381.914062 601.304688 L 460.820312 680.210938 L 607.875 533.15625 L 577.859375 503.140625 Z M 460.820312 620.179688 " fill-opacity="1" fill-rule="nonzero"/></svg>