<svg width="68" height="65" viewBox="0 0 68 65" fill="none" xmlns="http://www.w3.org/2000/svg">
<g id="Img">
<path id="Vector" d="M58.89 0.25C63.4863 0.25 67.2233 3.8375 67.2233 8.25V24.25C67.2233 25.35 66.2858 26.25 65.14 26.25H58.3691C57.5098 26.25 56.8066 26.925 56.8066 27.75V28.25C56.8066 30.4625 54.9447 32.25 52.64 32.25C50.3353 32.25 48.4733 30.4625 48.4733 28.25V27.75C48.4733 26.925 47.7702 26.25 46.9108 26.25H42.2233C41.0775 26.25 40.14 25.35 40.14 24.25V20.25C40.14 19.15 41.0775 18.25 42.2233 18.25H44.3066C46.6113 18.25 48.4733 16.4625 48.4733 14.25C48.4733 12.0375 46.6113 10.25 44.3066 10.25H42.2233C41.0775 10.25 40.14 9.35 40.14 8.25V2.25C40.14 1.15 41.0775 0.25 42.2233 0.25H58.89ZM0.556641 30.25V16.25C0.556641 11.8375 4.29362 8.25 8.88997 8.25H27.64C28.7858 8.25 29.7233 9.15 29.7233 10.25V16.75C29.7233 17.575 30.4264 18.25 31.2858 18.25H31.8066C34.1113 18.25 35.9733 20.0375 35.9733 22.25C35.9733 24.4625 34.1113 26.25 31.8066 26.25H31.2858C30.4264 26.25 29.7233 26.925 29.7233 27.75V34.25C29.7233 35.35 28.7858 36.25 27.64 36.25H23.4733C22.3275 36.25 21.39 35.35 21.39 34.25V32.25C21.39 30.0375 19.528 28.25 17.2233 28.25C14.9186 28.25 13.0566 30.0375 13.0566 32.25V34.25C13.0566 35.35 12.1191 36.25 10.9733 36.25H6.80664V55.25C6.80664 56.9125 8.19987 58.25 9.93164 58.25H29.7233V53.75C29.7233 52.925 29.0202 52.25 28.1608 52.25H27.64C25.3353 52.25 23.4733 50.4625 23.4733 48.25C23.4733 46.0375 25.3353 44.25 27.64 44.25H28.1608C29.0202 44.25 29.7233 43.575 29.7233 42.75V38.25C29.7233 37.15 30.6608 36.25 31.8066 36.25H38.0566C39.2025 36.25 40.14 37.15 40.14 38.25V40.25C40.14 42.4625 42.002 44.25 44.3066 44.25C46.6113 44.25 48.4733 42.4625 48.4733 40.25V38.25C48.4733 37.15 49.4108 36.25 50.5566 36.25H56.8066C57.9525 36.25 58.89 37.15 58.89 38.25V56.25C58.89 60.6625 55.153 64.25 50.5566 64.25H33.89H31.8066H9.93164C4.74935 64.25 0.556641 60.225 0.556641 55.25V34.25V30.25Z" fill="#80030E"/>
</g>
</svg>
