<svg width="64" height="64" viewBox="0 0 64 64" fill="none" xmlns="http://www.w3.org/2000/svg">
<g id="ph:currency-dollar-bold">
<path id="Vector" d="M38 29H35V15H36C37.8565 15 39.637 15.7375 40.9497 17.0503C42.2625 18.363 43 20.1435 43 22C43 22.7956 43.3161 23.5587 43.8787 24.1213C44.4413 24.6839 45.2043 25 46 25C46.7957 25 47.5587 24.6839 48.1213 24.1213C48.6839 23.5587 49 22.7956 49 22C48.996 18.5534 47.6251 15.2491 45.188 12.812C42.7509 10.3749 39.4466 9.00397 36 9H35V6C35 5.20435 34.6839 4.44129 34.1213 3.87868C33.5587 3.31607 32.7956 3 32 3C31.2044 3 30.4413 3.31607 29.8787 3.87868C29.3161 4.44129 29 5.20435 29 6V9H28C24.5522 9 21.2456 10.3696 18.8076 12.8076C16.3696 15.2456 15 18.5522 15 22C15 25.4478 16.3696 28.7544 18.8076 31.1924C21.2456 33.6304 24.5522 35 28 35H29V49H26C24.1435 49 22.363 48.2625 21.0503 46.9497C19.7375 45.637 19 43.8565 19 42C19 41.2043 18.6839 40.4413 18.1213 39.8787C17.5587 39.3161 16.7956 39 16 39C15.2044 39 14.4413 39.3161 13.8787 39.8787C13.3161 40.4413 13 41.2043 13 42C13.004 45.4466 14.3749 48.7509 16.812 51.188C19.2491 53.6251 22.5534 54.996 26 55H29V58C29 58.7957 29.3161 59.5587 29.8787 60.1213C30.4413 60.6839 31.2044 61 32 61C32.7956 61 33.5587 60.6839 34.1213 60.1213C34.6839 59.5587 35 58.7957 35 58V55H38C41.4478 55 44.7544 53.6304 47.1924 51.1924C49.6304 48.7544 51 45.4478 51 42C51 38.5522 49.6304 35.2456 47.1924 32.8076C44.7544 30.3696 41.4478 29 38 29ZM28 29C26.1435 29 24.363 28.2625 23.0503 26.9497C21.7375 25.637 21 23.8565 21 22C21 20.1435 21.7375 18.363 23.0503 17.0503C24.363 15.7375 26.1435 15 28 15H29V29H28ZM38 49H35V35H38C39.8565 35 41.637 35.7375 42.9497 37.0503C44.2625 38.363 45 40.1435 45 42C45 43.8565 44.2625 45.637 42.9497 46.9497C41.637 48.2625 39.8565 49 38 49Z" fill="#80030E"/>
</g>
</svg>
