<svg width="60" height="60" viewBox="0 0 60 60" fill="none" xmlns="http://www.w3.org/2000/svg">
<g id="devicon:facebook">
<path id="Vector" d="M54.6793 2.26416H5.32461C3.6341 2.26416 2.26367 3.63459 2.26367 5.3251V54.6798C2.26367 56.3703 3.6341 57.7407 5.32461 57.7407H54.6793C56.3698 57.7407 57.7402 56.3703 57.7402 54.6798V5.3251C57.7402 3.63459 56.3698 2.26416 54.6793 2.26416Z" fill="#3D5A98"/>
<path id="Vector_2" d="M40.5379 57.7357V36.2529H47.7473L48.8254 27.8811H40.5379V22.5373C40.5379 20.1139 41.2129 18.4592 44.6863 18.4592H49.1207V10.9592C46.9734 10.7358 44.8155 10.6294 42.6566 10.6404C36.2723 10.6404 31.8754 14.5311 31.8754 21.7076V27.8811H24.666V36.2529H31.8754V57.7357H40.5379Z" fill="white"/>
</g>
</svg>
