<svg width="64" height="65" viewBox="0 0 64 65" fill="none" xmlns="http://www.w3.org/2000/svg">
<g id="Img">
<path id="Vector" d="M16 58.2124C14.9 58.2124 14 57.3124 14 56.2124V8.2124C14 7.1124 14.9 6.2124 16 6.2124H36V16.2124C36 18.4249 37.7875 20.2124 40 20.2124H50V56.2124C50 57.3124 49.1 58.2124 48 58.2124H16ZM16 0.212402C11.5875 0.212402 8 3.7999 8 8.2124V56.2124C8 60.6249 11.5875 64.2124 16 64.2124H48C52.4125 64.2124 56 60.6249 56 56.2124V19.5249C56 17.3999 55.1625 15.3624 53.6625 13.8624L42.3375 2.5499C40.8375 1.0499 38.8125 0.212402 36.6875 0.212402H16ZM44.125 33.6624C45.3 32.4874 45.3 30.5874 44.125 29.4249C42.95 28.2624 41.05 28.2499 39.8875 29.4249L28.675 40.6374L24.125 36.0874C22.95 34.9124 21.05 34.9124 19.8875 36.0874C18.725 37.2624 18.7125 39.1624 19.8875 40.3249L26.55 46.9874C27.725 48.1624 29.625 48.1624 30.7875 46.9874L44.125 33.6624Z" fill="white"/>
</g>
</svg>
