<svg width="64" height="65" viewBox="0 0 64 65" fill="none" xmlns="http://www.w3.org/2000/svg">
<g id="Img">
<path id="Vector" d="M6.93 7.0123C5.83 6.2823 4.34 6.5823 3.6 7.6823C2.86 8.7823 3.16 10.2723 4.27 11.0123L9.07 14.2123C10.17 14.9523 11.66 14.6523 12.4 13.5423C13.14 12.4323 12.84 10.9523 11.73 10.2123L6.93 7.0123ZM59.73 11.0123C60.83 10.2723 61.13 8.7823 60.4 7.6823C59.67 6.5823 58.17 6.2823 57.07 7.0123L52.27 10.2123C51.17 10.9523 50.87 12.4423 51.6 13.5423C52.33 14.6423 53.83 14.9423 54.93 14.2123L59.73 11.0123ZM2.4 22.6123C1.07 22.6123 0 23.6823 0 25.0123C0 26.3423 1.07 27.4123 2.4 27.4123H8.8C10.13 27.4123 11.2 26.3423 11.2 25.0123C11.2 23.6823 10.13 22.6123 8.8 22.6123H2.4ZM55.2 22.6123C53.87 22.6123 52.8 23.6823 52.8 25.0123C52.8 26.3423 53.87 27.4123 55.2 27.4123H61.6C62.93 27.4123 64 26.3423 64 25.0123C64 23.6823 62.93 22.6123 61.6 22.6123H55.2ZM11.73 39.8123C12.83 39.0723 13.13 37.5823 12.4 36.4823C11.67 35.3823 10.17 35.0823 9.07 35.8123L4.27 39.0123C3.17 39.7523 2.87 41.2423 3.6 42.3423C4.33 43.4423 5.83 43.7423 6.93 43.0123L11.73 39.8123ZM54.93 35.8223C53.83 35.0823 52.34 35.3823 51.6 36.4923C50.86 37.6023 51.16 39.0823 52.27 39.8223L57.07 43.0223C58.17 43.7623 59.66 43.4623 60.4 42.3523C61.14 41.2423 60.84 39.7623 59.73 39.0223L54.93 35.8223ZM44.8 24.2123C44.8 26.9323 43.96 29.4423 42.52 31.5023C42.15 32.0323 41.72 32.6323 41.25 33.2723C39.96 35.0423 38.42 37.1623 37.27 39.2523C36.23 41.1523 35.7 43.1323 35.44 45.0023H40.3C40.52 43.8023 40.89 42.6323 41.48 41.5523C42.47 39.7523 43.7 38.0623 44.93 36.3723C45.45 35.6623 45.97 34.9523 46.47 34.2323C48.45 31.3823 49.61 27.9323 49.61 24.2023C49.6 14.4923 41.72 6.6123 32 6.6123C22.28 6.6123 14.4 14.4923 14.4 24.2123C14.4 27.9423 15.56 31.4023 17.54 34.2423C18.04 34.9623 18.56 35.6723 19.08 36.3823C20.31 38.0623 21.54 39.7523 22.53 41.5623C23.12 42.6423 23.49 43.8123 23.71 45.0123H28.57C28.31 43.1423 27.78 41.1523 26.74 39.2623C25.59 37.1723 24.05 35.0523 22.76 33.2823C22.29 32.6423 21.86 32.0423 21.48 31.5123C20.04 29.4423 19.2 26.9323 19.2 24.2123C19.2 17.1423 24.93 11.4123 32 11.4123C39.07 11.4123 44.8 17.1423 44.8 24.2123ZM27.2 24.2123C27.2 21.5623 29.35 19.4123 32 19.4123C32.88 19.4123 33.6 18.6923 33.6 17.8123C33.6 16.9323 32.88 16.2123 32 16.2123C27.58 16.2123 24 19.7923 24 24.2123C24 25.0923 24.72 25.8123 25.6 25.8123C26.48 25.8123 27.2 25.0923 27.2 24.2123ZM40 49.8123V48.2123H24V49.8123C24 54.2323 27.58 57.8123 32 57.8123C36.42 57.8123 40 54.2323 40 49.8123Z" fill="white"/>
</g>
</svg>
