<svg width="64" height="65" viewBox="0 0 64 65" fill="none" xmlns="http://www.w3.org/2000/svg">
<g id="Img">
<path id="Vector" d="M0.5125 4.9874L13.3 24.1499C14.7 22.6999 16.2625 21.4124 17.9625 20.3249L8.55 6.2124H16.6125L23.475 17.6499C25.45 16.9624 27.525 16.5124 29.675 16.3249L28.9125 15.0624L21.1625 2.1499C20.4375 0.949902 19.1375 0.212402 17.7375 0.212402H3.075C1.375 0.212402 0 1.5874 0 3.2874C0 3.8874 0.175 4.4874 0.5125 4.9874ZM35.0875 15.0499L34.325 16.3124C36.475 16.4999 38.55 16.9624 40.525 17.6374L47.4 6.2124H55.4625L46.05 20.3249C47.75 21.4124 49.3125 22.6999 50.7125 24.1499L63.4875 4.9874C63.825 4.4874 64 3.8874 64 3.2874C64 1.5874 62.625 0.212402 60.925 0.212402H46.2625C44.8625 0.212402 43.55 0.949902 42.8375 2.1499L35.1 15.0499H35.0875ZM32 26.2124C36.2435 26.2124 40.3131 27.8981 43.3137 30.8987C46.3143 33.8993 48 37.9689 48 42.2124C48 46.4559 46.3143 50.5255 43.3137 53.5261C40.3131 56.5267 36.2435 58.2124 32 58.2124C27.7565 58.2124 23.6869 56.5267 20.6863 53.5261C17.6857 50.5255 16 46.4559 16 42.2124C16 37.9689 17.6857 33.8993 20.6863 30.8987C23.6869 27.8981 27.7565 26.2124 32 26.2124ZM32 64.2124C37.8348 64.2124 43.4305 61.8946 47.5564 57.7688C51.6822 53.643 54 48.0472 54 42.2124C54 36.3776 51.6822 30.7819 47.5564 26.6561C43.4305 22.5303 37.8348 20.2124 32 20.2124C26.1652 20.2124 20.5695 22.5303 16.4437 26.6561C12.3179 30.7819 10 36.3776 10 42.2124C10 48.0472 12.3179 53.643 16.4437 57.7688C20.5695 61.8946 26.1652 64.2124 32 64.2124ZM32.9 32.0249C32.5375 31.2874 31.475 31.2874 31.1125 32.0249L28.7125 36.8874C28.5625 37.1874 28.2875 37.3874 27.9625 37.4374L22.5875 38.2124C21.7625 38.3374 21.4375 39.3374 22.0375 39.9124L25.9125 43.6874C26.15 43.9124 26.25 44.2499 26.2 44.5749L25.2875 49.9124C25.15 50.7249 26 51.3499 26.7375 50.9624L31.5375 48.4624C31.825 48.3124 32.175 48.3124 32.4625 48.4624L37.2625 50.9874C38 51.3749 38.85 50.7499 38.7125 49.9374L37.8 44.5874C37.75 44.2624 37.85 43.9374 38.0875 43.6999L41.9625 39.9249C42.55 39.3499 42.225 38.3374 41.4125 38.2249L36.05 37.4499C35.725 37.3999 35.4375 37.1999 35.3 36.8999L32.9 32.0374V32.0249Z" fill="white"/>
</g>
</svg>
