<svg width="64" height="64" viewBox="0 0 64 64" fill="none" xmlns="http://www.w3.org/2000/svg">
<g id="puzzle 1" clip-path="url(#clip0_272_57)">
<g id="Clip path group">
<g id="g1594">
<g id="g1600">
<path id="path1602" d="M26.001 60.8281H47.5243C48.893 60.8281 50.0025 59.7186 50.0025 58.35V40.4766C50.0025 39.11 48.8962 38.0018 47.5303 37.9986H47.5245H42.9725C43.2598 38.6613 43.4012 39.4019 43.3562 40.1799C43.2186 42.5575 41.3037 44.4966 38.9277 44.6611C36.1359 44.8542 33.8112 42.6467 33.8112 39.8962C33.8112 39.2218 33.951 38.5802 34.203 37.9986H26.0011V37.9985H26.001" stroke="#80030E" stroke-width="5" stroke-miterlimit="10" stroke-linecap="round" stroke-linejoin="round"/>
</g>
<g id="g1604">
<path id="path1606" d="M5.65004 37.9985C4.28141 37.9985 3.17188 39.108 3.17188 40.4766V58.35C3.17188 59.7186 4.28141 60.8281 5.65004 60.8281H26.0015V53.798C26.5831 54.0501 27.2247 54.1899 27.8991 54.1899C30.6496 54.1899 32.8571 51.8652 32.664 49.0734C32.4996 46.6974 30.5605 44.7825 28.1829 44.6449C27.4048 44.5999 26.6642 44.7413 26.0015 45.0286V37.9985" stroke="#80030E" stroke-width="5" stroke-miterlimit="10" stroke-linecap="round" stroke-linejoin="round"/>
</g>
<g id="g1608">
<path id="path1610" d="M5.65004 15.169H26.0015V22.199C26.5831 21.9469 27.2247 21.8072 27.8991 21.8072C30.6496 21.8072 32.8571 24.1319 32.664 26.9237C32.4996 29.2997 30.5605 31.2146 28.1829 31.3522C27.4048 31.3971 26.6642 31.2558 26.0015 30.9685V37.9985H18.9714C19.2235 38.5802 19.3633 39.2218 19.3633 39.8961C19.3633 42.6467 17.0386 44.8542 14.2468 44.6611C11.8708 44.4967 9.95586 42.5576 9.81828 40.1799C9.77328 39.4019 9.91473 38.6613 10.202 37.9985H5.65004C4.28141 37.9985 3.17188 36.8891 3.17188 35.5204V17.647C3.17188 16.2784 4.28141 15.169 5.65004 15.169Z" stroke="#80030E" stroke-width="5" stroke-miterlimit="10" stroke-linecap="round" stroke-linejoin="round"/>
</g>
<g id="g1612">
<path id="path1614" d="M60.8277 9.59059V5.65005C60.8277 4.28141 59.7182 3.17188 58.3495 3.17188H37.998V10.2018C38.5796 9.94977 39.2213 9.81009 39.8955 9.81009C42.6461 9.81009 44.8536 12.1349 44.6604 14.9266C44.496 17.3026 42.5569 19.2175 40.1793 19.3551C39.4014 19.4001 38.6607 19.2587 37.998 18.9716V26.0015H45.0281C44.7761 26.5831 44.6362 27.2249 44.6362 27.8991C44.6362 30.6497 46.961 32.8572 49.7529 32.664C52.1288 32.4996 54.0437 30.5605 54.1813 28.1829C54.2263 27.4049 54.0848 26.6642 53.7976 26.0015H58.3495C59.7182 26.0015 60.8277 24.892 60.8277 23.5234V20.1857" stroke="#80030E" stroke-width="5" stroke-miterlimit="10" stroke-linecap="round" stroke-linejoin="round"/>
</g>
</g>
</g>
</g>
<defs>
<clipPath id="clip0_272_57">
<rect width="64" height="64" fill="white"/>
</clipPath>
</defs>
</svg>
