<svg width="65" height="65" viewBox="0 0 65 65" fill="none" xmlns="http://www.w3.org/2000/svg">
<g id="Img">
<path id="Vector" d="M46.1064 26.25C46.1064 20.9457 43.9993 15.8586 40.2486 12.1079C36.4979 8.35714 31.4108 6.25 26.1064 6.25C20.8021 6.25 15.715 8.35714 11.9643 12.1079C8.21358 15.8586 6.10645 20.9457 6.10645 26.25C6.10645 31.5543 8.21358 36.6414 11.9643 40.3921C15.715 44.1429 20.8021 46.25 26.1064 46.25C31.4108 46.25 36.4979 44.1429 40.2486 40.3921C43.9993 36.6414 46.1064 31.5543 46.1064 26.25ZM42.2439 46.6375C37.8189 50.15 32.2064 52.25 26.1064 52.25C11.7439 52.25 0.106445 40.6125 0.106445 26.25C0.106445 11.8875 11.7439 0.25 26.1064 0.25C40.4689 0.25 52.1064 11.8875 52.1064 26.25C52.1064 32.35 50.0064 37.9625 46.4939 42.3875L63.2314 59.125C64.4064 60.3 64.4064 62.2 63.2314 63.3625C62.0564 64.525 60.1564 64.5375 58.9939 63.3625L42.2439 46.6375Z" fill="#80030E"/>
</g>
</svg>
