<svg width="65" height="65" viewBox="0 0 65 65" fill="none" xmlns="http://www.w3.org/2000/svg">
<g id="Img">
<path id="Vector" d="M54.8945 9.48751L53.557 10.825C46.457 17.925 36.907 22 26.8945 22.2375V22.25V38.25V38.2625C36.907 38.5 46.457 42.575 53.557 49.675L54.8945 51.0125V9.48751ZM20.8945 16.25H25.982C34.732 16.25 43.132 12.775 49.3195 6.58751L54.0695 1.83751C56.582 -0.68749 60.8945 1.10001 60.8945 4.66251V22.7C63.2195 23.8 64.8945 26.7625 64.8945 30.25C64.8945 33.7375 63.2195 36.7 60.8945 37.8V55.8375C60.8945 59.4 56.582 61.1875 54.0695 58.6625L49.3195 53.9125C43.3445 47.9375 35.3195 44.4875 26.8945 44.2625V57.25C26.8945 61.1125 23.757 64.25 19.8945 64.25H15.8945C12.032 64.25 8.89453 61.1125 8.89453 57.25V44.25C4.48203 44.25 0.894531 40.6625 0.894531 36.25V24.25C0.894531 19.8375 4.48203 16.25 8.89453 16.25H20.8945ZM14.8945 44.25V57.25C14.8945 57.8 15.3445 58.25 15.8945 58.25H19.8945C20.4445 58.25 20.8945 57.8 20.8945 57.25V44.25H14.8945ZM8.89453 22.25C7.79453 22.25 6.89453 23.15 6.89453 24.25V36.25C6.89453 37.35 7.79453 38.25 8.89453 38.25H14.8945H20.8945V22.25H8.89453Z" fill="#80030E"/>
</g>
</svg>
