<svg xmlns="http://www.w3.org/2000/svg" xmlns:xlink="http://www.w3.org/1999/xlink" width="1024" zoomAndPan="magnify" viewBox="0 0 768 767.999994" height="1024" preserveAspectRatio="xMidYMid meet" version="1.0"><defs><clipPath id="f0c2bf6f9b"><path d="M 0 16.058594 L 257 16.058594 L 257 432 L 0 432 Z M 0 16.058594 " clip-rule="nonzero"/></clipPath><clipPath id="cd69480275"><path d="M 224 48 L 768 48 L 768 751.808594 L 224 751.808594 Z M 224 48 " clip-rule="nonzero"/></clipPath><clipPath id="f9d5c85832"><path d="M 0 16.058594 L 257 16.058594 L 257 432 L 0 432 Z M 0 16.058594 " clip-rule="nonzero"/></clipPath><clipPath id="2fcc9c2801"><path d="M 224 48 L 768 48 L 768 751.808594 L 224 751.808594 Z M 224 48 " clip-rule="nonzero"/></clipPath></defs><g clip-path="url(#f0c2bf6f9b)"><path fill="#80030e" d="M 240.292969 431.988281 L 16.332031 431.988281 C 7.5 431.988281 0.332031 424.855469 0.332031 415.992188 L 0.332031 32.054688 C 0.332031 23.222656 7.5 16.058594 16.332031 16.058594 L 240.292969 16.058594 C 249.125 16.058594 256.289062 23.222656 256.289062 32.054688 L 256.289062 415.992188 C 256.289062 424.855469 249.125 431.988281 240.292969 431.988281 Z M 32.328125 399.992188 L 224.296875 399.992188 L 224.296875 48.050781 L 32.328125 48.050781 Z M 32.328125 399.992188 " fill-opacity="1" fill-rule="nonzero"/></g><g clip-path="url(#cd69480275)"><path fill="#80030e" d="M 416.265625 751.9375 C 383.054688 751.9375 359.28125 733.25 358.257812 732.453125 C 354.480469 729.410156 352.273438 724.804688 352.273438 719.941406 L 352.273438 611.480469 L 260.097656 411.800781 L 233.125 398.332031 C 225.222656 394.363281 222.023438 384.765625 225.960938 376.863281 C 229.925781 368.925781 239.523438 365.824219 247.429688 369.695312 L 279.421875 385.691406 C 282.6875 387.324219 285.277344 390.011719 286.78125 393.308594 L 382.765625 601.273438 C 383.757812 603.351562 384.269531 605.65625 384.269531 607.960938 L 384.269531 711.238281 C 390.890625 714.917969 402.472656 719.941406 416.265625 719.941406 C 433.796875 719.941406 480.253906 676.332031 480.253906 623.957031 C 480.253906 567.679688 449.601562 486.476562 449.316406 485.675781 C 447.425781 480.78125 448.097656 475.246094 451.105469 470.925781 C 454.082031 466.605469 459.007812 464.015625 464.257812 464.015625 L 688.21875 464.015625 C 714.679688 464.015625 736.210938 442.484375 736.210938 416.023438 C 736.210938 399.386719 727.605469 384.15625 713.207031 375.292969 C 708.3125 372.253906 705.402344 366.816406 705.625 361.054688 C 705.878906 355.296875 709.175781 350.082031 714.296875 347.457031 C 727.828125 340.484375 736.210938 326.917969 736.210938 312.007812 C 736.210938 291.820312 720.949219 274.863281 700.761719 272.558594 C 694.585938 271.855469 689.371094 267.632812 687.386719 261.746094 C 685.402344 255.824219 687.066406 249.332031 691.578125 245.074219 C 699.707031 237.363281 704.214844 227.03125 704.214844 216.023438 C 704.214844 195.835938 688.957031 178.878906 668.765625 176.574219 C 662.589844 175.871094 657.375 171.648438 655.394531 165.761719 C 653.410156 159.875 655.074219 153.347656 659.585938 149.089844 C 667.710938 141.378906 672.222656 131.046875 672.222656 120.039062 C 672.222656 97.996094 654.273438 80.046875 632.230469 80.046875 L 336.277344 80.046875 C 310.296875 80.046875 266.753906 92.238281 251.621094 107.371094 C 245.378906 113.609375 235.238281 113.609375 229 107.371094 C 222.761719 101.132812 222.761719 90.988281 229 84.75 C 252.964844 60.816406 306.683594 48.050781 336.277344 48.050781 L 632.230469 48.050781 C 671.902344 48.050781 704.214844 80.367188 704.214844 120.039062 C 704.214844 131.335938 701.625 142.210938 696.699219 152.035156 C 720.34375 163.9375 736.210938 188.285156 736.210938 216.023438 C 736.210938 227.320312 733.621094 238.195312 728.691406 248.019531 C 752.335938 259.921875 768.207031 284.269531 768.207031 312.007812 C 768.207031 331.207031 760.589844 349.15625 747.441406 362.398438 C 760.6875 376.894531 768.207031 395.804688 768.207031 415.992188 C 768.207031 460.082031 732.339844 495.976562 688.21875 495.976562 L 486.78125 495.976562 C 496.570312 525.703125 512.25 580.1875 512.25 623.957031 C 512.25 693.386719 453.28125 751.9375 416.265625 751.9375 Z M 416.265625 751.9375 " fill-opacity="1" fill-rule="nonzero"/></g><g clip-path="url(#f9d5c85832)"><path fill="#80030e" d="M 240.292969 431.988281 L 16.332031 431.988281 C 7.5 431.988281 0.332031 424.855469 0.332031 415.992188 L 0.332031 32.054688 C 0.332031 23.222656 7.5 16.058594 16.332031 16.058594 L 240.292969 16.058594 C 249.125 16.058594 256.289062 23.222656 256.289062 32.054688 L 256.289062 415.992188 C 256.289062 424.855469 249.125 431.988281 240.292969 431.988281 Z M 32.328125 399.992188 L 224.296875 399.992188 L 224.296875 48.050781 L 32.328125 48.050781 Z M 32.328125 399.992188 " fill-opacity="1" fill-rule="nonzero"/></g><g clip-path="url(#2fcc9c2801)"><path fill="#80030e" d="M 416.265625 751.9375 C 383.054688 751.9375 359.28125 733.25 358.257812 732.453125 C 354.480469 729.410156 352.273438 724.804688 352.273438 719.941406 L 352.273438 611.480469 L 260.097656 411.800781 L 233.125 398.332031 C 225.222656 394.363281 222.023438 384.765625 225.960938 376.863281 C 229.925781 368.925781 239.523438 365.824219 247.429688 369.695312 L 279.421875 385.691406 C 282.6875 387.324219 285.277344 390.011719 286.78125 393.308594 L 382.765625 601.273438 C 383.757812 603.351562 384.269531 605.65625 384.269531 607.960938 L 384.269531 711.238281 C 390.890625 714.917969 402.472656 719.941406 416.265625 719.941406 C 433.796875 719.941406 480.253906 676.332031 480.253906 623.957031 C 480.253906 567.679688 449.601562 486.476562 449.316406 485.675781 C 447.425781 480.78125 448.097656 475.246094 451.105469 470.925781 C 454.082031 466.605469 459.007812 464.015625 464.257812 464.015625 L 688.21875 464.015625 C 714.679688 464.015625 736.210938 442.484375 736.210938 416.023438 C 736.210938 399.386719 727.605469 384.15625 713.207031 375.292969 C 708.3125 372.253906 705.402344 366.816406 705.625 361.054688 C 705.878906 355.296875 709.175781 350.082031 714.296875 347.457031 C 727.828125 340.484375 736.210938 326.917969 736.210938 312.007812 C 736.210938 291.820312 720.949219 274.863281 700.761719 272.558594 C 694.585938 271.855469 689.371094 267.632812 687.386719 261.746094 C 685.402344 255.824219 687.066406 249.332031 691.578125 245.074219 C 699.707031 237.363281 704.214844 227.03125 704.214844 216.023438 C 704.214844 195.835938 688.957031 178.878906 668.765625 176.574219 C 662.589844 175.871094 657.375 171.648438 655.394531 165.761719 C 653.410156 159.875 655.074219 153.347656 659.585938 149.089844 C 667.710938 141.378906 672.222656 131.046875 672.222656 120.039062 C 672.222656 97.996094 654.273438 80.046875 632.230469 80.046875 L 336.277344 80.046875 C 310.296875 80.046875 266.753906 92.238281 251.621094 107.371094 C 245.378906 113.609375 235.238281 113.609375 229 107.371094 C 222.761719 101.132812 222.761719 90.988281 229 84.75 C 252.964844 60.816406 306.683594 48.050781 336.277344 48.050781 L 632.230469 48.050781 C 671.902344 48.050781 704.214844 80.367188 704.214844 120.039062 C 704.214844 131.335938 701.625 142.210938 696.699219 152.035156 C 720.34375 163.9375 736.210938 188.285156 736.210938 216.023438 C 736.210938 227.320312 733.621094 238.195312 728.691406 248.019531 C 752.335938 259.921875 768.207031 284.269531 768.207031 312.007812 C 768.207031 331.207031 760.589844 349.15625 747.441406 362.398438 C 760.6875 376.894531 768.207031 395.804688 768.207031 415.992188 C 768.207031 460.082031 732.339844 495.976562 688.21875 495.976562 L 486.78125 495.976562 C 496.570312 525.703125 512.25 580.1875 512.25 623.957031 C 512.25 693.386719 453.28125 751.9375 416.265625 751.9375 Z M 416.265625 751.9375 " fill-opacity="1" fill-rule="nonzero"/></g></svg>