<svg width="23" height="25" viewBox="0 0 23 25" fill="none" xmlns="http://www.w3.org/2000/svg">
<g id="Frame">
<path id="Vector" fill-rule="evenodd" clip-rule="evenodd" d="M18.9624 7.15682C19.1752 7.36969 19.2948 7.65837 19.2948 7.95938C19.2948 8.26038 19.1752 8.54906 18.9624 8.76193L9.88244 17.8432C9.6696 18.056 9.38096 18.1755 9.08 18.1755C8.77904 18.1755 8.4904 18.056 8.27755 17.8432L3.73755 13.3025C3.5308 13.0885 3.4164 12.8017 3.41899 12.5041C3.42157 12.2064 3.54094 11.9217 3.75138 11.7113C3.96182 11.5008 4.24649 11.3814 4.54408 11.3788C4.84168 11.3762 5.12838 11.4907 5.34244 11.6974L9.08 15.4355L17.3576 7.15682C17.5704 6.94401 17.859 6.82446 18.16 6.82446C18.461 6.82446 18.7496 6.94401 18.9624 7.15682Z" fill="#22c55e" stroke="#22c55e"/>
</g>
</svg>
