<?xml version="1.0" encoding="utf-8"?>
<!-- Generator: Adobe Illustrator 28.0.0, SVG Export Plug-In . SVG Version: 6.00 Build 0)  -->
<svg version="1.1" id="Layer_1" xmlns="http://www.w3.org/2000/svg" xmlns:xlink="http://www.w3.org/1999/xlink" x="0px" y="0px"
	 viewBox="0 0 416.6 91.5" style="enable-background:new 0 0 416.6 91.5;" xml:space="preserve">
<style type="text/css">
	.st0{fill:#E0DFE0;}
	.st1{fill:#B8BBC2;}
	.st2{fill:#0A1739;}
	.st3{fill:#801619;}
	.st4{fill:#BDB5AB;}
	.st5{clip-path:url(#SVGID_00000145760884731430577820000003603028749055019958_);}
</style>
<g>
	<rect x="51.2" class="st2" width="365.4" height="91.8"/>
	<g>
		<defs>
			<rect id="SVGID_1_" width="51.2" height="91.8"/>
		</defs>
		<clipPath id="SVGID_00000114042273160854395090000014546380352242887845_">
			<use xlink:href="#SVGID_1_"  style="overflow:visible;"/>
		</clipPath>
		<g style="clip-path:url(#SVGID_00000114042273160854395090000014546380352242887845_);">
			<path class="st3" d="M56.2-5.6C53.4-6,50.7-6.4,48-6.9l-88,88v9.5L56.2-5.6z"/>
			<path class="st3" d="M39.8-8.4C37.2-9,34.6-9.5,32-10.1l-72.1,72.1v9.5L39.8-8.4z"/>
			<path class="st3" d="M9.3-16.4c-0.2-0.1-0.5-0.1-0.7-0.2c-2.2-0.7-4.3-1.5-6.4-2.2l-42.2,42.2v9.5L9.3-16.4z"/>
			<path class="st3" d="M24.2-12.1c-2.5-0.7-5-1.3-7.5-2.1l-56.8,56.8v9.5L24.2-12.1z"/>
			<path class="st3" d="M97,88.3c-0.2-2.9-0.5-5.8-0.9-8.6L83,92.8h9.5L97,88.3z"/>
			<polygon class="st3" points="86,41.6 83.7,34.3 25.3,92.8 34.8,92.8 			"/>
			<polygon class="st3" points="90.6,56.2 88.3,48.9 44.5,92.8 54,92.8 			"/>
			<path class="st3" d="M72.1-2.3l-0.4-1.3c-2.3-0.2-4.7-0.5-7-0.8l-97.2,97.2h9.5L72.1-2.3z"/>
			<path class="st3" d="M94.7,71.4c-0.5-2.6-1.1-5.1-1.8-7.7L63.7,92.8h9.5L94.7,71.4z"/>
			<polygon class="st3" points="76.8,12.3 74.5,5.1 -13.2,92.8 -3.7,92.8 			"/>
			<polygon class="st3" points="81.4,26.9 79.1,19.7 6,92.8 15.5,92.8 			"/>
		</g>
	</g>
	<g>
		
			<image style="overflow:visible;opacity:0.75;" width="1115" height="274" xlink:href="980ED473.png"  transform="matrix(0.24 0 0 0.24 64.8577 13.4173)">
		</image>
		<g>
			<g>
				<g>
					<g>
						<path class="st0" d="M76.9,29.9l-5.8-14.5h3.3l3,7.8c0.2,0.4,0.3,0.8,0.4,1.1c0.1,0.3,0.2,0.6,0.3,0.9
							c0.1,0.3,0.2,0.6,0.3,0.8c0.1,0.3,0.2,0.6,0.2,0.9l-0.6,0c0.1-0.4,0.2-0.8,0.3-1.2c0.1-0.4,0.2-0.7,0.4-1.1s0.3-0.9,0.5-1.4
							l2.9-7.8h3.3l-5.8,14.5H76.9z"/>
						<path class="st0" d="M90.8,29.9l5.7-14.5h2.8l5.6,14.5h-3.2l-2.9-7.8c-0.1-0.2-0.2-0.5-0.3-0.8c-0.1-0.3-0.2-0.7-0.4-1.1
							c-0.1-0.4-0.2-0.8-0.4-1.1c-0.1-0.4-0.2-0.6-0.2-0.9l0.6,0c-0.1,0.3-0.2,0.6-0.3,1c-0.1,0.3-0.2,0.7-0.3,1
							c-0.1,0.4-0.2,0.7-0.4,1c-0.1,0.3-0.2,0.7-0.4,1l-2.9,7.7H90.8z M93.4,26.9l1-2.5h6.6l1,2.5H93.4z"/>
						<path class="st0" d="M129.5,30.2c-1.1,0-2-0.2-2.9-0.5c-0.9-0.4-1.7-0.9-2.3-1.6c-0.7-0.7-1.2-1.5-1.5-2.4
							c-0.4-0.9-0.5-1.9-0.5-3c0-1.1,0.2-2,0.6-2.9c0.4-0.9,0.9-1.7,1.6-2.4c0.7-0.7,1.5-1.2,2.4-1.6c0.9-0.4,1.9-0.6,3-0.6
							c0.7,0,1.4,0.1,2,0.3c0.7,0.2,1.3,0.5,1.8,0.8c0.6,0.4,1,0.8,1.4,1.3l-1.9,2.2c-0.3-0.3-0.7-0.6-1-0.9
							c-0.4-0.2-0.7-0.4-1.1-0.6c-0.4-0.1-0.8-0.2-1.3-0.2c-0.6,0-1.1,0.1-1.7,0.3c-0.5,0.2-1,0.5-1.4,0.9c-0.4,0.4-0.7,0.9-0.9,1.4
							c-0.2,0.6-0.3,1.2-0.3,1.9c0,0.7,0.1,1.3,0.3,1.9c0.2,0.6,0.5,1,0.9,1.4c0.4,0.4,0.9,0.7,1.4,0.9c0.6,0.2,1.2,0.3,1.9,0.3
							c0.4,0,0.9-0.1,1.3-0.2c0.4-0.1,0.8-0.3,1.1-0.5c0.4-0.2,0.7-0.5,0.9-0.8l1.5,2.4c-0.3,0.4-0.8,0.7-1.3,1
							c-0.6,0.3-1.2,0.5-1.9,0.7C130.9,30.1,130.2,30.2,129.5,30.2z"/>
						<path class="st0" d="M142.4,29.9V15.5h3.1v11.7h6.6v2.8H142.4z"/>
						<path class="st0" d="M158.2,29.9l5.7-14.5h2.8l5.6,14.5h-3.2l-2.9-7.8c-0.1-0.2-0.2-0.5-0.3-0.8c-0.1-0.3-0.2-0.7-0.4-1.1
							c-0.1-0.4-0.2-0.8-0.4-1.1c-0.1-0.4-0.2-0.6-0.2-0.9l0.6,0c-0.1,0.3-0.2,0.6-0.3,1c-0.1,0.3-0.2,0.7-0.3,1
							c-0.1,0.4-0.2,0.7-0.4,1c-0.1,0.3-0.2,0.7-0.4,1l-2.9,7.7H158.2z M160.8,26.9l1-2.5h6.6l1,2.5H160.8z"/>
						<path class="st0" d="M178.9,29.9v-2.7h2.4v-9.1h-2.4v-2.7h7.9v2.7h-2.4v9.1h2.4v2.7H178.9z"/>
						<path class="st0" d="M195.2,29.9V15.5h2.8l5.3,8.6l-1.9,0l5.3-8.6h2.7v14.5h-3v-5c0-1.2,0-2.4,0.1-3.4c0.1-1,0.2-2,0.3-3
							l0.4,1l-4.2,6.6h-1.4l-4.2-6.5l0.4-1c0.2,0.9,0.3,1.9,0.3,2.8c0.1,1,0.1,2.1,0.1,3.5v5H195.2z"/>
						<path class="st0" d="M222.9,30.2c-0.9,0-1.7-0.1-2.5-0.3c-0.7-0.2-1.4-0.5-2-1c-0.6-0.4-1.1-0.9-1.5-1.6l1.9-2.2
							c0.7,0.9,1.3,1.6,2,1.9c0.7,0.3,1.4,0.5,2.2,0.5c0.4,0,0.8-0.1,1.1-0.2c0.3-0.1,0.6-0.3,0.8-0.5c0.2-0.2,0.3-0.5,0.3-0.8
							c0-0.2,0-0.4-0.1-0.6c-0.1-0.2-0.2-0.4-0.4-0.5c-0.2-0.1-0.4-0.3-0.6-0.4c-0.2-0.1-0.5-0.2-0.8-0.3s-0.6-0.2-1-0.2
							c-0.8-0.2-1.4-0.4-2-0.7c-0.6-0.3-1.1-0.6-1.4-1c-0.4-0.4-0.7-0.8-0.9-1.3c-0.2-0.5-0.3-1-0.3-1.6c0-0.6,0.1-1.2,0.4-1.7
							c0.3-0.5,0.7-1,1.1-1.4c0.5-0.4,1.1-0.7,1.7-0.9c0.6-0.2,1.3-0.3,2-0.3c0.9,0,1.7,0.1,2.3,0.3c0.7,0.2,1.2,0.5,1.7,0.9
							c0.5,0.4,0.9,0.8,1.2,1.4l-2,1.9c-0.3-0.4-0.6-0.7-0.9-1c-0.3-0.3-0.7-0.5-1.1-0.6c-0.4-0.1-0.8-0.2-1.2-0.2
							c-0.5,0-0.8,0.1-1.2,0.2c-0.3,0.1-0.6,0.3-0.8,0.5c-0.2,0.2-0.3,0.5-0.3,0.8c0,0.2,0.1,0.5,0.2,0.7c0.1,0.2,0.3,0.4,0.5,0.5
							s0.5,0.3,0.8,0.4c0.3,0.1,0.7,0.2,1.1,0.3c0.8,0.2,1.4,0.4,2,0.6c0.6,0.2,1.1,0.5,1.6,0.9c0.4,0.4,0.8,0.8,1,1.2
							s0.4,1,0.4,1.6c0,1-0.2,1.8-0.7,2.5c-0.5,0.7-1.1,1.2-1.9,1.6C225,30,224,30.2,222.9,30.2z"/>
					</g>
				</g>
				<g>
					<path class="st0" d="M66.7,75.2v-4.4l2.4-0.3l10.4-29h7.8l10.4,29l2.4,0.3v4.4H88v-4.4l2.3-0.4L89,66.3H77.7l-1.2,4.2l2.3,0.4
						v4.4H66.7z M79.3,60.9h8L83.8,50l-0.3-1.1h-0.1l-0.4,1.2L79.3,60.9z"/>
					<path class="st0" d="M119.7,75.7c-3.2,0-6.1-0.7-8.6-2c-2.5-1.3-4.4-3.2-5.8-5.7c-1.4-2.5-2.1-5.5-2.1-8.9v-1.3
						c0-3.3,0.6-6.1,1.9-8.6c1.3-2.5,3.1-4.5,5.5-5.9c2.4-1.4,5.2-2.1,8.5-2.1c2.3,0,4.5,0.3,6.6,0.9c2.1,0.6,3.9,1.7,5.6,3.1v8.4
						h-5.4l-0.7-5c-0.5-0.4-1.1-0.7-1.7-0.9c-0.6-0.3-1.2-0.5-1.9-0.6c-0.7-0.1-1.4-0.2-2.2-0.2c-1.8,0-3.4,0.4-4.7,1.3
						c-1.3,0.9-2.4,2.1-3.1,3.8c-0.7,1.6-1.1,3.6-1.1,5.9V59c0,2.2,0.4,4.2,1.1,5.8c0.7,1.7,1.8,2.9,3.2,3.9c1.4,0.9,3,1.4,4.8,1.4
						c1,0,1.9-0.1,2.9-0.3s1.9-0.5,2.7-0.8l0.8-4.7h5.4v8.2c-1.3,0.9-3,1.7-5,2.3C124.5,75.4,122.3,75.7,119.7,75.7z"/>
					<path class="st0" d="M136.7,75.2v-4.4l2.4-0.3l10.4-29h7.8l10.4,29l2.4,0.3v4.4h-12v-4.4l2.3-0.4l-1.3-4.2h-11.4l-1.2,4.2
						l2.3,0.4v4.4H136.7z M149.3,60.9h8L153.7,50l-0.3-1.1h-0.1l-0.4,1.2L149.3,60.9z"/>
					<path class="st0" d="M174.7,75.2v-4.4l3.6-0.8V46.8l-3.6-0.8v-4.4h3.6H190c3,0,5.7,0.7,8,2.1c2.3,1.4,4.1,3.4,5.4,5.9
						c1.3,2.5,2,5.4,2,8.6v0.6c0,3.2-0.6,6.1-1.9,8.6c-1.3,2.5-3.1,4.4-5.4,5.9c-2.3,1.4-5,2.1-8,2.1H174.7z M185.7,69.6h3.9
						c1.8,0,3.3-0.5,4.5-1.4c1.2-0.9,2.2-2.2,2.8-3.9c0.6-1.6,1-3.5,1-5.7v-0.6c0-2.2-0.3-4.1-1-5.7c-0.6-1.6-1.6-2.9-2.8-3.8
						c-1.2-0.9-2.7-1.4-4.5-1.4h-3.9V69.6z"/>
					<path class="st0" d="M211,75.2v-4.4l3.6-0.7V46.6l-3.6-0.7v-4.4h26.5v9.4h-5.6l-0.3-3.7H222V55h11.1v5.7H222v8.9h10.2l0.3-3.8
						h5.6v9.5H211z"/>
					<path class="st0" d="M244,75.2v-4.4l3.5-0.7V46.6l-3.5-0.7v-4.4h3.5h11.2l8.7,22.9h0.1l8.4-22.9h14.6v4.4l-3.6,0.7v23.5
						l3.6,0.7v4.4h-14.5v-4.4l3.7-0.7v-5.5l0.1-15.5l-0.1,0L270,75h-5.7l-10-25.6l-0.2,0l0.5,14.4v6.4l3.9,0.7v4.4H244z"/>
					<path class="st0" d="M304.8,75.2v-4.4l3.5-0.7v-6.2l-9.9-17.5l-3.4-0.5v-4.4h14v4.4l-2.5,0.4l5.1,10l0.5,1.1h0.2l0.6-1.1
						l5.8-10.1l-3.6-0.4v-4.4h13.7v4.4l-3.4,0.5l-9.8,16.9v6.8l3.6,0.7v4.4H304.8z"/>
				</g>
			</g>
		</g>
	</g>
</g>
</svg>
