<?xml version="1.0" encoding="utf-8"?>
<!-- Generator: Adobe Illustrator 28.0.0, SVG Export Plug-In . SVG Version: 6.00 Build 0)  -->
<svg version="1.1" id="Layer_1" xmlns="http://www.w3.org/2000/svg" xmlns:xlink="http://www.w3.org/1999/xlink" x="0px" y="0px"
	 viewBox="0 0 253.4 59" style="enable-background:new 0 0 253.4 59;" xml:space="preserve">
<style type="text/css">
	.st0{fill:#E0DFE0;}
	.st1{fill:#B8BBC2;}
	.st2{fill:#0A1739;}
	.st3{fill:#801619;}
	.st4{fill:#BDB5AB;}
	.st5{clip-path:url(#SVGID_00000004534734140747709170000013722577391919650209_);}
</style>
<g>
	<g>
		<path class="st2" d="M11.3,14.7L5.8,0.9h3.1l2.9,7.5c0.2,0.4,0.3,0.8,0.4,1.1c0.1,0.3,0.2,0.6,0.3,0.9c0.1,0.3,0.2,0.5,0.2,0.8
			c0.1,0.3,0.2,0.5,0.2,0.8l-0.6,0c0.1-0.4,0.2-0.8,0.3-1.1c0.1-0.3,0.2-0.7,0.4-1.1c0.1-0.4,0.3-0.8,0.5-1.4l2.7-7.5h3.1l-5.5,13.8
			H11.3z"/>
		<path class="st2" d="M24.6,14.7L30,0.9h2.6L38,14.7h-3l-2.8-7.4c-0.1-0.2-0.2-0.5-0.3-0.8c-0.1-0.3-0.2-0.7-0.3-1
			c-0.1-0.4-0.2-0.7-0.3-1.1C31.1,4,31,3.8,31,3.5l0.5,0c-0.1,0.3-0.2,0.6-0.3,0.9c-0.1,0.3-0.2,0.7-0.3,1c-0.1,0.3-0.2,0.7-0.3,1
			c-0.1,0.3-0.2,0.6-0.3,0.9l-2.8,7.4H24.6z M27.1,11.8l1-2.4h6.3l1,2.4H27.1z"/>
		<path class="st2" d="M61.5,14.9c-1,0-1.9-0.2-2.8-0.5c-0.8-0.3-1.6-0.8-2.2-1.5c-0.6-0.6-1.1-1.4-1.5-2.3
			c-0.3-0.9-0.5-1.8-0.5-2.9c0-1,0.2-2,0.5-2.8s0.9-1.6,1.5-2.3c0.6-0.6,1.4-1.1,2.3-1.5c0.9-0.4,1.8-0.5,2.8-0.5
			c0.7,0,1.3,0.1,1.9,0.3c0.6,0.2,1.2,0.4,1.8,0.8c0.5,0.3,1,0.8,1.4,1.2L64.9,5c-0.3-0.3-0.6-0.6-1-0.8c-0.3-0.2-0.7-0.4-1.1-0.5
			c-0.4-0.1-0.8-0.2-1.2-0.2c-0.6,0-1.1,0.1-1.6,0.3c-0.5,0.2-0.9,0.5-1.3,0.9S58.1,5.5,57.9,6c-0.2,0.5-0.3,1.1-0.3,1.8
			c0,0.7,0.1,1.3,0.3,1.8c0.2,0.5,0.5,1,0.9,1.4c0.4,0.4,0.8,0.7,1.4,0.9c0.5,0.2,1.1,0.3,1.8,0.3c0.4,0,0.8-0.1,1.2-0.2
			c0.4-0.1,0.8-0.3,1.1-0.5c0.3-0.2,0.6-0.5,0.9-0.7l1.4,2.3c-0.3,0.4-0.7,0.7-1.3,1c-0.5,0.3-1.1,0.5-1.8,0.7
			C62.9,14.9,62.2,14.9,61.5,14.9z"/>
		<path class="st2" d="M73.8,14.7V0.9h3v11.2H83v2.7H73.8z"/>
		<path class="st2" d="M88.9,14.7l5.4-13.8h2.6l5.4,13.8h-3l-2.8-7.4c-0.1-0.2-0.2-0.5-0.3-0.8c-0.1-0.3-0.2-0.7-0.3-1
			c-0.1-0.4-0.2-0.7-0.3-1.1c-0.1-0.3-0.2-0.6-0.2-0.8l0.5,0c-0.1,0.3-0.2,0.6-0.3,0.9c-0.1,0.3-0.2,0.7-0.3,1
			c-0.1,0.3-0.2,0.7-0.3,1c-0.1,0.3-0.2,0.6-0.3,0.9l-2.8,7.4H88.9z M91.4,11.8l1-2.4h6.3l1,2.4H91.4z"/>
		<path class="st2" d="M108.7,14.7v-2.5h2.3V3.5h-2.3V0.9h7.6v2.5h-2.3v8.7h2.3v2.5H108.7z"/>
		<path class="st2" d="M124.2,14.7V0.9h2.7l5,8.2l-1.8,0l5.1-8.2h2.6v13.8H135V10c0-1.2,0-2.3,0.1-3.2c0.1-0.9,0.2-1.9,0.3-2.8
			l0.4,0.9l-4,6.3h-1.3l-4-6.2l0.3-1c0.1,0.9,0.2,1.8,0.3,2.7c0.1,0.9,0.1,2,0.1,3.3v4.7H124.2z"/>
		<path class="st2" d="M150.7,14.9c-0.9,0-1.6-0.1-2.3-0.3c-0.7-0.2-1.3-0.5-1.9-0.9c-0.5-0.4-1-0.9-1.5-1.5l1.9-2.1
			c0.6,0.9,1.3,1.5,1.9,1.8c0.6,0.3,1.3,0.5,2.1,0.5c0.4,0,0.8-0.1,1.1-0.2c0.3-0.1,0.6-0.3,0.8-0.5c0.2-0.2,0.3-0.5,0.3-0.8
			c0-0.2,0-0.4-0.1-0.6c-0.1-0.2-0.2-0.3-0.4-0.5c-0.2-0.1-0.4-0.3-0.6-0.4c-0.2-0.1-0.5-0.2-0.8-0.3c-0.3-0.1-0.6-0.2-0.9-0.2
			c-0.7-0.2-1.4-0.4-1.9-0.6c-0.6-0.2-1-0.5-1.4-0.9c-0.4-0.4-0.6-0.8-0.8-1.2c-0.2-0.5-0.3-1-0.3-1.6c0-0.6,0.1-1.1,0.4-1.6
			c0.3-0.5,0.6-0.9,1.1-1.3c0.5-0.4,1-0.7,1.6-0.8c0.6-0.2,1.3-0.3,1.9-0.3c0.8,0,1.6,0.1,2.2,0.3c0.6,0.2,1.2,0.5,1.6,0.8
			s0.9,0.8,1.2,1.3l-1.9,1.8c-0.3-0.4-0.6-0.7-0.9-0.9c-0.3-0.3-0.7-0.4-1-0.6c-0.4-0.1-0.8-0.2-1.2-0.2c-0.4,0-0.8,0.1-1.1,0.2
			c-0.3,0.1-0.6,0.3-0.7,0.5c-0.2,0.2-0.3,0.5-0.3,0.8c0,0.2,0.1,0.4,0.2,0.6c0.1,0.2,0.3,0.3,0.5,0.5c0.2,0.1,0.5,0.3,0.8,0.4
			c0.3,0.1,0.7,0.2,1,0.3c0.7,0.1,1.4,0.3,2,0.6c0.6,0.2,1.1,0.5,1.5,0.9c0.4,0.3,0.7,0.7,1,1.2c0.2,0.5,0.3,1,0.3,1.5
			c0,0.9-0.2,1.7-0.7,2.4c-0.4,0.7-1.1,1.2-1.9,1.5C152.6,14.8,151.7,14.9,150.7,14.9z"/>
	</g>
	<g>
		<path class="st2" d="M1.6,57.9v-4.2l2.3-0.3l9.9-27.6h7.4l9.9,27.6l2.3,0.3v4.2H21.9v-4.2l2.2-0.4l-1.2-4H12l-1.2,4l2.2,0.4v4.2
			H1.6z M13.6,44.3h7.7l-3.4-10.4l-0.3-1h-0.1L17,34L13.6,44.3z"/>
		<path class="st2" d="M52.2,58.4c-3.1,0-5.8-0.6-8.2-1.9c-2.4-1.3-4.2-3.1-5.5-5.5c-1.3-2.4-2-5.2-2-8.5v-1.3
			c0-3.1,0.6-5.9,1.9-8.2c1.2-2.4,3-4.3,5.3-5.6c2.3-1.4,5-2,8.2-2c2.2,0,4.3,0.3,6.3,0.9c2,0.6,3.7,1.6,5.4,2.9v8h-5.2l-0.7-4.8
			c-0.5-0.3-1-0.6-1.6-0.9c-0.6-0.2-1.2-0.4-1.8-0.6c-0.6-0.1-1.3-0.2-2.1-0.2c-1.7,0-3.2,0.4-4.5,1.3c-1.3,0.8-2.2,2-2.9,3.6
			c-0.7,1.6-1,3.4-1,5.6v1.3c0,2.1,0.4,4,1.1,5.6c0.7,1.6,1.7,2.8,3,3.7c1.3,0.9,2.8,1.3,4.6,1.3c0.9,0,1.8-0.1,2.7-0.3
			c0.9-0.2,1.8-0.5,2.6-0.8l0.7-4.5h5.2v7.9c-1.3,0.9-2.9,1.6-4.8,2.2C56.8,58.1,54.6,58.4,52.2,58.4z"/>
		<path class="st2" d="M68.3,57.9v-4.2l2.3-0.3l9.9-27.6H88l9.9,27.6l2.3,0.3v4.2H88.7v-4.2l2.2-0.4l-1.2-4H78.8l-1.2,4l2.2,0.4v4.2
			H68.3z M80.4,44.3h7.7l-3.4-10.4l-0.3-1h-0.1L83.8,34L80.4,44.3z"/>
		<path class="st2" d="M104.7,57.9v-4.2l3.4-0.8V30.8l-3.4-0.8v-4.2h3.4h11.1c2.9,0,5.4,0.7,7.6,2c2.2,1.3,3.9,3.2,5.2,5.6
			c1.3,2.4,1.9,5.1,1.9,8.2v0.6c0,3.1-0.6,5.8-1.9,8.2c-1.2,2.4-3,4.2-5.2,5.6s-4.8,2-7.6,2H104.7z M115.2,52.6h3.8
			c1.7,0,3.2-0.4,4.3-1.3c1.2-0.9,2.1-2.1,2.7-3.7c0.6-1.6,0.9-3.4,0.9-5.4v-0.6c0-2.1-0.3-3.9-0.9-5.4c-0.6-1.6-1.5-2.8-2.7-3.7
			c-1.2-0.9-2.6-1.3-4.3-1.3h-3.8V52.6z"/>
		<path class="st2" d="M139.3,57.9v-4.2l3.4-0.7V30.7l-3.4-0.7v-4.2h25.3v9h-5.4l-0.2-3.5h-9.2v7.4h10.6v5.5h-10.6v8.5h9.7l0.2-3.7
			h5.3v9.1H139.3z"/>
		<path class="st2" d="M170.8,57.9v-4.2l3.4-0.7V30.7l-3.4-0.7v-4.2h3.4h10.6l8.3,21.8h0.1l8.1-21.8h13.9V30l-3.4,0.7v22.4l3.4,0.7
			v4.2h-13.8v-4.2l3.5-0.7v-5.2l0.1-14.8l-0.1,0l-9.4,24.7h-5.5l-9.5-24.4l-0.2,0l0.5,13.7v6.1l3.8,0.7v4.2H170.8z"/>
		<path class="st2" d="M228.8,57.9v-4.2l3.4-0.7v-6l-9.4-16.7l-3.2-0.5v-4.2h13.4V30l-2.3,0.4l4.9,9.6l0.5,1.1h0.2l0.5-1l5.6-9.6
			l-3.4-0.4v-4.2h13.1V30l-3.3,0.5l-9.3,16.1v6.5l3.4,0.7v4.2H228.8z"/>
	</g>
</g>
</svg>
