<?xml version="1.0" encoding="utf-8"?>
<!-- Generator: Adobe Illustrator 28.0.0, SVG Export Plug-In . SVG Version: 6.00 Build 0)  -->
<svg version="1.1" id="Layer_1" xmlns="http://www.w3.org/2000/svg" xmlns:xlink="http://www.w3.org/1999/xlink" x="0px" y="0px"
	 viewBox="0 0 315.4 314.9" style="enable-background:new 0 0 315.4 314.9;" xml:space="preserve">
<style type="text/css">
	.st0{fill:#E0DFE0;}
	.st1{fill:#B8BBC2;}
	.st2{fill:#0A1739;}
	.st3{fill:#801619;}
	.st4{fill:#BDB5AB;}
	.st5{clip-path:url(#SVGID_00000039127138841115215860000000481647530484786842_);}
</style>
<g>
	<g>
		<g>
			<path class="st2" d="M28.3,132.4L5,135.7l-0.7,2l-2.6-0.6l2-8.9l2.6,0.6L6,131.1l16-1.8l1.7-0.1l0-0.1l-1.5-0.8l-13.8-8.4
				l-0.9,2.5L5,121.7l1.9-8.6l2.6,0.6l-0.2,2.2l19.9,12.5L28.3,132.4z"/>
			<path class="st2" d="M30.7,120.8l-2.5-1l0.4-1.8l-17.4-16l1.6-3.9l23.6,0.7l0.9-1.6l2.5,1l-3,7.4l-2.5-1l0.4-1.8l-4.1-0.2
				l-3.5,8.6l3.1,2.7l1-1.6l2.5,1L30.7,120.8z M24.4,109l2.7-6.6l-9.8-0.5l-0.7,0l0,0.1l0.6,0.5L24.4,109z"/>
			<path class="st2" d="M53.1,79c-1.5,2-3.2,3.3-5,4.1c-1.9,0.8-3.9,1-5.9,0.6c-2.1-0.4-4.1-1.3-6.1-2.8l-0.5-0.4
				c-2-1.5-3.4-3.1-4.4-5c-1-1.9-1.4-3.8-1.2-5.8c0.2-2,0.9-4,2.4-5.9c1-1.3,2.1-2.4,3.4-3.3c1.2-0.8,2.5-1.4,3.9-1.7l4.6,3.5
				l-2,2.6l-3.4-2c-0.4,0.1-0.9,0.3-1.3,0.6c-0.4,0.3-0.9,0.6-1.3,0.9c-0.4,0.4-0.8,0.8-1.2,1.3c-0.9,1.2-1.4,2.5-1.4,3.8
				c0,1.3,0.3,2.6,1.1,3.9c0.8,1.3,1.9,2.5,3.3,3.5l0.5,0.4c1.5,1.1,3,1.9,4.5,2.2c1.5,0.3,2.8,0.3,4.1-0.2c1.3-0.5,2.4-1.3,3.3-2.6
				c0.5-0.6,0.8-1.3,1.1-2c0.3-0.7,0.5-1.4,0.6-2l-2.5-2.5l2-2.6l4.6,3.4c-0.1,1.1-0.4,2.4-0.9,3.7C54.8,76.4,54.1,77.7,53.1,79z"/>
			<path class="st2" d="M59.6,70.2l-1.8-1.9l1.6-2.3l-13-13.5L44.1,54l-1.8-1.9l2-1.9l3.1-3l2.1-2l1.8,1.9l-1.8,2.4l12.8,13.4
				l5.6-5.4l-2.4-2.9l2.4-2.3l4.9,5.1L59.6,70.2z"/>
			<path class="st2" d="M74.4,55.9l-1.5-2.2l1.4-1.2l-5.4-23l3.5-2.3l19.1,13.9l1.7-0.8l1.5,2.2L88,46.8l-1.5-2.2l1.3-1.3l-3.3-2.5
				l-7.8,5.2l1.1,4l1.7-0.7l1.5,2.2L74.4,55.9z M75.9,42.5l5.9-3.9l-7.9-5.9l-0.6-0.4l-0.1,0.1l0.2,0.7L75.9,42.5z"/>
			<path class="st2" d="M96.9,41.6l-1.1-2.4l2.3-1.6l-8-16.9l-2.7,0.7L86.2,19l8.8-4.2l1.1,2.4L94,18.9l8,16.9l2.7-0.7l1.1,2.4
				L96.9,41.6z"/>
			<path class="st2" d="M107.6,35.7l-0.7-2.6l2.5-1.2l-4.9-18.1l-2.8,0.2l-0.7-2.6l2.6-0.7l6-1.6l11.8,15.6l0.1,0l2.2-19.3l8.7-2.3
				l0.7,2.6l-2.5,1.2l4.9,18.1l2.8-0.2l0.7,2.6l-9.5,2.5l-0.7-2.6l2.6-1.2l-1.5-5.6l-2.8-10.6l-0.1,0l-2.4,20.8l-3,0.8l-12.7-16.6
				l-0.1,0l3,10.1l1.6,5.9l3-0.3l0.7,2.6L107.6,35.7z"/>
			<path class="st2" d="M150.7,27.5c-1.7,0.1-3.3,0-4.8-0.4c-1.5-0.3-3-1-4.4-1.9l-0.3-5.8l3.3-0.2l0.8,3.7c0.6,0.4,1.4,0.7,2.3,0.9
				c0.9,0.2,1.9,0.3,2.9,0.2c1-0.1,1.9-0.2,2.5-0.6c0.7-0.3,1.2-0.8,1.5-1.3c0.3-0.5,0.5-1.2,0.4-1.9c0-0.7-0.2-1.2-0.6-1.7
				c-0.3-0.5-0.9-0.9-1.7-1.3c-0.8-0.4-1.8-0.7-3.1-1c-1.9-0.4-3.5-0.9-4.8-1.5c-1.3-0.6-2.3-1.4-3-2.3c-0.7-0.9-1.1-2-1.1-3.3
				c-0.1-1.3,0.2-2.5,0.9-3.6c0.7-1.1,1.6-1.9,2.9-2.6c1.3-0.7,2.7-1,4.4-1.2c1.9-0.1,3.5,0,5,0.5c1.5,0.4,2.7,1,3.7,1.8l0.3,5.4
				l-3.3,0.2l-0.8-3.5c-0.5-0.3-1.1-0.6-1.9-0.8c-0.8-0.2-1.7-0.3-2.7-0.2c-0.9,0-1.6,0.2-2.3,0.6C146.5,6,146,6.5,145.6,7
				c-0.3,0.5-0.5,1.2-0.5,1.9c0,0.6,0.2,1.2,0.6,1.6c0.4,0.5,0.9,0.8,1.7,1.2c0.8,0.3,1.9,0.7,3.2,1c2.8,0.6,4.9,1.5,6.3,2.7
				c1.5,1.2,2.3,2.8,2.4,4.7c0.1,1.4-0.2,2.6-0.9,3.7c-0.7,1.1-1.7,1.9-3,2.6C154.1,27,152.5,27.4,150.7,27.5z"/>
			<path class="st2" d="M171.7,27.1l0.5-2.6l1.8,0.1l12.5-20.1l4.1,0.8l3.7,23.3l1.7,0.6l-0.5,2.6l-7.8-1.6l0.5-2.6l1.8,0l-0.5-4.1
				l-9.1-1.8l-2.1,3.6l1.7,0.7l-0.5,2.6L171.7,27.1z M182.2,18.8l6.9,1.4l-1.4-9.7l-0.1-0.7l-0.1,0l-0.4,0.6L182.2,18.8z"/>
			<path class="st2" d="M207.2,36.9c-2.3-0.9-4.1-2.2-5.3-3.8c-1.2-1.6-2-3.5-2.1-5.6c-0.2-2.1,0.2-4.3,1.1-6.6l0.2-0.6
				c0.9-2.3,2.1-4.1,3.6-5.5c1.5-1.4,3.3-2.3,5.3-2.7s4.1-0.1,6.3,0.7c1.5,0.6,2.9,1.4,4,2.4c1.1,1,2,2.1,2.7,3.3l-2.1,5.4l-3.1-1.2
				l1-3.8c-0.3-0.4-0.6-0.8-0.9-1.1c-0.4-0.3-0.8-0.7-1.2-1c-0.5-0.3-1-0.6-1.6-0.8c-1.4-0.5-2.7-0.7-4-0.4c-1.3,0.3-2.4,1-3.4,2.1
				c-1,1.1-1.9,2.5-2.5,4.2l-0.2,0.6c-0.7,1.8-1,3.4-1,4.9c0.1,1.5,0.5,2.8,1.2,3.9c0.8,1.1,1.9,1.9,3.3,2.5
				c0.7,0.3,1.4,0.5,2.2,0.6c0.8,0.1,1.4,0.1,2.1,0.1l1.7-3.1l3,1.2l-2.1,5.3c-1.1,0.2-2.4,0.3-3.9,0.1
				C210.1,37.9,208.7,37.5,207.2,36.9z"/>
			<path class="st2" d="M217.1,40.4l1.4-2.2l1.7,0.7l18.7-14.4l3.6,2.2l-4.8,23.1l1.4,1.2l-1.4,2.2l-6.8-4.2l1.4-2.2l1.7,0.7l1-4
				l-7.9-4.9l-3.2,2.6l1.4,1.2l-1.4,2.2L217.1,40.4z M229.8,36.3l6,3.7l2.1-9.6l0.2-0.7l-0.1-0.1l-0.6,0.5L229.8,36.3z"/>
			<path class="st2" d="M239.2,54.5l1.8-1.9l2.4,1.5L256,40.3l-1.7-2.3l1.8-2l2,1.9l5.7,5.2c1.6,1.5,2.7,3.2,3.2,5.1
				c0.5,1.9,0.5,3.9-0.1,5.9c-0.6,2-1.6,3.9-3.3,5.6l-0.3,0.4c-1.6,1.7-3.4,3-5.3,3.7c-1.9,0.7-3.9,0.9-5.8,0.6
				c-1.9-0.4-3.7-1.3-5.4-2.8L239.2,54.5z M246.6,56.9l2.4,2.2c1.1,1,2.3,1.6,3.6,1.7c1.3,0.1,2.6-0.1,3.9-0.7
				c1.3-0.6,2.5-1.5,3.7-2.8l0.3-0.4c1.2-1.3,2-2.6,2.5-3.9c0.5-1.4,0.6-2.7,0.4-3.9c-0.2-1.3-0.9-2.4-2-3.4l-2.4-2.2L246.6,56.9z"
				/>
			<path class="st2" d="M256.6,71l2.1-1.6l2.1,1.9l14.9-11.3l-1.2-2.5l2.1-1.6l11.6,15.2l-5.1,3.9l-2-2.7l2.3-2.1l-5.1-6.6l-5.6,4.3
				l5.3,7l-2.7,2l-5.3-7l-6.3,4.8l5.3,7l2.7-1.7l2,2.7l-5.2,3.9L256.6,71z"/>
			<path class="st2" d="M270.4,88.3l2.4-1.1l1.6,2.2l16.9-7.9l-0.7-2.7l2.4-1.1l1.2,2.5l2.6,5.6l-13.3,14.3l0,0.1l19.4-1.2l3.8,8.2
				l-2.4,1.1l-1.6-2.3l-16.9,7.9l0.7,2.7l-2.4,1.1l-4.2-8.9l2.4-1.1l1.7,2.4l5.3-2.5l9.9-4.6l0-0.1l-20.9,1.2l-1.3-2.8l14.1-15.4
				l-0.1-0.1l-9.5,4.7l-5.5,2.6L277,96l-2.4,1.1L270.4,88.3z"/>
			<path class="st2" d="M285.7,126l2.6-0.6l1.1,2.5l5.5-1.2l11.3-10.2l-0.1-2.3l2.6-0.6l2,9.2l-2.6,0.6l-0.8-2.3l-7.6,6.4l-0.7,0.5
				l0,0.1l0.8,0.2l9.7,3l-0.3-2.8l2.6-0.6l2,9l-2.6,0.6l-0.8-2.2l-14.2-4.5l-5.8,1.3l0.1,2.8l-2.6,0.6L285.7,126z"/>
		</g>
		<g>
			<path class="st3" d="M6.9,190.7l17.9-4.9l0.9,3.1l-8.8,9.4l-0.5-1.8l12.4,3.7l0.8,3l-17.9,4.9l-0.9-3.3l6.7-1.8
				c1.5-0.4,2.9-0.8,4.2-1c1.2-0.3,2.5-0.5,3.8-0.6l-1,0.7l-10.1-3.2l-0.5-1.7l7-7.7l1.3,0c-1.1,0.5-2.2,0.9-3.4,1.3
				c-1.2,0.4-2.6,0.8-4.2,1.3L7.7,194L6.9,190.7z"/>
			<path class="st3" d="M15.7,219l19.8-1.7l1.4,2.9l-13.5,14.6l-1.6-3.2l7.7-8.2c0.2-0.2,0.4-0.4,0.7-0.8c0.3-0.3,0.7-0.7,1.1-1.1
				c0.4-0.4,0.8-0.8,1.1-1.1c0.4-0.3,0.6-0.6,0.8-0.7l0.3,0.6c-0.4,0.1-0.8,0.1-1.2,0.2c-0.5,0.1-0.9,0.1-1.4,0.2
				c-0.5,0.1-1,0.1-1.4,0.2c-0.5,0.1-0.9,0.1-1.2,0.2l-11.1,1.1L15.7,219z M20.9,220.1l3.2-0.3l3.7,7.6l-2.1,2.5L20.9,220.1z"/>
			<path class="st3" d="M32.8,249.3c-0.6-0.9-1.1-1.8-1.4-2.6c-0.3-0.9-0.4-1.8-0.4-2.7c0-0.9,0.2-1.8,0.5-2.7l3.4,0.3
				c-0.5,1.4-0.6,2.6-0.5,3.5c0.1,0.9,0.5,1.8,1.1,2.7c0.4,0.5,0.7,0.9,1.2,1.2c0.4,0.3,0.9,0.5,1.3,0.5c0.4,0,0.8-0.1,1.2-0.3
				c0.2-0.2,0.4-0.4,0.6-0.6c0.1-0.2,0.2-0.5,0.3-0.8c0-0.3,0-0.6,0-1c-0.1-0.4-0.2-0.8-0.3-1.2c-0.1-0.4-0.3-0.9-0.5-1.3
				c-0.4-0.9-0.7-1.7-0.9-2.5c-0.2-0.8-0.2-1.5-0.1-2.2c0.1-0.7,0.3-1.3,0.7-1.8c0.4-0.5,0.9-1,1.5-1.5c0.6-0.5,1.3-0.7,2-0.8
				c0.7-0.1,1.5-0.1,2.2,0.2c0.7,0.2,1.4,0.6,2.1,1c0.7,0.5,1.3,1.1,1.8,1.8c0.6,0.8,1.1,1.7,1.3,2.5c0.3,0.8,0.4,1.6,0.4,2.4
				c0,0.8-0.2,1.6-0.5,2.3l-3.2-0.5c0.2-0.6,0.4-1.2,0.4-1.8c0-0.6,0-1.1-0.2-1.6c-0.1-0.5-0.4-1-0.7-1.5c-0.4-0.5-0.8-0.9-1.2-1.2
				c-0.4-0.3-0.8-0.4-1.3-0.4c-0.4,0-0.8,0.1-1.2,0.4c-0.3,0.2-0.5,0.5-0.6,0.7s-0.2,0.6-0.2,1c0,0.4,0.1,0.8,0.2,1.2
				c0.1,0.5,0.3,1,0.6,1.5c0.4,0.9,0.7,1.8,0.9,2.6c0.2,0.8,0.3,1.6,0.2,2.3c0,0.7-0.2,1.3-0.5,1.9c-0.3,0.6-0.7,1.1-1.3,1.5
				c-1,0.7-2,1.1-3,1.1c-1,0-2.1-0.2-3-0.8C34.5,251.3,33.6,250.4,32.8,249.3z"/>
			<path class="st3" d="M47.6,266.5l10.9-10.9l-3.7-3.7l2.2-2.2l10,10l-2.2,2.2l-3.9-3.9L50.1,269L47.6,266.5z"/>
			<path class="st3" d="M63,280.4l10.9-15l9.8,7.1l-1.8,2.5l-7.1-5.1l-7.2,9.9l7.2,5.2l-1.8,2.5L63,280.4z M68.9,274.9l1.8-2.5
				l7.4,5.4l-1.8,2.5L68.9,274.9z"/>
			<path class="st3" d="M83.8,294.2l8.2-16.6l7.2,3.6c1,0.5,1.8,1.2,2.4,2c0.6,0.9,0.9,1.8,1,2.9c0.1,1-0.1,2.1-0.6,3.1
				c-0.5,0.9-1.1,1.7-2,2.3c-0.9,0.6-1.8,0.9-2.9,0.9c-1,0.1-2.1-0.2-3.1-0.6l-4.2-2.1l-3,6.1L83.8,294.2z M91.1,286.9l4.2,2.1
				c0.5,0.2,0.9,0.3,1.4,0.3s0.9-0.2,1.2-0.5c0.4-0.3,0.7-0.7,0.9-1.1c0.3-0.5,0.4-1,0.3-1.5c0-0.5-0.2-1-0.6-1.4
				c-0.3-0.4-0.8-0.8-1.3-1.1l-3.7-1.8L91.1,286.9z M93.4,298.9l-0.5-9.6l3.5,1l0.7,10.4L93.4,298.9z"/>
			<path class="st3" d="M128.3,310.1l1.7-9.1l-0.1,1.3l-5.5-11.8l4,0.7l4.1,9.1l-1.2-0.3l6.5-7.1l3.8,0.7l-9,9.4l0.7-1.7l-1.7,9.3
				L128.3,310.1z"/>
			<path class="st3" d="M157.4,313.1c-1.3,0-2.5-0.3-3.7-0.8c-1.1-0.5-2.1-1.2-2.9-2s-1.5-1.9-1.9-3.1c-0.4-1.2-0.6-2.4-0.6-3.8
				c0-1.4,0.3-2.6,0.7-3.8c0.5-1.2,1.1-2.2,2-3c0.9-0.8,1.8-1.5,3-1.9c1.1-0.5,2.4-0.7,3.7-0.7c1.3,0,2.6,0.3,3.7,0.8
				c1.1,0.5,2.1,1.2,2.9,2.1c0.8,0.9,1.4,1.9,1.9,3.1c0.4,1.2,0.6,2.4,0.6,3.8c0,1.4-0.3,2.6-0.7,3.8c-0.5,1.2-1.1,2.2-2,3
				c-0.8,0.9-1.8,1.5-3,2C159.9,312.9,158.7,313.2,157.4,313.1z M157.4,309.9c0.8,0,1.6-0.1,2.3-0.4c0.7-0.3,1.3-0.7,1.8-1.3
				c0.5-0.6,0.9-1.2,1.2-2c0.3-0.8,0.5-1.6,0.5-2.5c0-0.9-0.1-1.7-0.4-2.5c-0.3-0.8-0.7-1.4-1.2-2c-0.5-0.6-1.1-1-1.8-1.4
				c-0.7-0.3-1.5-0.5-2.3-0.5c-0.8,0-1.6,0.1-2.3,0.4c-0.7,0.3-1.3,0.7-1.8,1.3c-0.5,0.6-0.9,1.2-1.2,2c-0.3,0.8-0.4,1.6-0.5,2.5
				c0,0.9,0.1,1.7,0.4,2.5c0.3,0.8,0.7,1.4,1.2,2c0.5,0.6,1.1,1,1.8,1.3C155.8,309.7,156.6,309.8,157.4,309.9z"/>
			<path class="st3" d="M186.4,310.4c-1.4,0.3-2.8,0.2-4-0.2c-1.2-0.4-2.3-1.1-3.1-2c-0.9-1-1.4-2.1-1.7-3.5l-2.1-11.2l3.4-0.6
				l2.1,11c0.2,0.8,0.5,1.5,1,2.1c0.5,0.6,1.1,1,1.8,1.2c0.7,0.3,1.4,0.3,2.1,0.2c0.8-0.2,1.5-0.5,2.1-1c0.6-0.5,1-1.1,1.2-1.8
				c0.3-0.7,0.3-1.5,0.1-2.3l-2.1-11l3.3-0.6l2.1,11.2c0.3,1.4,0.2,2.7-0.3,3.9c-0.4,1.2-1.2,2.2-2.2,3.1
				C189,309.6,187.8,310.1,186.4,310.4z"/>
			<path class="st3" d="M206.7,305.1l-6.7-17.3l7.5-2.9c1-0.4,2.1-0.5,3.1-0.4c1,0.2,2,0.6,2.8,1.2c0.8,0.6,1.4,1.5,1.8,2.5
				c0.4,1,0.5,2,0.3,3c-0.2,1-0.6,1.9-1.3,2.8s-1.5,1.4-2.6,1.8l-4.4,1.7l2.4,6.3L206.7,305.1z M206.3,294.7l4.4-1.7
				c0.5-0.2,0.8-0.5,1.1-0.8c0.3-0.4,0.4-0.8,0.5-1.2c0-0.5,0-0.9-0.2-1.4c-0.2-0.5-0.5-1-0.9-1.3c-0.4-0.3-0.9-0.5-1.4-0.5
				c-0.5-0.1-1.1,0-1.7,0.2l-3.8,1.5L206.3,294.7z M216.7,301.2l-7.4-6.1l3.1-1.9l8.1,6.6L216.7,301.2z"/>
			<path class="st3" d="M251.1,281.6c-1.1,0.8-2.2,1.4-3.4,1.7c-1.2,0.3-2.3,0.4-3.5,0.2c-1.2-0.2-2.3-0.6-3.3-1.3
				c-1.1-0.7-2-1.6-2.8-2.7c-0.8-1.1-1.4-2.2-1.7-3.4c-0.3-1.2-0.4-2.4-0.2-3.6c0.2-1.2,0.5-2.3,1.2-3.4c0.6-1.1,1.5-2,2.5-2.8
				c0.7-0.5,1.5-1,2.3-1.3c0.8-0.3,1.7-0.5,2.5-0.5c0.8,0,1.6,0,2.4,0.2l-0.3,3.2c-0.7-0.1-1.3-0.1-1.9-0.1c-0.6,0-1.1,0.1-1.7,0.3
				c-0.5,0.2-1,0.4-1.4,0.8c-0.6,0.5-1.2,1.1-1.6,1.7c-0.4,0.7-0.6,1.4-0.7,2.1s0,1.5,0.2,2.3c0.2,0.8,0.6,1.5,1.1,2.3
				c0.6,0.7,1.2,1.3,1.9,1.8c0.7,0.4,1.4,0.7,2.2,0.8c0.8,0.1,1.5,0.1,2.3-0.2c0.8-0.2,1.5-0.6,2.2-1.1c0.5-0.3,0.9-0.8,1.2-1.2
				s0.6-0.9,0.8-1.5c0.2-0.5,0.3-1,0.4-1.6l3,1.2c-0.1,0.6-0.2,1.3-0.6,2.1s-0.8,1.5-1.3,2.2C252.4,280.5,251.8,281.1,251.1,281.6z"
				/>
			<path class="st3" d="M265.1,269.3l-13.4-12.8l2.4-2.5l11.1,10.6l5.9-6.2l2.3,2.2L265.1,269.3z"/>
			<path class="st3" d="M280,252.8l-11.2-16.4l1.8-2.7l19.3,4.5l-2,3l-10.9-2.6c-0.2,0-0.6-0.1-1-0.3c-0.5-0.1-1-0.3-1.5-0.4
				c-0.5-0.2-1-0.3-1.5-0.5c-0.5-0.1-0.8-0.3-1-0.3l0.3-0.6c0.2,0.3,0.5,0.6,0.8,1c0.3,0.4,0.6,0.7,0.9,1.1c0.3,0.4,0.6,0.8,0.9,1.2
				c0.3,0.4,0.5,0.7,0.8,1l6.4,9.2L280,252.8z M278.4,247.7l-1.8-2.7l4.7-7l3.2,0.6L278.4,247.7z"/>
			<path class="st3" d="M295,228.7l-2.8-1.3l1.3-2.8l-11.3-5.3l-1.3,2.8l-2.8-1.3l4.1-8.6l2.8,1.3l-1.3,2.8l11.3,5.3l1.3-2.8
				l2.8,1.3L295,228.7z"/>
			<path class="st3" d="M303.8,208.1l-17.9-4.9l0.9-3.1l12.4-3.6l-0.5,1.8l-8.8-9.5l0.8-3l17.9,4.9l-0.9,3.3l-6.7-1.8
				c-1.5-0.4-2.9-0.8-4.1-1.2s-2.4-0.9-3.5-1.4l1.2-0.1l7,7.9l-0.5,1.7l-9.9,3.1l-1.1-0.7c1.2,0.1,2.4,0.3,3.6,0.6s2.7,0.6,4.3,1
				l6.7,1.8L303.8,208.1z"/>
		</g>
		<g>
			<g>
				<path class="st2" d="M138.2,248.8c-0.1-0.4-0.1-0.7-0.1-1.1c1.5-0.7,2.2-1.1,3.6-1.9c0.2-0.1,0.4-0.2,0.6-0.4
					c0.2-0.1,0.4-0.3,0.6-0.5c0.2-0.2,0.4-0.3,0.5-0.5c0.1-0.2,0.2-0.3,0.3-0.5c0.1-0.2,0-0.4,0-0.6c-0.1-0.2-0.2-0.3-0.3-0.5
					c-0.2-0.1-0.4-0.2-0.6-0.3c-0.2-0.1-0.5-0.1-0.7,0c-0.2,0.1-0.5,0.2-0.7,0.4c-0.2,0.2-0.5,0.4-0.7,0.7c-0.4-0.4-0.6-0.6-1-1.1
					c0.3-0.4,0.6-0.7,1-1c0.4-0.2,0.8-0.4,1.3-0.5c0.5-0.1,0.9,0,1.4,0.1c0.5,0.1,0.9,0.3,1.2,0.6c0.3,0.3,0.6,0.6,0.7,1
					c0.2,0.4,0.2,0.8,0.1,1.3c0,0.2-0.1,0.4-0.2,0.5c-0.1,0.2-0.2,0.4-0.3,0.5c-0.1,0.2-0.3,0.4-0.5,0.6c-0.2,0.2-0.4,0.4-0.7,0.6
					c-0.3,0.2-0.6,0.4-0.9,0.6c-1.1,0.6-1.6,0.9-2.7,1.5c0-0.2-0.1-0.4-0.1-0.6c1.9,0.5,2.8,0.8,4.8,1.2c-0.1,0.6-0.2,0.9-0.3,1.4
					C142,249.9,140.7,249.6,138.2,248.8z"/>
				<path class="st2" d="M151.9,251.6c-0.8-0.1-1.5-0.3-2-0.7c-0.5-0.4-0.9-1-1.1-1.7c-0.2-0.7-0.2-1.5-0.1-2.4
					c0.1-0.9,0.4-1.7,0.8-2.3s0.8-1.1,1.4-1.4c0.5-0.3,1.2-0.4,1.9-0.3c0.7,0.1,1.3,0.3,1.8,0.7c0.5,0.4,0.9,0.9,1.1,1.6
					c0.3,0.7,0.4,1.5,0.4,2.4c0,0.9-0.2,1.7-0.5,2.3c-0.3,0.6-0.8,1.1-1.4,1.5C153.4,251.6,152.7,251.7,151.9,251.6z M152,250.2
					c0.7,0.1,1.2-0.2,1.6-0.7c0.4-0.5,0.6-1.2,0.7-2.2c0-1-0.1-1.7-0.4-2.3c-0.3-0.5-0.7-0.8-1.3-0.9c-0.6-0.1-1.1,0.2-1.5,0.7
					c-0.4,0.5-0.6,1.2-0.8,2.2c-0.1,1,0,1.7,0.3,2.3C150.8,249.9,151.3,250.2,152,250.2z"/>
				<path class="st2" d="M160.2,251.7c-0.2-0.4-0.3-0.6-0.5-1c1.1-1.2,1.7-1.8,2.7-3.1c0.1-0.2,0.3-0.3,0.5-0.6s0.3-0.4,0.4-0.6
					c0.1-0.2,0.2-0.4,0.3-0.7c0.1-0.2,0.1-0.4,0.1-0.6c0-0.2-0.1-0.4-0.2-0.6c-0.1-0.2-0.3-0.3-0.5-0.3c-0.2-0.1-0.4-0.1-0.7-0.1
					c-0.2,0-0.4,0.1-0.7,0.2c-0.2,0.1-0.4,0.3-0.6,0.6c-0.2,0.2-0.3,0.5-0.4,0.9c-0.5-0.3-0.8-0.4-1.3-0.6c0.1-0.5,0.4-0.9,0.6-1.3
					c0.3-0.4,0.6-0.6,1-0.9c0.4-0.2,0.8-0.3,1.3-0.4c0.5,0,0.9,0,1.4,0.2c0.4,0.2,0.8,0.4,1,0.7c0.3,0.3,0.5,0.7,0.5,1.2
					c0,0.2,0,0.4,0,0.6c0,0.2-0.1,0.4-0.1,0.6c-0.1,0.2-0.2,0.5-0.3,0.7c-0.1,0.2-0.3,0.5-0.5,0.8c-0.2,0.3-0.4,0.6-0.6,0.9
					c-0.8,0.9-1.2,1.4-2,2.3c-0.1-0.2-0.2-0.3-0.3-0.5c1.9-0.1,2.9-0.2,4.8-0.5c0.1,0.6,0.1,0.9,0.2,1.5
					C164,251.4,162.7,251.5,160.2,251.7z"/>
				<path class="st2" d="M170.6,250.3c-0.3-0.4-0.4-0.5-0.7-0.9c0.9-1.4,1.4-2.1,2.2-3.5c0.1-0.2,0.2-0.4,0.4-0.6
					c0.1-0.2,0.2-0.5,0.3-0.7c0.1-0.2,0.2-0.5,0.2-0.7c0-0.2,0-0.4,0-0.6c-0.1-0.2-0.2-0.4-0.3-0.5c-0.1-0.1-0.3-0.2-0.5-0.3
					c-0.2,0-0.4,0-0.7,0c-0.2,0.1-0.4,0.2-0.6,0.4c-0.2,0.2-0.3,0.4-0.5,0.7c-0.1,0.3-0.2,0.6-0.3,0.9c-0.6-0.2-0.8-0.2-1.4-0.4
					c0.1-0.5,0.2-0.9,0.4-1.4c0.2-0.4,0.5-0.7,0.9-1c0.4-0.3,0.8-0.5,1.2-0.6c0.5-0.1,0.9-0.2,1.4-0.1c0.4,0.1,0.8,0.3,1.2,0.5
					s0.6,0.6,0.7,1.1c0.1,0.2,0.1,0.4,0.1,0.6c0,0.2,0,0.4,0,0.6c0,0.2-0.1,0.5-0.2,0.7c-0.1,0.3-0.2,0.5-0.3,0.8
					c-0.1,0.3-0.3,0.6-0.5,0.9c-0.6,1.1-0.9,1.6-1.6,2.6c-0.2-0.2-0.2-0.3-0.4-0.5c1.9-0.5,2.9-0.7,4.7-1.3c0.2,0.6,0.3,0.8,0.5,1.4
					C174.3,249.4,173.1,249.8,170.6,250.3z"/>
			</g>
		</g>
	</g>
	<g>
		<g>
			<path class="st2" d="M212.2,153.7c-0.1-1.9-0.3-3.9-0.6-5.8c-0.4-2.2-2-4.1-4.1-4.8l-5.4-1.7c0,0,5.1,0.4,7.5,0.5
				c0.5,0,0.8-0.4,0.7-0.9c-0.6-1.7-1.2-5.2-1.8-6.6c-1.7-5.4-4-12.5-5.7-18c-8.7-0.7-17.3-2.5-25.6-5.3c2.2,7.5,5.9,18.4,1.4,28.5
				c-0.3,0.7-1.9,3.1-3.9,4.3c-1.8,1.1-4.2,0.2-4.9-1.8c-1-2.6-0.7-6.1-1.4-8.4c-1.1-8-7.8-8.8-4.4-11.2c-7.5-0.7-26.4-1.6-22.8,8.7
				c6.3-6.4,10,6.3,6,10.9c-1.2,1.7-3.1,2.5-5,2.3c-1.4-0.1-2.7-0.8-3.7-1.7c-7.5-6.9-4.9-21.6-1.2-31.4c-8.1,2.8-16.5,4.5-25,5.2
				c-1.9,5.4-3.9,12.5-5.7,18c-3.1,9.2-2.6,7.3,6,6.9c-1.5,0.9-8.9,1.8-9.1,4.1c-0.6,4.1-1.9,10.7-0.7,14.6c0.3-0.1,15.7-5.9,16-6
				c-0.3,0.2-10.5,5.6-14.3,7.7c-0.9,0.5-1.4,1.4-1.2,2.4c0.8,5.2,3.9,11.6,6.7,15.8l0.5-0.4l10-8.7c-12.7,15.2-12.3,8.1,0.6,21.7
				c2-3.1,7.1-9.6,9.4-12.6c-0.5,1-6.1,11.2-7.6,14.1c-0.4,0.7,10.3,6.8,11.6,7.2c0.2,0.2,12.7-16.8,12.8-16.7l-8.4,19.2l-0.3,0.6
				c-0.4,0.9,17.2,7.7,19,8.3c2-0.5,18.8-7.1,19-8.3c-0.1-0.4-7.6-19.4-7.7-19.8c0.3,0.5,11.2,17,11.2,17c0,0.1,0.9-0.3,1.9-0.9
				c3.5-1.9,10.4-6.3,10.2-6.6l-0.3-0.5l-7.4-13.7c2.3,3,7.4,9.5,9.4,12.6c3.7-3.3,7.2-7,10.1-11.1c-2.2-2.2-7.4-8.1-9.5-10.6
				c0.2,0.2,10.3,8.9,10.5,9.1c3.1-4.7,5.4-10,6.5-15.5c0.2-1.2-0.3-2.3-1.4-2.9l-14-7.5l16,6C212.7,158.9,212.1,154.2,212.2,153.7z
				 M144.1,127.2c-0.1,0-0.2,0-0.3,0c3.1-2.5,10.8-2.8,16.6-2.5c5.4,6.6,5.6,8.1,6.9,16.7l0,0c0,0.1,0,1.7,0,1.9
				c-0.9-0.4-1.5-0.1-2.1,0.7c-0.2,0.1-0.8,1.1-1.2,0.8c-0.9-0.5-4.6-2.6-5.5-3c-1.2-0.1-6.2,2.7-7.4,3.1c-0.6,0.3-1.5-1.1-2-1.4
				C152.5,137.8,151.8,127.6,144.1,127.2z M163.4,169.7c0.8,2.9,1.7,6,2.9,10.3c-3.4-2.3-6-4.1-8.7-6c-2.8,1.8-5.5,3.6-9,5.9
				c1.1-3.9,2-7,2.9-10.1c-2.5-2-4.9-3.9-8.2-6.5h10.3c1.2-3.3,2.3-6.3,3.8-10.2c0.9,2.4,1.5,3.9,2,5.3c0.5,1.4,0.9,2.8,1.5,4.4
				c3.2,0.2,6.2,0.3,10.3,0.6C168.3,165.7,166.1,167.5,163.4,169.7z"/>
			<path class="st2" d="M152.4,128.8c0.1,0,0.1,0,0.2,0c0.8-0.1,1.2-0.8,1-1.6c-0.1-0.5-0.7-0.9-1.2-0.9h-0.1
				c-0.7,0-1.2,0.5-1.2,1.2c0,0.4,0.1,0.7,0.4,0.9C151.7,128.6,152.1,128.8,152.4,128.8z"/>
		</g>
		<path class="st2" d="M209.3,142.2L209.3,142.2C209.3,142.2,209.3,142.2,209.3,142.2C209.3,142.2,209.3,142.2,209.3,142.2z"/>
		<path class="st2" d="M226.6,172.4L226.6,172.4c0.2,1.5,1.7,2.6,3.2,2.2c14.8-3.5,15.3-16.1,15.1-20c-0.1-1.4-1.2-2.6-2.7-2.6
			c-0.2,0-0.4,0-0.6,0c-9.2,0-14.8,3.3-18.3,6.9c0.1-0.8,0.3-1.6,0.4-2.4c0.9-6.6,0.7-13.1-0.7-19.2c0.1-1,1.1-10.9,13.2-16.1
			c0.6-0.3,1.3,0,1.6,0.5c1.1,1.9,2.6,5.4,1.7,9.4c-1,4.4-4.5,8.5-10.5,12.1l0,0c0.8,1.3,2.5,1.7,3.8,0.9c5.3-3.6,8.4-7.8,9.4-12.3
			c1.3-5.9-1.4-10.7-2.7-12.5c-0.7-1-2-1.5-3.2-1c-9.3,3.6-13.2,9.5-14.9,13.8c-1.1-2.8-2.5-5.5-3.9-8.1c-1.9-3.5-3.6-6.8-4.6-10.4
			c-1.1-4.3-0.5-9.3,1.7-13.9c1.6-3.3,3.8-5.7,3.9-5.7c0.8-0.9,1.7-1.7,2.7-2.4c0.6-0.4,1.3-0.3,1.8,0.2c1.7,2.2,3.8,6.1,3.7,11.1
			c-0.2,7.2-4.6,11.7-6,12.9l0,0c1,1.2,2.9,1.2,3.9,0c2.1-2.5,4.8-6.8,4.9-12.8c0.2-6.8-3.1-11.7-5.1-14c-0.9-1-2.4-1.2-3.5-0.5
			c-1.6,1-3,2.2-4.3,3.5c-0.1,0.1-2.5,2.7-4.3,6.4c-2.5,5.2-3.2,10.8-1.9,15.8c1,3.9,3,7.5,4.8,11c1.6,3,3.3,6.1,4.3,9.3
			c2.1,6.6,2.6,14.1,1.6,21.6c-0.5,3.5-1.2,6.8-2.2,10.1c-0.2,0.7-0.3,1.2-0.4,1.2l0,0c-2.6,8.3-6.6,16-11.8,22.5c0,0,0,0,0,0l0,0
			c-4.5,5.6-9.9,10.3-15.9,13.9c-3.5,2.1-7.5,3.5-11.3,4.9c-2.3,0.8-4.7,1.7-6.9,2.7c-3.3,1.5-6.1,3-8.5,4.6
			c-0.8,0.6-2.3,1.7-3.9,3.1c-0.7,0.6-1.3,1.1-1.8,1.6c-0.4,0.3-0.9,0.3-1.3,0c-0.5-0.5-1.1-1-1.8-1.6c-1.6-1.4-3.1-2.5-3.9-3.1
			c-2.4-1.6-5.2-3.2-8.5-4.6c-2.3-1-4.6-1.9-6.9-2.7c-3.8-1.4-7.8-2.9-11.3-4.9c-6-3.5-11.4-8.3-15.9-13.9l0,0c0,0,0,0,0,0
			c-5.2-6.5-9.2-14.1-11.8-22.5l0,0c0,0-0.1-0.5-0.3-1.1c-1-3.3-1.7-6.7-2.2-10.2c-1.1-7.5-0.5-15,1.6-21.6c1-3.2,2.7-6.3,4.3-9.3
			c1.9-3.5,3.8-7.1,4.8-11c1.3-5,0.6-10.6-1.9-15.8c-1.8-3.7-4.2-6.3-4.3-6.4c-1.3-1.3-2.7-2.5-4.3-3.5c-1.1-0.7-2.6-0.5-3.5,0.5
			c-2,2.3-5.3,7.1-5.1,14c0.1,4.4,1.8,8.7,4.9,12.6c1,1.2,2.8,1.4,3.9,0.3l0,0c-3.9-4-6-8.4-6.1-12.9c-0.1-5.1,2-8.9,3.6-11.1
			c0.4-0.6,1.2-0.7,1.8-0.3c1,0.7,1.9,1.5,2.8,2.4c0,0,2.2,2.4,3.9,5.7c2.3,4.6,2.9,9.6,1.7,13.9c-1,3.6-2.7,6.9-4.6,10.4
			c-1.4,2.6-2.8,5.3-3.9,8.1c-1.7-4.3-5.6-10.3-14.9-13.8c-1.2-0.5-2.5,0-3.2,1c-1.2,1.8-4,6.7-2.7,12.5c1,4.6,4.2,8.7,9.4,12.3
			c1.3,0.9,3,0.5,3.8-0.9h0c-6-3.6-9.5-7.6-10.5-12.1c-0.9-4,0.5-7.5,1.6-9.4c0.3-0.6,1-0.8,1.6-0.6c6,2.6,9.3,6.2,11.1,9.4
			c1.7,3,2.1,6.4,1.6,9.8c-0.8,5.2-0.9,10.6-0.1,16.1c0.1,0.8,0.3,1.6,0.4,2.4c-3.5-3.7-9.3-7.1-18.8-6.9c-1.4,0-2.6,1.2-2.7,2.6
			c-0.2,4,0.4,16.5,15.1,20c1.5,0.4,3-0.7,3.2-2.2l0,0c-13.5-1.9-15.5-11.2-15.7-16.3c0-0.7,0.6-1.3,1.3-1.3
			c9.6,0.2,14.6,4.4,17.2,8c1.1,1.6,1.9,3.3,2.4,5.1c2,6.4,4.7,12.5,8.2,17.9c-5.7-2.8-14.2-5-21.3,1.8c-1,1-1.1,2.5-0.3,3.6
			c2.1,2.8,8.6,10.4,17.2,10.4c1.3,0,2.7-0.2,4.1-0.6c1.6-0.5,2.3-2.2,1.6-3.6l0,0c-9.2,4.6-16.9-3.2-20-6.9
			c-0.4-0.5-0.3-1.3,0.2-1.7c5.2-4.2,11.2-3.2,15.7-1.3c3.5,1.5,6.6,3.9,9.2,6.8c4.2,4.7,9.1,8.8,14.4,11.9c0.1,0.1,0.3,0.1,0.4,0.2
			c-5.5,0.4-12.5,3-18,11.8c-0.8,1.2-0.4,2.9,0.8,3.7c1.8,1.2,6.1,3.5,11.4,3.5c4,0,8.6-1.3,13.2-5.4c1.2-1,1.2-2.9,0.1-3.9l0,0
			c-8.8,9.4-17.6,6.6-22,4.2c-0.7-0.4-0.8-1.2-0.4-1.8c9.4-13.6,22.3-8.6,22.9-8.4c1.1,0.4,2.2,0.8,3.3,1.2c2.2,0.8,4.6,1.7,6.8,2.6
			c3.2,1.4,5.8,2.8,8.1,4.4c0.8,0.5,2.1,1.6,3.7,2.9c0.6,0.5,1.2,1,1.7,1.5c0.7,0.7,1.6,1,2.6,1s1.8-0.3,2.6-1
			c0.5-0.5,1.1-1,1.7-1.5c1.5-1.3,2.9-2.4,3.7-2.9c2.2-1.5,4.9-3,8.1-4.4c2.2-1,4.5-1.8,6.8-2.6c1.1-0.4,2.2-0.8,3.3-1.2v0
			c0.6-0.2,13.5-5.2,22.9,8.4c0.4,0.6,0.2,1.5-0.4,1.8c-4.3,2.4-13.1,5.3-22-4.2l0,0c-1.1,1.1-1.1,2.9,0.1,3.9
			c4.6,4.1,9.2,5.4,13.2,5.4c5.4,0,9.6-2.4,11.4-3.5c1.2-0.8,1.6-2.5,0.8-3.7c-5.5-8.8-12.5-11.4-18-11.8c0.1-0.1,0.3-0.1,0.4-0.2
			c6.3-3.7,11.8-8.6,16.5-14.4c1.7-1.4,13.5-10.6,22.8-3.1c0.5,0.4,0.6,1.2,0.2,1.7c-3,3.7-10.8,11.5-20,7l0,0
			c-0.7,1.4,0.1,3.2,1.6,3.6c1.4,0.4,2.8,0.6,4.1,0.6c8.6,0,15.1-7.6,17.2-10.4c0.8-1.1,0.7-2.7-0.3-3.6c-7.1-6.8-15.6-4.6-21.3-1.8
			c3.7-5.8,6.6-12.2,8.6-19.1c1.2-3.3,5.5-11.7,19.2-12c0.7,0,1.4,0.6,1.3,1.3C242.1,161.2,240.1,170.5,226.6,172.4z"/>
		<path class="st2" d="M127.1,98.6c0.7-2.5,1.3-4.5,1.9-6.5c-1.6-1.3-3.1-2.5-5.2-4.2c2.6,0,4.5,0,6.6,0c0.8-2.1,1.5-4,2.5-6.5
			c0.6,1.5,0.9,2.5,1.3,3.4c0.3,0.9,0.6,1.8,0.9,2.8c2,0.1,4,0.2,6.6,0.4c-1.8,1.5-3.3,2.7-5,4.1c0.5,1.9,1.1,3.8,1.9,6.6
			c-2.2-1.5-3.8-2.6-5.6-3.8C131.1,96,129.4,97.1,127.1,98.6z"/>
		<path class="st2" d="M176.4,98.6c0.7-2.5,1.3-4.5,1.9-6.5c-1.6-1.3-3.1-2.5-5.2-4.2c2.6,0,4.5,0,6.6,0c0.8-2.1,1.5-4,2.5-6.5
			c0.6,1.5,0.9,2.5,1.3,3.4c0.3,0.9,0.6,1.8,0.9,2.8c2,0.1,4,0.2,6.6,0.4c-1.8,1.5-3.3,2.7-5,4.1c0.5,1.9,1.1,3.8,1.9,6.6
			c-2.2-1.5-3.8-2.6-5.6-3.8C180.4,96,178.7,97.1,176.4,98.6z"/>
		<path class="st2" d="M151.8,85.3c0.7-2.5,1.3-4.5,1.9-6.5c-1.6-1.3-3.1-2.5-5.2-4.2c2.6,0,4.5,0,6.6,0c0.8-2.1,1.5-4,2.5-6.5
			c0.6,1.5,0.9,2.5,1.3,3.4c0.3,0.9,0.6,1.8,0.9,2.8c2,0.1,4,0.2,6.6,0.4c-1.8,1.5-3.3,2.7-5,4.1c0.5,1.9,1.1,3.8,1.9,6.6
			c-2.2-1.5-3.8-2.6-5.6-3.8C155.7,82.7,154,83.8,151.8,85.3z"/>
	</g>
</g>
</svg>
