<?xml version="1.0" encoding="utf-8"?>
<!-- Generator: Adobe Illustrator 28.0.0, SVG Export Plug-In . SVG Version: 6.00 Build 0)  -->
<svg version="1.1" id="Layer_1" xmlns="http://www.w3.org/2000/svg" xmlns:xlink="http://www.w3.org/1999/xlink" x="0px" y="0px"
	 viewBox="0 0 368.8 368.8" style="enable-background:new 0 0 368.8 368.8;" xml:space="preserve">
<style type="text/css">
	.st0{fill:#E0DFE0;}
	.st1{fill:#B8BBC2;}
	.st2{fill:#0A1739;}
	.st3{fill:#801619;}
	.st4{fill:#BDB5AB;}
	.st5{clip-path:url(#SVGID_00000049943417965248233860000002766524346426109613_);}
</style>
<rect x="0" y="0" class="st0" width="368.8" height="368.8"/>
<g>
	
		<image style="overflow:visible;opacity:0.25;" width="1045" height="981" xlink:href="A412E554.png"  transform="matrix(0.24 0 0 0.24 59.9383 57.5669)">
	</image>
	<g>
		<g>
			<g>
				<path class="st3" d="M121.1,233.1l-2.7,7.3c-0.2,0.5-0.4,1-0.5,1.3c-0.1,0.4-0.2,0.7-0.3,1.1c0,0,0,0.1,0,0.1
					c-0.1-0.2-0.1-0.4-0.2-0.6c-0.1-0.3-0.2-0.5-0.3-0.9c-0.1-0.3-0.2-0.7-0.4-1.1l-2.8-7.3h-3.1l5.4,13.6h2.5l5.4-13.6H121.1z"/>
				<path class="st3" d="M137,233.1h-2.6l-5.3,13.6h2.9l1.1-2.9l0.9-2.3l0.8-2.1c0.1-0.3,0.2-0.6,0.3-0.9c0.1-0.3,0.2-0.6,0.3-1
					c0.1-0.3,0.2-0.6,0.3-1c0.1,0.3,0.2,0.6,0.3,0.9c0.1,0.4,0.2,0.7,0.3,1c0.1,0.3,0.2,0.6,0.3,0.8l0.8,2.1l0.9,2.3l1.1,2.9h3
					L137,233.1z M138.8,241.5h-6.2l-0.9,2.3h8.1L138.8,241.5z"/>
				<path class="st3" d="M168.1,243.5c-0.3,0.2-0.7,0.4-1.1,0.5c-0.4,0.1-0.8,0.2-1.2,0.2c-0.6,0-1.2-0.1-1.7-0.3
					c-0.5-0.2-1-0.5-1.3-0.9c-0.4-0.4-0.7-0.8-0.9-1.3c-0.2-0.5-0.3-1.1-0.3-1.8c0-0.6,0.1-1.2,0.3-1.7c0.2-0.5,0.5-1,0.9-1.3
					c0.4-0.4,0.8-0.7,1.3-0.9c0.5-0.2,1-0.3,1.6-0.3c0.4,0,0.8,0.1,1.2,0.2c0.4,0.1,0.7,0.3,1,0.5c0.3,0.2,0.6,0.5,1,0.8l1.8-2
					c-0.4-0.5-0.8-0.9-1.3-1.2c-0.5-0.3-1.1-0.6-1.7-0.8c-0.6-0.2-1.3-0.3-1.9-0.3c-1,0-1.9,0.2-2.8,0.5c-0.9,0.3-1.6,0.8-2.2,1.5
					c-0.6,0.6-1.1,1.4-1.5,2.2c-0.3,0.8-0.5,1.8-0.5,2.8c0,1,0.2,2,0.5,2.8c0.3,0.9,0.8,1.6,1.4,2.2c0.6,0.6,1.3,1.1,2.2,1.5
					c0.8,0.3,1.7,0.5,2.7,0.5c0.7,0,1.3-0.1,2-0.2c0.6-0.2,1.2-0.4,1.8-0.7c0.5-0.3,0.9-0.6,1.2-0.9l-1.4-2.3
					C168.7,243,168.4,243.3,168.1,243.5z"/>
				<path class="st3" d="M180.4,244.1v-10.9h-2.9v13.6h9v-2.6H180.4z"/>
				<path class="st3" d="M200.2,233.1h-2.6l-5.3,13.6h2.9l1.1-2.9l0.9-2.3l0.8-2.1c0.1-0.3,0.2-0.6,0.3-0.9c0.1-0.3,0.2-0.6,0.3-1
					c0.1-0.3,0.2-0.6,0.3-1c0.1,0.3,0.2,0.6,0.3,0.9c0.1,0.4,0.2,0.7,0.3,1c0.1,0.3,0.2,0.6,0.3,0.8l0.8,2.1l0.9,2.3l1.1,2.9h3
					L200.2,233.1z M201.9,241.5h-6.2l-1,2.3h8.1L201.9,241.5z"/>
				<path class="st3" d="M219.1,235.6v-2.5h-7.4v2.5h2.3v8.6h-2.3v2.5h7.4v-2.5h-2.3v-8.6H219.1z"/>
				<path class="st3" d="M237.8,233.1l-4.1,6.6l-4.1-6.6h-2.7v13.6h2.9v-4.7c0-1.3,0-2.3-0.1-3.2c0-0.3,0-0.6-0.1-0.8l3.3,5.2h1.3
					l3.4-5.3c0,0.3-0.1,0.6-0.1,1c-0.1,0.9-0.1,2-0.1,3.1v4.7h2.9v-13.6H237.8z"/>
				<path class="st3" d="M257.8,241.1c-0.2-0.4-0.5-0.8-0.9-1.2c-0.4-0.3-0.9-0.6-1.5-0.8c-0.6-0.2-1.2-0.4-1.9-0.6
					c-0.4-0.1-0.7-0.2-1-0.3c-0.3-0.1-0.6-0.2-0.8-0.4c-0.2-0.1-0.4-0.3-0.5-0.5c-0.1-0.2-0.2-0.4-0.2-0.6c0-0.3,0.1-0.5,0.3-0.8
					c0.2-0.2,0.4-0.4,0.7-0.5c0.3-0.1,0.7-0.2,1.1-0.2c0.4,0,0.8,0.1,1.1,0.2c0.4,0.1,0.7,0.3,1,0.6c0.3,0.2,0.6,0.5,0.9,0.9
					l1.8-1.8c-0.3-0.5-0.7-0.9-1.2-1.3c-0.5-0.4-1-0.6-1.6-0.8c-0.6-0.2-1.3-0.3-2.2-0.3c-0.7,0-1.3,0.1-1.9,0.3
					c-0.6,0.2-1.1,0.5-1.6,0.8c-0.5,0.4-0.8,0.8-1.1,1.3c-0.3,0.5-0.4,1-0.4,1.6c0,0.6,0.1,1.1,0.3,1.5c0.2,0.5,0.4,0.9,0.8,1.2
					c0.4,0.4,0.8,0.6,1.4,0.9c0.5,0.2,1.2,0.4,1.9,0.6c0.3,0.1,0.6,0.1,0.9,0.2c0.3,0.1,0.5,0.2,0.8,0.3c0.2,0.1,0.4,0.2,0.6,0.4
					c0.2,0.1,0.3,0.3,0.4,0.5c0.1,0.2,0.1,0.4,0.1,0.6c0,0.3-0.1,0.5-0.3,0.7c-0.2,0.2-0.4,0.4-0.7,0.5c-0.3,0.1-0.7,0.2-1.1,0.2
					c-0.7,0-1.4-0.2-2-0.5c-0.6-0.3-1.3-0.9-1.9-1.8l-1.8,2.1c0.4,0.6,0.9,1.1,1.4,1.5c0.5,0.4,1.2,0.7,1.8,0.9
					c0.7,0.2,1.5,0.3,2.3,0.3c1,0,1.9-0.2,2.7-0.5c0.8-0.3,1.4-0.8,1.8-1.5c0.4-0.6,0.7-1.4,0.7-2.3
					C258.1,242,258,241.5,257.8,241.1z"/>
			</g>
			<g>
				<path class="st2" d="M90.6,284.7l-9.7-27.1h-7.3l-9.7,27.1l-2.3,0.3v4.1h11.3V285l-2.1-0.4l1.1-3.9h10.6l1.2,3.9l-2.1,0.4v4.1
					h11.2V285L90.6,284.7z M73.5,275.7l3.3-10.1l0.3-1.1h0.1l0.3,1l3.4,10.2H73.5z"/>
				<path class="st2" d="M117.3,278.8l-0.7,4.4c-0.8,0.3-1.6,0.6-2.5,0.8c-0.9,0.2-1.8,0.3-2.7,0.3c-1.7,0-3.2-0.4-4.5-1.3
					c-1.3-0.9-2.3-2.1-3-3.6c-0.7-1.6-1.1-3.4-1.1-5.4v-1.3c0-2.2,0.3-4,1-5.5c0.7-1.5,1.6-2.7,2.9-3.5c1.2-0.8,2.7-1.2,4.4-1.2
					c0.7,0,1.4,0.1,2.1,0.2c0.6,0.1,1.2,0.3,1.8,0.6c0.5,0.2,1.1,0.5,1.6,0.9l0.7,4.7h5.1v-7.9c-1.6-1.3-3.3-2.3-5.3-2.9
					c-1.9-0.6-4-0.9-6.1-0.9c-3.1,0-5.8,0.7-8,2c-2.2,1.3-4,3.2-5.2,5.5c-1.2,2.3-1.8,5-1.8,8.1v1.2c0,3.3,0.6,6,1.9,8.4
					c1.3,2.3,3.1,4.1,5.4,5.4c2.3,1.2,5,1.9,8,1.9c2.4,0,4.5-0.3,6.4-0.9c1.9-0.6,3.4-1.3,4.7-2.2v-7.7H117.3z"/>
				<path class="st2" d="M156.2,284.7l-9.7-27.1h-7.3l-9.7,27.1l-2.3,0.3v4.1h11.3V285l-2.1-0.4l1.2-3.9h10.6l1.2,3.9l-2.1,0.4v4.1
					h11.2V285L156.2,284.7z M139,275.7l3.3-10.1l0.3-1.1h0.1l0.3,1l3.4,10.2H139z"/>
				<path class="st2" d="M189.7,265c-1.2-2.3-2.9-4.2-5.1-5.5c-2.2-1.3-4.7-2-7.5-2h-14.3v4.1l3.4,0.8v21.8l-3.4,0.8v4.1h14.3
					c2.8,0,5.3-0.7,7.5-2c2.2-1.3,3.9-3.1,5.1-5.5c1.2-2.3,1.8-5,1.8-8v-0.5C191.5,270,190.9,267.3,189.7,265z M184.6,273.6
					c0,2-0.3,3.8-0.9,5.3c-0.6,1.5-1.5,2.7-2.6,3.6c-1.2,0.9-2.6,1.3-4.3,1.3h-3.7v-21h3.7c1.7,0,3.1,0.4,4.3,1.3
					c1.1,0.9,2,2.1,2.6,3.6c0.6,1.5,0.9,3.3,0.9,5.3V273.6z"/>
				<path class="st2" d="M216.8,280.2l-0.2,3.6h-9.5v-8.3h10.4v-5.4h-10.4v-7.2h9.1l0.2,3.5h5.3v-8.8h-24.8v4.1l3.3,0.7v22l-3.3,0.7
					v4.1h25.2v-8.9H216.8z"/>
				<path class="st2" d="M271.3,261.7v-4.1h-13.7l-7.9,21.4h-0.1l-8.1-21.4h-13.8v4.1l3.3,0.7v22l-3.3,0.7v4.1h13.6V285l-3.7-0.7v-6
					l-0.5-13.4l0.2,0l9.4,24h5.4l9.2-24.2l0.1,0l-0.1,14.5v5.1l-3.5,0.7v4.1h13.6V285l-3.3-0.7v-22L271.3,261.7z"/>
				<path class="st2" d="M294.4,257.6v4.1l3.4,0.4l-5.5,9.4l-0.5,1h-0.2l-0.5-1l-4.8-9.4l2.3-0.4v-4.1h-13.1v4.1l3.2,0.5l9.3,16.4
					v5.8l-3.3,0.7v4.1h13.6V285l-3.3-0.7v-6.4l9.2-15.8l3.2-0.5v-4.1H294.4z"/>
			</g>
			<path class="st2" d="M227.7,121.4L227.7,121.4C227.8,121.4,227.8,121.4,227.7,121.4C227.8,121.4,227.8,121.4,227.7,121.4z"/>
			<g>
				<path class="st2" d="M228.9,130.9c-0.1-1.6-0.2-3.1-0.5-4.7c-0.3-1.8-1.6-3.3-3.4-3.9l-4.4-1.4c0,0,4.2,0.3,6.2,0.4
					c0.4,0,0.7-0.4,0.5-0.7c-0.5-1.4-1-4.3-1.5-5.4c-1.4-4.4-3.2-10.2-4.6-14.7c-7.1-0.6-14.1-2-20.9-4.3c1.8,6.1,4.9,15,1.1,23.2
					c-0.2,0.6-1.6,2.5-3.2,3.5c-1.5,0.9-3.4,0.2-4-1.4c-0.8-2.1-0.6-5-1.2-6.9c-0.9-6.5-6.4-7.2-3.6-9.1c-6.1-0.6-21.5-1.3-18.6,7.1
					c5.1-5.2,8.2,5.1,4.9,8.9c-1,1.4-2.5,2-4.1,1.9c-1.1-0.1-2.2-0.7-3-1.4c-6.1-5.6-4-17.6-1-25.6c-6.6,2.2-13.5,3.7-20.4,4.2
					c-1.5,4.4-3.2,10.2-4.7,14.7c-2.5,7.5-2.1,6,4.9,5.6c-1.2,0.7-7.3,1.4-7.4,3.3c-0.5,3.3-1.6,8.8-0.6,11.9
					c0.2-0.1,12.8-4.8,13.1-4.9c-0.2,0.1-8.5,4.6-11.7,6.3c-0.7,0.4-1.1,1.2-1,2c0.7,4.3,3.2,9.5,5.4,12.9l0.4-0.3l8.2-7.1
					c-10.4,12.4-10,6.6,0.5,17.7c1.6-2.5,5.8-7.9,7.7-10.3c-0.4,0.8-5,9.2-6.2,11.5c-0.3,0.6,8.4,5.5,9.4,5.9
					c0.2,0.2,10.3-13.7,10.5-13.7l-6.9,15.7l-0.2,0.5c-0.3,0.7,14.1,6.3,15.5,6.7c1.6-0.4,15.3-5.8,15.5-6.7
					c-0.1-0.3-6.2-15.8-6.3-16.2c0.3,0.4,9.2,13.9,9.2,13.9c0,0.1,0.7-0.2,1.6-0.7c2.8-1.6,8.5-5.1,8.3-5.4l-0.2-0.4l-6.1-11.2
					c1.9,2.5,6,7.8,7.7,10.3c3-2.7,5.9-5.7,8.2-9.1c-1.8-1.8-6.1-6.6-7.7-8.6c0.2,0.1,8.4,7.3,8.6,7.4c2.5-3.8,4.4-8.2,5.3-12.7
					c0.2-0.9-0.3-1.9-1.1-2.4l-11.4-6.1l13.1,4.9C229.3,135.1,228.8,131.4,228.9,130.9z M173.3,109.3c-0.1,0-0.1,0-0.2,0
					c2.5-2.1,8.8-2.3,13.5-2c4.4,5.4,4.6,6.6,5.6,13.7l0,0c0,0.1,0,1.4,0,1.5c-0.7-0.3-1.2-0.1-1.7,0.5c-0.2,0.1-0.7,0.9-1,0.7
					c-0.7-0.4-3.8-2.1-4.5-2.4c-1-0.1-5,2.2-6.1,2.5c-0.5,0.2-1.2-0.9-1.6-1.1C180.2,118,179.6,109.6,173.3,109.3z M189.1,144
					c0.7,2.4,1.4,4.9,2.4,8.4c-2.8-1.9-4.9-3.4-7.1-4.9c-2.3,1.5-4.5,2.9-7.3,4.8c0.9-3.2,1.6-5.7,2.4-8.2c-2.1-1.6-4-3.2-6.7-5.3
					h8.4c1-2.7,1.9-5.1,3.1-8.3c0.7,2,1.2,3.2,1.6,4.4c0.4,1.1,0.7,2.3,1.2,3.6c2.6,0.1,5.1,0.3,8.4,0.5
					C193.1,140.7,191.2,142.2,189.1,144z"/>
				<path class="st2" d="M207.3,187.9c0.1,0,0.3,0,0.5,0.1c0,0-0.1-0.1-0.1-0.1C207.5,187.9,207.4,187.9,207.3,187.9z"/>
				<path class="st2" d="M207,187.9c0.1,0,0.2,0,0.3,0C207.1,187.9,207,187.9,207,187.9z"/>
				<path class="st2" d="M160.4,188c0.2,0,0.3,0,0.5-0.1c-0.1,0-0.2,0-0.4,0C160.5,187.9,160.4,187.9,160.4,188z"/>
				<path class="st2" d="M160.9,187.9c0.1,0,0.2,0,0.3,0C161.1,187.9,161,187.9,160.9,187.9z"/>
				<path class="st2" d="M180.1,110.6c0,0,0.1,0,0.1,0c0.6-0.1,1-0.6,0.9-1.3c-0.1-0.4-0.5-0.7-1-0.7h0c-0.5,0-1,0.4-1,1
					c0,0.3,0.1,0.6,0.3,0.7C179.5,110.5,179.8,110.6,180.1,110.6z"/>
			</g>
			<g>
				<g>
					<path class="st2" d="M184.4,218.1c-0.5,0-1-0.3-1.1-0.8c-1.7-6.1-7.4-10.4-13.7-10.4h-57.3c-0.6,0-1.2-0.5-1.2-1.2l0,0
						c0-0.6,0.5-1.2,1.2-1.2h57.3c5.1,0,9.8,2.3,12.9,6.1c1.1,1.3,2.9,1.3,4,0c3.1-3.8,7.8-6.1,12.9-6.1h57.3c0.6,0,1.2,0.5,1.2,1.2
						l0,0c0,0.6-0.5,1.2-1.2,1.2h-57.3c-6.4,0-12,4.3-13.7,10.4C185.4,217.7,184.9,218.1,184.4,218.1z"/>
				</g>
			</g>
			<path class="st2" d="M184.3,95.3L184.3,95.3C184.3,95.3,184.3,95.3,184.3,95.3C184.3,95.3,184.3,95.3,184.3,95.3z"/>
			<path class="st2" d="M242.3,146.8L242.3,146.8c0.2,1.3,1.4,2.2,2.7,1.9c12.4-3,12.9-13.5,12.7-16.8c-0.1-1.2-1-2.1-2.2-2.2
				c-0.2,0-0.3,0-0.5,0c-7.7,0-12.5,2.8-15.3,5.8c0.1-0.7,0.2-1.3,0.3-2c0.8-5.5,0.6-11-0.6-16.1c0.1-0.9,0.9-9.2,11.1-13.6
				c0.5-0.2,1.1,0,1.3,0.5c0.9,1.6,2.1,4.5,1.4,7.9c-0.8,3.7-3.8,7.1-8.8,10.1v0c0.7,1.1,2.1,1.5,3.2,0.7c4.4-3.1,7.1-6.5,7.9-10.4
				c1.1-4.9-1.2-9-2.2-10.5c-0.6-0.9-1.7-1.2-2.7-0.8c-7.8,3-11.1,8-12.5,11.6c-0.9-2.4-2.1-4.6-3.3-6.8c-1.6-2.9-3.1-5.7-3.9-8.7
				c-1-3.7-0.5-7.8,1.4-11.7c1.4-2.8,3.2-4.8,3.2-4.8c0.7-0.7,1.5-1.4,2.3-2c0.5-0.4,1.1-0.3,1.5,0.2c1.4,1.9,3.2,5.1,3.1,9.4
				c-0.1,6-3.9,9.8-5,10.8v0c0.9,1,2.4,1,3.3,0c1.8-2.1,4-5.7,4.1-10.7c0.1-5.7-2.6-9.8-4.3-11.7c-0.7-0.9-2-1-3-0.4
				c-1.3,0.8-2.5,1.8-3.6,3c-0.1,0.1-2.1,2.3-3.7,5.4c-2.1,4.4-2.7,9.1-1.6,13.3c0.9,3.3,2.5,6.3,4.1,9.2c1.3,2.5,2.7,5.1,3.6,7.8
				c1.8,5.6,2.2,11.8,1.3,18.1c-0.4,2.9-1,5.7-1.9,8.5c-0.2,0.6-0.3,1-0.3,1l0,0c-2.2,7-5.6,13.4-9.9,18.9c0,0,0,0,0,0l0,0
				c-3.8,4.7-8.3,8.7-13.4,11.7c-2.9,1.7-6.3,3-9.5,4.1c-1.9,0.7-3.9,1.4-5.8,2.3c-2.8,1.2-5.1,2.5-7.2,3.9
				c-0.7,0.5-1.9,1.4-3.3,2.6c-0.5,0.5-1,0.9-1.5,1.3c-0.3,0.3-0.8,0.3-1.1,0c-0.4-0.4-1-0.9-1.5-1.3c-1.4-1.2-2.6-2.1-3.3-2.6
				c-2-1.4-4.4-2.7-7.2-3.9c-1.9-0.8-3.9-1.6-5.8-2.3c-3.2-1.2-6.6-2.4-9.5-4.1c-5.1-3-9.6-6.9-13.4-11.7l0,0c0,0,0,0,0,0
				c-4.4-5.4-7.8-11.9-9.9-18.9l0,0c0,0-0.1-0.4-0.3-1c-0.8-2.8-1.4-5.6-1.9-8.5c-0.9-6.3-0.4-12.6,1.3-18.1
				c0.9-2.7,2.2-5.3,3.6-7.8c1.6-2.9,3.2-5.9,4.1-9.2c1.1-4.2,0.5-8.9-1.6-13.3c-1.5-3.1-3.6-5.3-3.7-5.4c-1.1-1.1-2.3-2.1-3.6-3
				c-0.9-0.6-2.2-0.4-3,0.4c-1.7,1.9-4.4,6-4.3,11.7c0.1,3.7,1.5,7.3,4.1,10.6c0.8,1,2.4,1.1,3.3,0.2l0,0c-3.3-3.4-5-7-5.1-10.9
				c-0.1-4.3,1.7-7.5,3-9.4c0.3-0.5,1-0.6,1.5-0.2c0.8,0.6,1.6,1.3,2.3,2c0,0,1.9,2,3.2,4.8c1.9,3.9,2.4,8,1.4,11.7
				c-0.8,3-2.3,5.8-3.9,8.7c-1.2,2.2-2.4,4.4-3.3,6.8c-1.4-3.6-4.7-8.6-12.5-11.6c-1-0.4-2.1,0-2.7,0.8c-1,1.5-3.3,5.6-2.2,10.5
				c0.8,3.8,3.5,7.3,7.9,10.4c1.1,0.7,2.5,0.4,3.2-0.7l0,0c-5-3-8-6.4-8.8-10.1c-0.7-3.4,0.5-6.3,1.3-7.9c0.3-0.5,0.8-0.7,1.4-0.5
				c5,2.2,7.8,5.2,9.3,7.9c1.4,2.5,1.8,5.4,1.3,8.2c-0.7,4.3-0.7,8.9-0.1,13.5c0.1,0.7,0.2,1.3,0.3,2c-2.9-3.1-7.8-5.9-15.8-5.8
				c-1.2,0-2.2,1-2.2,2.2c-0.2,3.3,0.3,13.9,12.7,16.8c1.3,0.3,2.5-0.6,2.7-1.9l0,0c-11.3-1.6-13-9.4-13.1-13.7
				c0-0.6,0.5-1.1,1.1-1.1c8.1,0.2,12.3,3.7,14.4,6.8c0.9,1.3,1.6,2.8,2,4.3c1.6,5.4,4,10.5,6.9,15c-4.8-2.4-11.9-4.2-17.9,1.5
				c-0.8,0.8-1,2.1-0.3,3c1.8,2.4,7.2,8.8,14.4,8.8c1.1,0,2.3-0.2,3.5-0.5c1.3-0.4,2-1.8,1.4-3l0,0c-7.7,3.8-14.2-2.7-16.8-5.8
				c-0.4-0.4-0.3-1.1,0.2-1.5c4.4-3.6,9.4-2.7,13.2-1.1c3,1.3,5.5,3.3,7.7,5.7c3.5,4,7.6,7.4,12.1,10c0.1,0.1,0.2,0.1,0.3,0.2
				c-4.6,0.4-10.5,2.5-15.1,9.9c-0.7,1-0.3,2.4,0.7,3.1c1.5,1,5.1,3,9.6,3c3.3,0,7.2-1.1,11.1-4.5c1-0.9,1-2.4,0.1-3.3l0,0
				c-7.4,7.9-14.8,5.5-18.4,3.5c-0.5-0.3-0.7-1-0.4-1.5c7.9-11.4,18.7-7.3,19.2-7.1c0.9,0.4,1.9,0.7,2.8,1c1.9,0.7,3.8,1.4,5.7,2.2
				c2.7,1.2,4.9,2.4,6.8,3.7c0.6,0.4,1.8,1.4,3.1,2.5c0.5,0.4,1,0.9,1.4,1.2c0.6,0.6,1.4,0.8,2.1,0.8c0.8,0,1.5-0.3,2.1-0.8
				c0.4-0.4,0.9-0.8,1.4-1.2c1.3-1.1,2.5-2,3.1-2.5c1.9-1.3,4.1-2.5,6.8-3.7c1.8-0.8,3.8-1.5,5.7-2.2c0.9-0.3,1.8-0.7,2.8-1v0
				c0.5-0.2,11.3-4.3,19.2,7.1c0.4,0.5,0.2,1.2-0.4,1.5c-3.6,2-11,4.4-18.4-3.5l0,0c-1,0.9-0.9,2.4,0.1,3.3
				c3.9,3.4,7.7,4.5,11.1,4.5c4.5,0,8.1-2,9.6-3c1-0.7,1.3-2.1,0.7-3.1c-4.6-7.4-10.5-9.5-15.1-9.9c0.1-0.1,0.2-0.1,0.3-0.2
				c5.3-3.1,9.9-7.2,13.9-12.1c1.4-1.2,11.3-8.9,19.1-2.6c0.4,0.4,0.5,1,0.2,1.5c-2.6,3.1-9.1,9.7-16.8,5.8l0,0
				c-0.6,1.2,0.1,2.7,1.4,3c1.2,0.3,2.4,0.5,3.5,0.5c7.2,0,12.7-6.4,14.4-8.8c0.7-0.9,0.6-2.2-0.3-3c-6-5.7-13.1-3.9-17.9-1.5
				c3.1-4.9,5.6-10.3,7.2-16c1-2.7,4.6-9.8,16.1-10.1c0.6,0,1.1,0.5,1.1,1.1C255.3,137.4,253.6,145.2,242.3,146.8z"/>
			<path class="st2" d="M158.7,84.9c0.6-2.1,1.1-3.8,1.6-5.4c-1.4-1.1-2.6-2.1-4.4-3.5c2.2,0,3.8,0,5.5,0c0.7-1.8,1.3-3.4,2.1-5.5
				c0.5,1.3,0.8,2.1,1.1,2.9c0.3,0.7,0.5,1.5,0.8,2.4c1.7,0.1,3.3,0.2,5.5,0.3c-1.5,1.3-2.7,2.2-4.2,3.4c0.4,1.6,0.9,3.2,1.6,5.5
				c-1.8-1.3-3.2-2.2-4.7-3.2C162.1,82.7,160.6,83.6,158.7,84.9z"/>
			<path class="st2" d="M200.1,84.9c0.6-2.1,1.1-3.8,1.6-5.4c-1.4-1.1-2.6-2.1-4.4-3.5c2.2,0,3.8,0,5.5,0c0.7-1.8,1.3-3.4,2.1-5.5
				c0.5,1.3,0.8,2.1,1.1,2.9c0.3,0.7,0.5,1.5,0.8,2.4c1.7,0.1,3.3,0.2,5.5,0.3c-1.5,1.3-2.7,2.2-4.2,3.4c0.4,1.6,0.9,3.2,1.6,5.5
				c-1.8-1.3-3.2-2.2-4.7-3.2C203.5,82.7,202,83.6,200.1,84.9z"/>
			<path class="st2" d="M179.4,73.7c0.6-2.1,1.1-3.8,1.6-5.4c-1.4-1.1-2.6-2.1-4.4-3.5c2.2,0,3.8,0,5.5,0c0.7-1.8,1.3-3.4,2.1-5.5
				c0.5,1.3,0.8,2.1,1.1,2.9c0.3,0.7,0.5,1.5,0.8,2.4c1.7,0.1,3.3,0.2,5.5,0.3c-1.5,1.3-2.7,2.2-4.2,3.4c0.4,1.6,0.9,3.2,1.6,5.5
				c-1.8-1.3-3.2-2.2-4.7-3.2C182.8,71.5,181.3,72.5,179.4,73.7z"/>
		</g>
	</g>
</g>
</svg>
