<?xml version="1.0" encoding="utf-8"?>
<!-- Generator: Adobe Illustrator 28.0.0, SVG Export Plug-In . SVG Version: 6.00 Build 0)  -->
<svg version="1.1" id="Layer_1" xmlns="http://www.w3.org/2000/svg" xmlns:xlink="http://www.w3.org/1999/xlink" x="0px" y="0px"
	 viewBox="0 0 368.8 180.8" style="enable-background:new 0 0 368.8 180.8;" xml:space="preserve">
<style type="text/css">
	.st0{fill:#E0DFE0;}
	.st1{fill:#B8BBC2;}
	.st2{fill:#0A1739;}
	.st3{fill:#801619;}
	.st4{fill:#BDB5AB;}
	.st5{clip-path:url(#SVGID_00000023969682569003955710000006289569748336322992_);}
</style>
<rect x="0" y="0" class="st0" width="368.8" height="180.8"/>
<g>
	
		<image style="overflow:visible;opacity:0.25;" width="1064" height="262" xlink:href="8744DA94.png"  transform="matrix(0.24 0 0 0.24 57.6412 59.8374)">
	</image>
	<g>
		<g>
			<g>
				<path class="st2" d="M69,75.6l-5.5-13.8h3.1l2.9,7.5c0.2,0.4,0.3,0.8,0.4,1.1c0.1,0.3,0.2,0.6,0.3,0.9c0.1,0.3,0.2,0.5,0.2,0.8
					c0.1,0.3,0.2,0.5,0.2,0.8l-0.6,0c0.1-0.4,0.2-0.8,0.3-1.1c0.1-0.3,0.2-0.7,0.4-1.1c0.1-0.4,0.3-0.8,0.5-1.4l2.7-7.5h3.1
					l-5.5,13.8H69z"/>
				<path class="st2" d="M82.3,75.6l5.4-13.8h2.6l5.4,13.8h-3l-2.8-7.4c-0.1-0.2-0.2-0.5-0.3-0.8c-0.1-0.3-0.2-0.7-0.3-1
					c-0.1-0.4-0.2-0.7-0.3-1.1c-0.1-0.3-0.2-0.6-0.2-0.8l0.5,0c-0.1,0.3-0.2,0.6-0.3,0.9c-0.1,0.3-0.2,0.7-0.3,1
					c-0.1,0.3-0.2,0.7-0.3,1c-0.1,0.3-0.2,0.6-0.3,0.9l-2.8,7.4H82.3z M84.8,72.7l1-2.4h6.3l1,2.4H84.8z"/>
				<path class="st2" d="M119.3,75.8c-1,0-1.9-0.2-2.8-0.5c-0.8-0.3-1.6-0.8-2.2-1.5c-0.6-0.6-1.1-1.4-1.5-2.3
					c-0.3-0.9-0.5-1.8-0.5-2.9c0-1,0.2-2,0.5-2.8c0.4-0.9,0.9-1.6,1.5-2.3c0.6-0.6,1.4-1.1,2.3-1.5c0.9-0.4,1.8-0.5,2.8-0.5
					c0.7,0,1.3,0.1,1.9,0.3c0.6,0.2,1.2,0.4,1.8,0.8c0.5,0.3,1,0.8,1.4,1.2l-1.9,2.1c-0.3-0.3-0.6-0.6-1-0.8
					c-0.3-0.2-0.7-0.4-1.1-0.5c-0.4-0.1-0.8-0.2-1.2-0.2c-0.6,0-1.1,0.1-1.6,0.3c-0.5,0.2-0.9,0.5-1.3,0.9c-0.4,0.4-0.7,0.8-0.9,1.4
					c-0.2,0.5-0.3,1.1-0.3,1.8c0,0.7,0.1,1.3,0.3,1.8c0.2,0.5,0.5,1,0.9,1.4s0.8,0.7,1.4,0.9c0.5,0.2,1.1,0.3,1.8,0.3
					c0.4,0,0.8-0.1,1.2-0.2c0.4-0.1,0.8-0.3,1.1-0.5c0.3-0.2,0.6-0.5,0.9-0.7l1.4,2.3c-0.3,0.4-0.7,0.7-1.3,1
					c-0.5,0.3-1.1,0.5-1.8,0.7C120.6,75.7,119.9,75.8,119.3,75.8z"/>
				<path class="st2" d="M131.5,75.6V61.8h3v11.2h6.3v2.7H131.5z"/>
				<path class="st2" d="M146.6,75.6l5.4-13.8h2.6l5.4,13.8h-3l-2.8-7.4c-0.1-0.2-0.2-0.5-0.3-0.8c-0.1-0.3-0.2-0.7-0.3-1
					c-0.1-0.4-0.2-0.7-0.3-1.1c-0.1-0.3-0.2-0.6-0.2-0.8l0.5,0c-0.1,0.3-0.2,0.6-0.3,0.9c-0.1,0.3-0.2,0.7-0.3,1
					c-0.1,0.3-0.2,0.7-0.3,1c-0.1,0.3-0.2,0.6-0.3,0.9l-2.8,7.4H146.6z M149.1,72.7l1-2.4h6.3l1,2.4H149.1z"/>
				<path class="st2" d="M166.4,75.6v-2.5h2.3v-8.7h-2.3v-2.5h7.6v2.5h-2.3v8.7h2.3v2.5H166.4z"/>
				<path class="st2" d="M181.9,75.6V61.8h2.7l5,8.2l-1.8,0l5.1-8.2h2.6v13.8h-2.9v-4.7c0-1.2,0-2.3,0.1-3.2
					c0.1-0.9,0.2-1.9,0.3-2.8l0.4,0.9l-4,6.3h-1.3l-4-6.2l0.3-1c0.1,0.9,0.2,1.8,0.3,2.7c0.1,0.9,0.1,2,0.1,3.3v4.7H181.9z"/>
				<path class="st2" d="M208.4,75.8c-0.9,0-1.6-0.1-2.3-0.3c-0.7-0.2-1.3-0.5-1.9-0.9c-0.5-0.4-1-0.9-1.5-1.5l1.9-2.1
					c0.6,0.9,1.3,1.5,1.9,1.8c0.6,0.3,1.3,0.5,2.1,0.5c0.4,0,0.8-0.1,1.1-0.2c0.3-0.1,0.6-0.3,0.8-0.5c0.2-0.2,0.3-0.5,0.3-0.8
					c0-0.2,0-0.4-0.1-0.6c-0.1-0.2-0.2-0.3-0.4-0.5c-0.2-0.1-0.4-0.3-0.6-0.4c-0.2-0.1-0.5-0.2-0.8-0.3s-0.6-0.2-0.9-0.2
					c-0.7-0.2-1.4-0.4-1.9-0.6c-0.6-0.2-1-0.5-1.4-0.9c-0.4-0.4-0.6-0.8-0.8-1.2c-0.2-0.5-0.3-1-0.3-1.6c0-0.6,0.1-1.1,0.4-1.6
					c0.3-0.5,0.6-0.9,1.1-1.3c0.5-0.4,1-0.7,1.6-0.8c0.6-0.2,1.3-0.3,1.9-0.3c0.8,0,1.6,0.1,2.2,0.3c0.6,0.2,1.2,0.5,1.6,0.8
					c0.5,0.4,0.9,0.8,1.2,1.3l-1.9,1.8c-0.3-0.4-0.6-0.7-0.9-0.9c-0.3-0.3-0.7-0.4-1-0.6c-0.4-0.1-0.8-0.2-1.2-0.2
					c-0.4,0-0.8,0.1-1.1,0.2c-0.3,0.1-0.6,0.3-0.7,0.5c-0.2,0.2-0.3,0.5-0.3,0.8c0,0.2,0.1,0.4,0.2,0.6c0.1,0.2,0.3,0.3,0.5,0.5
					c0.2,0.1,0.5,0.3,0.8,0.4c0.3,0.1,0.7,0.2,1,0.3c0.7,0.1,1.4,0.3,2,0.6c0.6,0.2,1.1,0.5,1.5,0.9c0.4,0.3,0.7,0.7,1,1.2
					s0.3,1,0.3,1.5c0,0.9-0.2,1.7-0.7,2.4c-0.4,0.7-1.1,1.2-1.9,1.5C210.4,75.6,209.5,75.8,208.4,75.8z"/>
			</g>
			<g>
				<path class="st2" d="M59.3,118.8v-4.2l2.3-0.3l9.9-27.6h7.4l9.9,27.6l2.3,0.3v4.2H79.7v-4.2l2.2-0.4l-1.2-4H69.8l-1.2,4l2.2,0.4
					v4.2H59.3z M71.4,105.2H79l-3.4-10.4l-0.3-1h-0.1l-0.4,1.1L71.4,105.2z"/>
				<path class="st2" d="M109.9,119.3c-3.1,0-5.8-0.6-8.2-1.9c-2.4-1.3-4.2-3.1-5.5-5.5c-1.3-2.4-2-5.2-2-8.5v-1.3
					c0-3.1,0.6-5.9,1.9-8.2c1.2-2.4,3-4.3,5.3-5.6c2.3-1.4,5-2,8.2-2c2.2,0,4.3,0.3,6.3,0.9c2,0.6,3.7,1.6,5.4,2.9v8H116l-0.7-4.8
					c-0.5-0.3-1-0.6-1.6-0.9c-0.6-0.2-1.2-0.4-1.8-0.6s-1.3-0.2-2.1-0.2c-1.7,0-3.2,0.4-4.5,1.3c-1.3,0.8-2.2,2-2.9,3.6
					c-0.7,1.6-1,3.4-1,5.6v1.3c0,2.1,0.4,4,1.1,5.6c0.7,1.6,1.7,2.8,3,3.7c1.3,0.9,2.8,1.3,4.6,1.3c0.9,0,1.8-0.1,2.7-0.3
					s1.8-0.5,2.6-0.8l0.7-4.5h5.2v7.9c-1.3,0.9-2.9,1.6-4.8,2.2C114.5,119,112.3,119.3,109.9,119.3z"/>
				<path class="st2" d="M126.1,118.8v-4.2l2.3-0.3l9.9-27.6h7.4l9.9,27.6l2.3,0.3v4.2h-11.4v-4.2l2.2-0.4l-1.2-4h-10.8l-1.2,4
					l2.2,0.4v4.2H126.1z M138.2,105.2h7.7l-3.4-10.4l-0.3-1h-0.1l-0.4,1.1L138.2,105.2z"/>
				<path class="st2" d="M162.4,118.8v-4.2l3.4-0.8V91.6l-3.4-0.8v-4.2h3.4H177c2.9,0,5.4,0.7,7.6,2c2.2,1.3,3.9,3.2,5.2,5.6
					c1.3,2.4,1.9,5.1,1.9,8.2v0.6c0,3.1-0.6,5.8-1.9,8.2c-1.2,2.4-3,4.2-5.2,5.6c-2.2,1.3-4.8,2-7.6,2H162.4z M172.9,113.4h3.8
					c1.7,0,3.2-0.4,4.3-1.3c1.2-0.9,2.1-2.1,2.7-3.7c0.6-1.6,0.9-3.4,0.9-5.4v-0.6c0-2.1-0.3-3.9-0.9-5.4c-0.6-1.6-1.5-2.8-2.7-3.7
					c-1.2-0.9-2.6-1.3-4.3-1.3h-3.8V113.4z"/>
				<path class="st2" d="M197.1,118.8v-4.2l3.4-0.7V91.5l-3.4-0.7v-4.2h25.3v9H217l-0.2-3.5h-9.2v7.4h10.6v5.5h-10.6v8.5h9.7
					l0.2-3.7h5.3v9.1H197.1z"/>
				<path class="st2" d="M228.6,118.8v-4.2l3.4-0.7V91.5l-3.4-0.7v-4.2h3.4h10.6l8.3,21.8h0.1l8.1-21.8H273v4.2l-3.4,0.7v22.4
					l3.4,0.7v4.2h-13.8v-4.2l3.5-0.7v-5.2l0.1-14.8l-0.1,0l-9.4,24.7h-5.5l-9.5-24.4l-0.2,0l0.5,13.7v6.1l3.8,0.7v4.2H228.6z"/>
				<path class="st2" d="M286.5,118.8v-4.2l3.4-0.7v-6l-9.4-16.7l-3.2-0.5v-4.2h13.4v4.2l-2.3,0.4l4.9,9.6l0.5,1.1h0.2l0.5-1
					l5.6-9.6l-3.4-0.4v-4.2h13.1v4.2l-3.3,0.5l-9.3,16.1v6.5l3.4,0.7v4.2H286.5z"/>
			</g>
		</g>
	</g>
</g>
</svg>
