<?xml version="1.0" encoding="utf-8"?>
<!-- Generator: Adobe Illustrator 28.0.0, SVG Export Plug-In . SVG Version: 6.00 Build 0)  -->
<svg version="1.1" id="Layer_1" xmlns="http://www.w3.org/2000/svg" xmlns:xlink="http://www.w3.org/1999/xlink" x="0px" y="0px"
	 viewBox="0 0 368.8 180.8" style="enable-background:new 0 0 368.8 180.8;" xml:space="preserve">
<style type="text/css">
	.st0{fill:#E0DFE0;}
	.st1{fill:#B8BBC2;}
	.st2{fill:#0A1739;}
	.st3{fill:#801619;}
	.st4{fill:#BDB5AB;}
	.st5{clip-path:url(#SVGID_00000166650220762942536730000011503212813583501499_);}
</style>
<rect x="0" y="0" class="st0" width="368.8" height="180.8"/>
<g>
	
		<image style="overflow:visible;opacity:0.25;" width="1110" height="337" xlink:href="9B9717C8.png"  transform="matrix(0.24 0 0 0.24 52.1212 50.891)">
	</image>
	<g>
		<g>
			<g>
				<g>
					<path class="st2" d="M158.9,86.9l-3.6-9h2l1.9,4.9c0.1,0.3,0.2,0.5,0.3,0.7c0.1,0.2,0.1,0.4,0.2,0.6c0.1,0.2,0.1,0.3,0.2,0.5
						c0.1,0.2,0.1,0.3,0.2,0.5l-0.4,0c0.1-0.3,0.1-0.5,0.2-0.7c0.1-0.2,0.1-0.5,0.2-0.7c0.1-0.2,0.2-0.5,0.3-0.9l1.8-4.9h2l-3.6,9
						H158.9z"/>
					<path class="st2" d="M167.5,86.9l3.5-9h1.7l3.5,9h-2l-1.8-4.8c-0.1-0.1-0.1-0.3-0.2-0.5c-0.1-0.2-0.1-0.4-0.2-0.7
						c-0.1-0.2-0.1-0.5-0.2-0.7c-0.1-0.2-0.1-0.4-0.2-0.5l0.3,0c-0.1,0.2-0.1,0.4-0.2,0.6c-0.1,0.2-0.1,0.4-0.2,0.6
						c-0.1,0.2-0.1,0.4-0.2,0.6c-0.1,0.2-0.1,0.4-0.2,0.6l-1.8,4.8H167.5z M169.2,85l0.6-1.6h4.1l0.6,1.6H169.2z"/>
					<path class="st2" d="M191.5,87c-0.7,0-1.3-0.1-1.8-0.3c-0.6-0.2-1-0.5-1.4-1c-0.4-0.4-0.7-0.9-0.9-1.5
						c-0.2-0.6-0.3-1.2-0.3-1.9c0-0.7,0.1-1.3,0.3-1.8c0.2-0.6,0.6-1,1-1.5c0.4-0.4,0.9-0.7,1.5-1c0.6-0.2,1.2-0.3,1.8-0.3
						c0.4,0,0.8,0.1,1.3,0.2c0.4,0.1,0.8,0.3,1.1,0.5c0.3,0.2,0.6,0.5,0.9,0.8l-1.2,1.3c-0.2-0.2-0.4-0.4-0.6-0.5
						c-0.2-0.1-0.4-0.3-0.7-0.3c-0.2-0.1-0.5-0.1-0.8-0.1c-0.4,0-0.7,0.1-1,0.2c-0.3,0.1-0.6,0.3-0.8,0.6s-0.4,0.5-0.6,0.9
						c-0.1,0.3-0.2,0.7-0.2,1.1c0,0.4,0.1,0.8,0.2,1.2c0.1,0.3,0.3,0.6,0.6,0.9s0.5,0.4,0.9,0.6c0.3,0.1,0.7,0.2,1.1,0.2
						c0.3,0,0.5,0,0.8-0.1c0.3-0.1,0.5-0.2,0.7-0.3c0.2-0.1,0.4-0.3,0.6-0.5l0.9,1.5c-0.2,0.2-0.5,0.4-0.8,0.6
						c-0.3,0.2-0.7,0.3-1.2,0.4C192.4,87,192,87,191.5,87z"/>
					<path class="st2" d="M199.5,86.9v-9h1.9v7.2h4.1v1.7H199.5z"/>
					<path class="st2" d="M209.3,86.9l3.5-9h1.7l3.5,9h-2l-1.8-4.8c-0.1-0.1-0.1-0.3-0.2-0.5c-0.1-0.2-0.1-0.4-0.2-0.7
						c-0.1-0.2-0.1-0.5-0.2-0.7c-0.1-0.2-0.1-0.4-0.2-0.5l0.3,0c-0.1,0.2-0.1,0.4-0.2,0.6c-0.1,0.2-0.1,0.4-0.2,0.6
						c-0.1,0.2-0.1,0.4-0.2,0.6c-0.1,0.2-0.1,0.4-0.2,0.6l-1.8,4.8H209.3z M210.9,85l0.6-1.6h4.1l0.6,1.6H210.9z"/>
					<path class="st2" d="M222.1,86.9v-1.7h1.5v-5.7h-1.5v-1.7h4.9v1.7h-1.5v5.7h1.5v1.7H222.1z"/>
					<path class="st2" d="M232.2,86.9v-9h1.8l3.3,5.3l-1.2,0l3.3-5.3h1.7v9h-1.9v-3.1c0-0.8,0-1.5,0.1-2.1c0-0.6,0.1-1.2,0.2-1.8
						l0.2,0.6l-2.6,4.1h-0.8l-2.6-4l0.2-0.6c0.1,0.6,0.2,1.2,0.2,1.8c0,0.6,0.1,1.3,0.1,2.1v3.1H232.2z"/>
					<path class="st2" d="M249.4,87c-0.6,0-1.1-0.1-1.5-0.2c-0.5-0.1-0.9-0.3-1.2-0.6c-0.4-0.3-0.7-0.6-1-1l1.2-1.4
						c0.4,0.6,0.8,1,1.2,1.2c0.4,0.2,0.9,0.3,1.4,0.3c0.3,0,0.5,0,0.7-0.1c0.2-0.1,0.4-0.2,0.5-0.3c0.1-0.1,0.2-0.3,0.2-0.5
						c0-0.1,0-0.3-0.1-0.4c-0.1-0.1-0.1-0.2-0.3-0.3c-0.1-0.1-0.2-0.2-0.4-0.2c-0.2-0.1-0.3-0.1-0.5-0.2c-0.2-0.1-0.4-0.1-0.6-0.1
						c-0.5-0.1-0.9-0.2-1.3-0.4c-0.4-0.2-0.7-0.4-0.9-0.6c-0.2-0.2-0.4-0.5-0.5-0.8c-0.1-0.3-0.2-0.6-0.2-1c0-0.4,0.1-0.7,0.3-1.1
						c0.2-0.3,0.4-0.6,0.7-0.9c0.3-0.2,0.7-0.4,1.1-0.6c0.4-0.1,0.8-0.2,1.3-0.2c0.5,0,1,0.1,1.4,0.2c0.4,0.1,0.8,0.3,1.1,0.5
						s0.6,0.5,0.8,0.8l-1.2,1.2c-0.2-0.2-0.4-0.4-0.6-0.6c-0.2-0.2-0.4-0.3-0.7-0.4c-0.2-0.1-0.5-0.1-0.7-0.1c-0.3,0-0.5,0-0.7,0.1
						c-0.2,0.1-0.4,0.2-0.5,0.3c-0.1,0.1-0.2,0.3-0.2,0.5c0,0.2,0,0.3,0.1,0.4c0.1,0.1,0.2,0.2,0.3,0.3s0.3,0.2,0.5,0.2
						c0.2,0.1,0.4,0.1,0.7,0.2c0.5,0.1,0.9,0.2,1.3,0.4c0.4,0.2,0.7,0.3,1,0.6c0.3,0.2,0.5,0.5,0.6,0.8s0.2,0.6,0.2,1
						c0,0.6-0.1,1.1-0.4,1.6c-0.3,0.4-0.7,0.8-1.2,1C250.7,86.9,250.1,87,249.4,87z"/>
				</g>
				<g>
					<path class="st2" d="M152.6,114.9v-2.7l1.5-0.2l6.4-17.9h4.8l6.4,17.9l1.5,0.2v2.7h-7.4v-2.7l1.4-0.3l-0.8-2.6h-7l-0.8,2.6
						l1.4,0.3v2.7H152.6z M160.4,106.1h5l-2.2-6.8l-0.2-0.7h-0.1l-0.2,0.7L160.4,106.1z"/>
					<path class="st2" d="M185.4,115.2c-2,0-3.8-0.4-5.3-1.2c-1.5-0.8-2.7-2-3.6-3.5c-0.9-1.5-1.3-3.4-1.3-5.5v-0.8
						c0-2,0.4-3.8,1.2-5.4c0.8-1.6,1.9-2.8,3.4-3.7c1.5-0.9,3.3-1.3,5.3-1.3c1.4,0,2.8,0.2,4.1,0.6c1.3,0.4,2.4,1,3.5,1.9v5.2h-3.4
						l-0.5-3.1c-0.3-0.2-0.7-0.4-1-0.6c-0.4-0.2-0.8-0.3-1.2-0.4c-0.4-0.1-0.9-0.1-1.4-0.1c-1.1,0-2.1,0.3-2.9,0.8s-1.5,1.3-1.9,2.3
						c-0.4,1-0.7,2.2-0.7,3.7v0.8c0,1.4,0.2,2.6,0.7,3.6c0.5,1,1.1,1.8,2,2.4c0.8,0.6,1.8,0.8,3,0.8c0.6,0,1.2-0.1,1.8-0.2
						c0.6-0.1,1.1-0.3,1.7-0.5l0.5-2.9h3.4v5.1c-0.8,0.6-1.9,1-3.1,1.4C188.4,115,187,115.2,185.4,115.2z"/>
					<path class="st2" d="M195.9,114.9v-2.7l1.5-0.2l6.4-17.9h4.8l6.4,17.9l1.5,0.2v2.7h-7.4v-2.7l1.4-0.3l-0.8-2.6h-7L202,112
						l1.4,0.3v2.7H195.9z M203.8,106.1h5l-2.2-6.8l-0.2-0.7h-0.1l-0.2,0.7L203.8,106.1z"/>
					<path class="st2" d="M219.5,114.9v-2.7l2.2-0.5V97.3l-2.2-0.5v-2.7h2.2h7.2c1.9,0,3.5,0.4,5,1.3c1.4,0.9,2.6,2.1,3.4,3.6
						c0.8,1.5,1.2,3.3,1.2,5.3v0.4c0,2-0.4,3.8-1.2,5.3c-0.8,1.5-1.9,2.8-3.4,3.6c-1.4,0.9-3.1,1.3-5,1.3H219.5z M226.3,111.5h2.4
						c1.1,0,2.1-0.3,2.8-0.9c0.8-0.6,1.3-1.4,1.7-2.4c0.4-1,0.6-2.2,0.6-3.5v-0.4c0-1.3-0.2-2.5-0.6-3.5c-0.4-1-1-1.8-1.7-2.4
						c-0.8-0.6-1.7-0.9-2.8-0.9h-2.4V111.5z"/>
					<path class="st2" d="M242,114.9v-2.7l2.2-0.4V97.2l-2.2-0.4v-2.7h16.4v5.8h-3.5l-0.2-2.3h-6v4.8h6.9v3.5h-6.9v5.5h6.3l0.2-2.4
						h3.5v5.9H242z"/>
					<path class="st2" d="M262.5,114.9v-2.7l2.2-0.4V97.2l-2.2-0.4v-2.7h2.2h6.9l5.4,14.2h0.1l5.2-14.2h9v2.7l-2.2,0.4v14.5l2.2,0.4
						v2.7h-9v-2.7l2.3-0.4v-3.4l0.1-9.6l-0.1,0l-6.1,16H275l-6.2-15.9l-0.1,0l0.3,8.9v3.9l2.4,0.4v2.7H262.5z"/>
					<path class="st2" d="M300.1,114.9v-2.7l2.2-0.4v-3.9l-6.1-10.8l-2.1-0.3v-2.7h8.7v2.7l-1.5,0.2l3.2,6.2l0.3,0.7h0.1l0.3-0.7
						l3.6-6.2l-2.2-0.2v-2.7h8.5v2.7l-2.1,0.3l-6.1,10.5v4.2l2.2,0.4v2.7H300.1z"/>
				</g>
			</g>
			<g>
				<g>
					<path class="st2" d="M121.9,93.7c0-0.9-0.1-1.9-0.3-2.8c-0.2-1.1-0.9-2-2-2.3l-2.6-0.8c0,0,2.5,0.2,3.6,0.3
						c0.2,0,0.4-0.2,0.3-0.4c-0.3-0.8-0.6-2.5-0.9-3.2c-0.8-2.6-1.9-6-2.7-8.6c-4.2-0.3-8.3-1.2-12.3-2.6c1.1,3.6,2.9,8.8,0.7,13.7
						c-0.1,0.4-0.9,1.5-1.9,2.1c-0.9,0.5-2,0.1-2.4-0.9c-0.5-1.2-0.4-2.9-0.7-4.1c-0.5-3.8-3.8-4.2-2.1-5.4
						c-3.6-0.3-12.7-0.8-11,4.2c3-3.1,4.8,3,2.9,5.2c-0.6,0.8-1.5,1.2-2.4,1.1c-0.7-0.1-1.3-0.4-1.8-0.8c-3.6-3.3-2.4-10.4-0.6-15.1
						c-3.9,1.3-7.9,2.2-12,2.5c-0.9,2.6-1.9,6-2.8,8.6c-1.5,4.4-1.3,3.5,2.9,3.3c-0.7,0.4-4.3,0.8-4.4,2c-0.3,2-0.9,5.2-0.4,7
						c0.1-0.1,7.6-2.8,7.7-2.9c-0.1,0.1-5,2.7-6.9,3.7c-0.4,0.2-0.7,0.7-0.6,1.2c0.4,2.5,1.9,5.6,3.2,7.6l0.2-0.2l4.8-4.2
						c-6.1,7.3-5.9,3.9,0.3,10.4c0.9-1.5,3.4-4.6,4.5-6.1c-0.3,0.5-2.9,5.4-3.7,6.8c-0.2,0.4,5,3.2,5.6,3.5c0.1,0.1,6.1-8.1,6.2-8
						l-4.1,9.2l-0.1,0.3c-0.2,0.4,8.3,3.7,9.1,4c0.9-0.2,9-3.4,9.1-4c-0.1-0.2-3.6-9.3-3.7-9.5c0.2,0.2,5.4,8.2,5.4,8.2
						c0,0.1,0.4-0.1,0.9-0.4c1.7-0.9,5-3,4.9-3.2l-0.1-0.2l-3.6-6.6c1.1,1.4,3.6,4.6,4.5,6.1c1.8-1.6,3.5-3.4,4.8-5.3
						c-1-1.1-3.6-3.9-4.5-5.1c0.1,0.1,4.9,4.3,5,4.4c1.5-2.2,2.6-4.8,3.1-7.5c0.1-0.6-0.2-1.1-0.7-1.4l-6.7-3.6l7.7,2.9
						C122.2,96.2,121.9,94,121.9,93.7z M89.2,81c0,0-0.1,0-0.1,0c1.5-1.2,5.2-1.3,8-1.2c2.6,3.2,2.7,3.9,3.3,8l0,0c0,0,0,0.8,0,0.9
						c-0.4-0.2-0.7,0-1,0.3c-0.1,0.1-0.4,0.5-0.6,0.4c-0.4-0.2-2.2-1.2-2.6-1.4c-0.6-0.1-3,1.3-3.6,1.5c-0.3,0.1-0.7-0.5-1-0.7
						C93.3,86.1,92.9,81.2,89.2,81z M98.5,101.4c0.4,1.4,0.8,2.9,1.4,4.9c-1.6-1.1-2.9-2-4.2-2.9c-1.3,0.9-2.6,1.7-4.3,2.8
						c0.5-1.9,1-3.4,1.4-4.9c-1.2-1-2.4-1.9-3.9-3.1h4.9c0.6-1.6,1.1-3,1.8-4.9c0.4,1.2,0.7,1.9,1,2.6c0.2,0.7,0.4,1.3,0.7,2.1
						c1.5,0.1,3,0.2,4.9,0.3C100.9,99.4,99.8,100.3,98.5,101.4z"/>
					<path class="st2" d="M93.2,81.7C93.2,81.7,93.3,81.7,93.2,81.7c0.4-0.1,0.7-0.4,0.6-0.8c-0.1-0.3-0.3-0.4-0.6-0.4h0
						c-0.3,0-0.6,0.3-0.6,0.6c0,0.2,0.1,0.3,0.2,0.4C92.9,81.7,93,81.7,93.2,81.7z"/>
				</g>
				<path class="st2" d="M120.6,88.1L120.6,88.1C120.6,88.1,120.6,88.1,120.6,88.1C120.6,88.1,120.6,88.1,120.6,88.1z"/>
				<path class="st2" d="M128.9,102.7L128.9,102.7c0.1,0.7,0.8,1.2,1.5,1.1c7.1-1.7,7.4-7.7,7.3-9.6c0-0.7-0.6-1.2-1.3-1.2
					c-0.1,0-0.2,0-0.3,0c-4.4,0-7.1,1.6-8.8,3.3c0.1-0.4,0.1-0.8,0.2-1.1c0.4-3.2,0.3-6.3-0.3-9.2c0-0.5,0.5-5.3,6.4-7.8
					c0.3-0.1,0.6,0,0.8,0.3c0.5,0.9,1.2,2.6,0.8,4.5c-0.5,2.1-2.2,4.1-5.1,5.8l0,0c0.4,0.6,1.2,0.8,1.8,0.4c2.5-1.7,4-3.7,4.5-5.9
					c0.6-2.8-0.7-5.2-1.3-6c-0.3-0.5-1-0.7-1.5-0.5c-4.4,1.7-6.3,4.6-7.1,6.6c-0.5-1.4-1.2-2.6-1.9-3.9c-0.9-1.7-1.7-3.2-2.2-5
					c-0.6-2.1-0.3-4.5,0.8-6.7c0.8-1.6,1.8-2.7,1.9-2.7c0.4-0.4,0.8-0.8,1.3-1.2c0.3-0.2,0.6-0.2,0.8,0.1c0.8,1.1,1.8,2.9,1.8,5.4
					c-0.1,3.5-2.2,5.6-2.9,6.2l0,0c0.5,0.6,1.4,0.6,1.9,0c1-1.2,2.3-3.3,2.4-6.1c0.1-3.3-1.5-5.6-2.5-6.7c-0.4-0.5-1.2-0.6-1.7-0.2
					c-0.7,0.5-1.4,1.1-2,1.7c0,0.1-1.2,1.3-2.1,3.1c-1.2,2.5-1.5,5.2-0.9,7.6c0.5,1.9,1.4,3.6,2.3,5.3c0.8,1.4,1.6,2.9,2.1,4.5
					c1,3.2,1.3,6.8,0.8,10.4c-0.2,1.7-0.6,3.3-1.1,4.9c-0.1,0.3-0.2,0.6-0.2,0.6l0,0c-1.2,4-3.2,7.7-5.7,10.8c0,0,0,0,0,0l0,0
					c-2.2,2.7-4.7,5-7.6,6.7c-1.7,1-3.6,1.7-5.4,2.4c-1.1,0.4-2.2,0.8-3.3,1.3c-1.6,0.7-2.9,1.4-4.1,2.2c-0.4,0.3-1.1,0.8-1.9,1.5
					c-0.3,0.3-0.6,0.5-0.9,0.8c-0.2,0.2-0.4,0.2-0.6,0c-0.3-0.2-0.5-0.5-0.9-0.8c-0.8-0.7-1.5-1.2-1.9-1.5c-1.2-0.8-2.5-1.5-4.1-2.2
					c-1.1-0.5-2.2-0.9-3.3-1.3c-1.8-0.7-3.8-1.4-5.4-2.4c-2.9-1.7-5.5-4-7.6-6.7l0,0c0,0,0,0,0,0c-2.5-3.1-4.4-6.8-5.7-10.8l0,0
					c0,0,0-0.2-0.2-0.5c-0.5-1.6-0.8-3.2-1.1-4.9c-0.5-3.6-0.3-7.2,0.8-10.4c0.5-1.5,1.3-3,2.1-4.5c0.9-1.7,1.8-3.4,2.3-5.3
					c0.6-2.4,0.3-5.1-0.9-7.6c-0.9-1.8-2-3-2.1-3.1c-0.6-0.6-1.3-1.2-2-1.7c-0.5-0.4-1.3-0.2-1.7,0.2c-0.9,1.1-2.5,3.4-2.5,6.7
					c0,2.1,0.8,4.2,2.4,6.1c0.5,0.6,1.4,0.7,1.9,0.1l0,0c-1.9-1.9-2.9-4-2.9-6.2c-0.1-2.4,1-4.3,1.7-5.4c0.2-0.3,0.6-0.3,0.8-0.1
					c0.5,0.3,0.9,0.7,1.3,1.2c0,0,1.1,1.1,1.9,2.7c1.1,2.2,1.4,4.6,0.8,6.7c-0.5,1.7-1.3,3.3-2.2,5c-0.7,1.2-1.4,2.5-1.9,3.9
					c-0.8-2.1-2.7-4.9-7.1-6.6c-0.6-0.2-1.2,0-1.5,0.5c-0.6,0.9-1.9,3.2-1.3,6c0.5,2.2,2,4.2,4.5,5.9c0.6,0.4,1.4,0.2,1.8-0.4l0,0
					c-2.9-1.7-4.6-3.7-5.1-5.8c-0.4-1.9,0.3-3.6,0.8-4.5c0.2-0.3,0.5-0.4,0.8-0.3c2.9,1.2,4.5,3,5.3,4.5c0.8,1.4,1,3.1,0.8,4.7
					c-0.4,2.5-0.4,5.1-0.1,7.7c0.1,0.4,0.1,0.8,0.2,1.2c-1.7-1.8-4.5-3.4-9.1-3.3c-0.7,0-1.2,0.6-1.3,1.2c-0.1,1.9,0.2,7.9,7.3,9.6
					c0.7,0.2,1.4-0.3,1.5-1.1l0,0c-6.5-0.9-7.5-5.4-7.5-7.8c0-0.4,0.3-0.6,0.6-0.6c4.6,0.1,7,2.1,8.3,3.9c0.5,0.7,0.9,1.6,1.2,2.5
					c0.9,3.1,2.3,6,4,8.6c-2.7-1.4-6.8-2.4-10.2,0.9c-0.5,0.5-0.5,1.2-0.2,1.7c1,1.4,4.1,5,8.3,5c0.6,0,1.3-0.1,2-0.3
					c0.7-0.2,1.1-1,0.8-1.7h0c-4.4,2.2-8.1-1.5-9.6-3.3c-0.2-0.3-0.2-0.6,0.1-0.8c2.5-2,5.4-1.6,7.5-0.6c1.7,0.7,3.2,1.9,4.4,3.2
					c2,2.3,4.4,4.2,6.9,5.7c0.1,0,0.1,0.1,0.2,0.1c-2.6,0.2-6,1.5-8.6,5.7c-0.4,0.6-0.2,1.4,0.4,1.8c0.9,0.6,2.9,1.7,5.5,1.7
					c1.9,0,4.1-0.6,6.3-2.6c0.6-0.5,0.6-1.4,0-1.9l0,0c-4.2,4.5-8.5,3.2-10.6,2c-0.3-0.2-0.4-0.6-0.2-0.9c4.5-6.5,10.7-4.2,11-4
					c0.5,0.2,1.1,0.4,1.6,0.6c1.1,0.4,2.2,0.8,3.3,1.3c1.5,0.7,2.8,1.4,3.9,2.1c0.4,0.2,1,0.8,1.8,1.4c0.3,0.3,0.6,0.5,0.8,0.7
					c0.4,0.3,0.8,0.5,1.2,0.5s0.9-0.2,1.2-0.5c0.2-0.2,0.5-0.5,0.8-0.7c0.7-0.6,1.4-1.2,1.8-1.4c1.1-0.7,2.3-1.4,3.9-2.1
					c1.1-0.5,2.2-0.9,3.3-1.3c0.5-0.2,1.1-0.4,1.6-0.6v0c0.3-0.1,6.5-2.5,11,4c0.2,0.3,0.1,0.7-0.2,0.9c-2.1,1.2-6.3,2.5-10.6-2l0,0
					c-0.6,0.5-0.5,1.4,0,1.9c2.2,2,4.4,2.6,6.3,2.6c2.6,0,4.6-1.1,5.5-1.7c0.6-0.4,0.8-1.2,0.4-1.8c-2.6-4.2-6-5.5-8.6-5.7
					c0.1,0,0.1-0.1,0.2-0.1c3-1.8,5.7-4.1,7.9-6.9c0.8-0.7,6.5-5.1,10.9-1.5c0.3,0.2,0.3,0.6,0.1,0.8c-1.5,1.8-5.2,5.5-9.6,3.3l0,0
					c-0.3,0.7,0,1.5,0.8,1.7c0.7,0.2,1.3,0.3,2,0.3c4.1,0,7.2-3.7,8.3-5c0.4-0.5,0.3-1.3-0.2-1.7c-3.4-3.3-7.5-2.2-10.2-0.9
					c1.8-2.8,3.2-5.9,4.1-9.2c0.6-1.6,2.7-5.6,9.2-5.8c0.4,0,0.7,0.3,0.6,0.6C136.3,97.3,135.4,101.8,128.9,102.7z"/>
				<path class="st2" d="M81.1,67.2c0.3-1.2,0.6-2.1,0.9-3.1c-0.8-0.6-1.5-1.2-2.5-2c1.3,0,2.2,0,3.2,0c0.4-1,0.7-1.9,1.2-3.1
					c0.3,0.7,0.5,1.2,0.6,1.6c0.1,0.4,0.3,0.9,0.4,1.4c1,0.1,1.9,0.1,3.2,0.2c-0.9,0.7-1.6,1.3-2.4,2c0.3,0.9,0.5,1.8,0.9,3.2
					c-1-0.7-1.8-1.3-2.7-1.8C83,66,82.1,66.5,81.1,67.2z"/>
				<path class="st2" d="M104.8,67.2c0.3-1.2,0.6-2.1,0.9-3.1c-0.8-0.6-1.5-1.2-2.5-2c1.3,0,2.2,0,3.2,0c0.4-1,0.7-1.9,1.2-3.1
					c0.3,0.7,0.5,1.2,0.6,1.6c0.1,0.4,0.3,0.9,0.4,1.4c1,0.1,1.9,0.1,3.2,0.2c-0.9,0.7-1.6,1.3-2.4,2c0.3,0.9,0.5,1.8,0.9,3.2
					c-1-0.7-1.8-1.3-2.7-1.8C106.7,66,105.8,66.5,104.8,67.2z"/>
				<path class="st2" d="M92.9,60.8c0.3-1.2,0.6-2.1,0.9-3.1c-0.8-0.6-1.5-1.2-2.5-2c1.3,0,2.2,0,3.2,0c0.4-1,0.7-1.9,1.2-3.1
					c0.3,0.7,0.5,1.2,0.6,1.6c0.1,0.4,0.3,0.9,0.4,1.4c1,0.1,1.9,0.1,3.2,0.2c-0.9,0.7-1.6,1.3-2.4,2c0.3,0.9,0.5,1.8,0.9,3.2
					c-1-0.7-1.8-1.3-2.7-1.8C94.8,59.6,94,60.1,92.9,60.8z"/>
			</g>
		</g>
	</g>
</g>
</svg>
