<?xml version="1.0" encoding="utf-8"?>
<!-- Generator: Adobe Illustrator 28.0.0, SVG Export Plug-In . SVG Version: 6.00 Build 0)  -->
<svg version="1.1" id="Layer_1" xmlns="http://www.w3.org/2000/svg" xmlns:xlink="http://www.w3.org/1999/xlink" x="0px" y="0px"
	 viewBox="0 0 368.8 368.8" style="enable-background:new 0 0 368.8 368.8;" xml:space="preserve">
<style type="text/css">
	.st0{fill:#E0DFE0;}
	.st1{fill:#B8BBC2;}
	.st2{fill:#0A1739;}
	.st3{fill:#801619;}
	.st4{fill:#BDB5AB;}
	.st5{clip-path:url(#SVGID_00000112635007935471150440000010677234176682764674_);}
</style>
<rect x="0" y="0" class="st1" width="368.8" height="368.8"/>
<g>
	
		<image style="overflow:visible;opacity:0.25;" width="938" height="864" xlink:href="F3A67592.png"  transform="matrix(0.24 0 0 0.24 72.7342 91.6389)">
	</image>
	<g>
		<g>
			<path class="st2" d="M294,177.9c-0.1-3.8-0.5-7.7-1.1-11.5c-0.7-4.5-3.9-8.2-8.2-9.5l-10.9-3.4c0,0,10.2,0.7,15,1.1
				c0.9,0.1,1.6-0.9,1.3-1.7c-1.2-3.4-2.5-10.4-3.6-13.1c-3.4-10.9-7.9-24.9-11.3-35.8c-17.3-1.4-34.5-5-50.9-10.6
				c4.4,14.9,11.8,36.7,2.7,56.7c-0.5,1.5-3.8,6.2-7.7,8.6c-3.6,2.2-8.3,0.4-9.9-3.5c-2-5.1-1.5-12.1-2.9-16.8
				c-2.2-15.9-15.6-17.5-8.8-22.3c-15-1.4-52.6-3.1-45.4,17.3c12.5-12.8,19.9,12.5,12,21.8c-2.4,3.4-6.1,5-9.9,4.7
				c-2.8-0.2-5.3-1.6-7.4-3.5c-15-13.8-9.7-43-2.3-62.6c-16.1,5.5-32.9,8.9-49.9,10.3c-3.7,10.8-7.9,25-11.4,35.8
				c-6.2,18.4-5.2,14.6,11.9,13.8c-3,1.7-17.8,3.5-18.2,8.2c-1.3,8.1-3.9,21.4-1.5,29.1c0.6-0.2,31.3-11.8,31.9-12
				C106.9,179,86.6,189.9,79,194c-1.7,0.9-2.8,2.9-2.5,4.8c1.7,10.4,7.7,23.2,13.3,31.6l0.9-0.8l20-17.3
				c-25.3,30.4-24.4,16.1,1.3,43.3c3.9-6.1,14.1-19.2,18.7-25.1c-1.1,2-12.1,22.4-15.2,28.1c-0.8,1.5,20.6,13.5,23,14.4
				c0.4,0.5,25.3-33.4,25.5-33.4l-16.8,38.3l-0.5,1.2c-0.7,1.7,34.3,15.4,37.8,16.5c3.9-1,37.4-14.2,37.9-16.5
				c-0.3-0.8-15.1-38.6-15.4-39.5c0.7,1,22.4,33.9,22.4,33.9c0.1,0.2,1.8-0.6,3.9-1.7c6.9-3.8,20.7-12.6,20.4-13.3l-0.5-0.9
				l-14.8-27.3c4.7,6,14.7,19,18.7,25.2c7.4-6.6,14.4-14,20.1-22.1c-4.3-4.4-14.8-16.1-18.9-21.1c0.4,0.4,20.5,17.8,20.9,18.1
				c6.2-9.3,10.8-19.9,13-30.9c0.5-2.3-0.7-4.7-2.7-5.8l-27.9-15l31.9,12C295,188.1,293.8,178.9,294,177.9z M158.2,125
				c-0.2,0-0.4,0-0.5,0c6.2-5,21.4-5.6,33.1-4.9c10.7,13.1,11.2,16.2,13.7,33.4l0,0c0,0.2,0.1,3.5,0.1,3.7c-1.8-0.7-3.1-0.2-4.2,1.3
				c-0.5,0.2-1.6,2.3-2.4,1.7c-1.8-1-9.3-5.1-10.9-5.9c-2.4-0.2-12.3,5.4-14.8,6.2c-1.3,0.6-3-2.2-4-2.8
				C175,146.2,173.6,125.9,158.2,125z M196.8,209.7c1.6,5.8,3.4,11.9,5.8,20.5c-6.8-4.7-11.9-8.2-17.3-12
				c-5.5,3.6-10.9,7.1-17.9,11.7c2.3-7.9,4-13.9,5.8-20.1c-5-4-9.7-7.8-16.3-13h20.5c2.5-6.6,4.7-12.5,7.6-20.4
				c1.8,4.8,2.9,7.7,3.9,10.6c1,2.7,1.8,5.5,2.9,8.9c6.3,0.4,12.4,0.7,20.5,1.1C206.5,201.7,202,205.4,196.8,209.7z"/>
			<path class="st2" d="M174.8,128.2c0.1,0,0.2,0,0.3,0c1.5-0.2,2.5-1.6,2.1-3.2c-0.3-1.1-1.3-1.8-2.4-1.8h-0.1
				c-1.3,0-2.4,1.1-2.4,2.5c0,0.7,0.2,1.4,0.7,1.8C173.5,127.9,174.1,128.2,174.8,128.2z"/>
		</g>
	</g>
</g>
</svg>
