<?xml version="1.0" encoding="utf-8"?>
<!-- Generator: Adobe Illustrator 28.0.0, SVG Export Plug-In . SVG Version: 6.00 Build 0)  -->
<svg version="1.1" id="Layer_1" xmlns="http://www.w3.org/2000/svg" xmlns:xlink="http://www.w3.org/1999/xlink" x="0px" y="0px"
	 viewBox="0 0 368.8 368.8" style="enable-background:new 0 0 368.8 368.8;" xml:space="preserve">
<style type="text/css">
	.st0{fill:#E0DFE0;}
	.st1{fill:#B8BBC2;}
	.st2{fill:#0A1739;}
	.st3{fill:#801619;}
	.st4{fill:#BDB5AB;}
	.st5{clip-path:url(#SVGID_00000146489975423848095290000015051728520541305531_);}
</style>
<rect x="0" y="0" class="st1" width="368.8" height="368.8"/>
<g>
	
		<image style="overflow:visible;opacity:0.25;" width="1045" height="258" xlink:href="C991C106.png"  transform="matrix(0.24 0 0 0.24 59.904 154.292)">
	</image>
	<g>
		<g>
			<g>
				<path class="st2" d="M121.1,156.4l-2.7,7.3c-0.2,0.5-0.4,1-0.5,1.3c-0.1,0.4-0.2,0.7-0.3,1.1c0,0,0,0.1,0,0.1
					c-0.1-0.2-0.1-0.4-0.2-0.6c-0.1-0.3-0.2-0.5-0.3-0.9c-0.1-0.3-0.2-0.7-0.4-1.1l-2.8-7.3h-3.1l5.4,13.6h2.5l5.4-13.6H121.1z"/>
				<path class="st2" d="M137,156.4h-2.6l-5.3,13.6h2.9l1.1-2.9l0.9-2.3l0.8-2.1c0.1-0.3,0.2-0.6,0.3-0.9c0.1-0.3,0.2-0.6,0.3-1
					c0.1-0.3,0.2-0.6,0.3-1c0.1,0.3,0.2,0.6,0.3,0.9c0.1,0.4,0.2,0.7,0.3,1c0.1,0.3,0.2,0.6,0.3,0.8l0.8,2.1l0.9,2.3l1.1,2.9h3
					L137,156.4z M138.8,164.7h-6.2l-0.9,2.3h8.1L138.8,164.7z"/>
				<path class="st2" d="M168.1,166.7c-0.3,0.2-0.7,0.4-1.1,0.5c-0.4,0.1-0.8,0.2-1.2,0.2c-0.6,0-1.2-0.1-1.7-0.3
					c-0.5-0.2-1-0.5-1.3-0.9c-0.4-0.4-0.7-0.8-0.9-1.3c-0.2-0.5-0.3-1.1-0.3-1.8c0-0.6,0.1-1.2,0.3-1.7c0.2-0.5,0.5-1,0.9-1.3
					c0.4-0.4,0.8-0.7,1.3-0.9c0.5-0.2,1-0.3,1.6-0.3c0.4,0,0.8,0.1,1.2,0.2c0.4,0.1,0.7,0.3,1,0.5c0.3,0.2,0.6,0.5,1,0.8l1.8-2
					c-0.4-0.5-0.8-0.9-1.3-1.2c-0.5-0.3-1.1-0.6-1.7-0.8c-0.6-0.2-1.3-0.3-1.9-0.3c-1,0-1.9,0.2-2.8,0.5c-0.9,0.3-1.6,0.8-2.2,1.5
					c-0.6,0.6-1.1,1.4-1.5,2.2c-0.3,0.8-0.5,1.8-0.5,2.8c0,1,0.2,2,0.5,2.8c0.3,0.9,0.8,1.6,1.4,2.2c0.6,0.6,1.3,1.1,2.2,1.5
					c0.8,0.3,1.7,0.5,2.7,0.5c0.7,0,1.3-0.1,2-0.2c0.6-0.2,1.2-0.4,1.8-0.7c0.5-0.3,0.9-0.6,1.2-0.9L169,166
					C168.7,166.2,168.4,166.5,168.1,166.7z"/>
				<path class="st2" d="M180.4,167.3v-10.9h-2.9v13.6h9v-2.6H180.4z"/>
				<path class="st2" d="M200.2,156.4h-2.6l-5.3,13.6h2.9l1.1-2.9l0.9-2.3l0.8-2.1c0.1-0.3,0.2-0.6,0.3-0.9c0.1-0.3,0.2-0.6,0.3-1
					c0.1-0.3,0.2-0.6,0.3-1c0.1,0.3,0.2,0.6,0.3,0.9c0.1,0.4,0.2,0.7,0.3,1c0.1,0.3,0.2,0.6,0.3,0.8l0.8,2.1l0.9,2.3l1.1,2.9h3
					L200.2,156.4z M201.9,164.7h-6.2l-1,2.3h8.1L201.9,164.7z"/>
				<path class="st2" d="M219.1,158.9v-2.5h-7.4v2.5h2.3v8.6h-2.3v2.5h7.4v-2.5h-2.3v-8.6H219.1z"/>
				<path class="st2" d="M237.8,156.4l-4.1,6.6l-4.1-6.6h-2.7v13.6h2.9v-4.7c0-1.3,0-2.3-0.1-3.2c0-0.3,0-0.6-0.1-0.8l3.3,5.2h1.3
					l3.4-5.3c0,0.3-0.1,0.6-0.1,1c-0.1,0.9-0.1,2-0.1,3.1v4.7h2.9v-13.6H237.8z"/>
				<path class="st2" d="M257.8,164.3c-0.2-0.4-0.5-0.8-0.9-1.2c-0.4-0.3-0.9-0.6-1.5-0.8c-0.6-0.2-1.2-0.4-1.9-0.6
					c-0.4-0.1-0.7-0.2-1-0.3c-0.3-0.1-0.6-0.2-0.8-0.4c-0.2-0.1-0.4-0.3-0.5-0.5c-0.1-0.2-0.2-0.4-0.2-0.6c0-0.3,0.1-0.5,0.3-0.8
					c0.2-0.2,0.4-0.4,0.7-0.5c0.3-0.1,0.7-0.2,1.1-0.2c0.4,0,0.8,0.1,1.1,0.2c0.4,0.1,0.7,0.3,1,0.6c0.3,0.2,0.6,0.5,0.9,0.9
					l1.8-1.8c-0.3-0.5-0.7-0.9-1.2-1.3c-0.5-0.4-1-0.6-1.6-0.8c-0.6-0.2-1.3-0.3-2.2-0.3c-0.7,0-1.3,0.1-1.9,0.3
					c-0.6,0.2-1.1,0.5-1.6,0.8c-0.5,0.4-0.8,0.8-1.1,1.3c-0.3,0.5-0.4,1-0.4,1.6c0,0.6,0.1,1.1,0.3,1.5c0.2,0.5,0.4,0.9,0.8,1.2
					c0.4,0.4,0.8,0.6,1.4,0.9c0.5,0.2,1.2,0.4,1.9,0.6c0.3,0.1,0.6,0.1,0.9,0.2c0.3,0.1,0.5,0.2,0.8,0.3c0.2,0.1,0.4,0.2,0.6,0.4
					c0.2,0.1,0.3,0.3,0.4,0.5c0.1,0.2,0.1,0.4,0.1,0.6c0,0.3-0.1,0.5-0.3,0.7c-0.2,0.2-0.4,0.4-0.7,0.5c-0.3,0.1-0.7,0.2-1.1,0.2
					c-0.7,0-1.4-0.2-2-0.5c-0.6-0.3-1.3-0.9-1.9-1.8l-1.8,2.1c0.4,0.6,0.9,1.1,1.4,1.5c0.5,0.4,1.2,0.7,1.8,0.9
					c0.7,0.2,1.5,0.3,2.3,0.3c1,0,1.9-0.2,2.7-0.5c0.8-0.3,1.4-0.8,1.8-1.5c0.4-0.6,0.7-1.4,0.7-2.3
					C258.1,165.2,258,164.7,257.8,164.3z"/>
			</g>
			<g>
				<path class="st2" d="M90.6,207.9l-9.7-27.1h-7.3l-9.7,27.1l-2.3,0.3v4.1h11.3v-4.1l-2.1-0.4l1.1-3.9h10.6l1.2,3.9l-2.1,0.4v4.1
					h11.2v-4.1L90.6,207.9z M73.5,198.9l3.3-10.1l0.3-1.1h0.1l0.3,1l3.4,10.2H73.5z"/>
				<path class="st2" d="M117.3,202l-0.7,4.4c-0.8,0.3-1.6,0.6-2.5,0.8c-0.9,0.2-1.8,0.3-2.7,0.3c-1.7,0-3.2-0.4-4.5-1.3
					c-1.3-0.9-2.3-2.1-3-3.6c-0.7-1.6-1.1-3.4-1.1-5.4v-1.3c0-2.2,0.3-4,1-5.5c0.7-1.5,1.6-2.7,2.9-3.5c1.2-0.8,2.7-1.2,4.4-1.2
					c0.7,0,1.4,0.1,2.1,0.2c0.6,0.1,1.2,0.3,1.8,0.6c0.5,0.2,1.1,0.5,1.6,0.9l0.7,4.7h5.1v-7.9c-1.6-1.3-3.3-2.3-5.3-2.9
					c-1.9-0.6-4-0.9-6.1-0.9c-3.1,0-5.8,0.7-8,2c-2.2,1.3-4,3.2-5.2,5.5c-1.2,2.3-1.8,5-1.8,8.1v1.2c0,3.3,0.6,6,1.9,8.4
					c1.3,2.3,3.1,4.1,5.4,5.4c2.3,1.2,5,1.9,8,1.9c2.4,0,4.5-0.3,6.4-0.9c1.9-0.6,3.4-1.3,4.7-2.2V202H117.3z"/>
				<path class="st2" d="M156.2,207.9l-9.7-27.1h-7.3l-9.7,27.1l-2.3,0.3v4.1h11.3v-4.1l-2.1-0.4l1.2-3.9h10.6l1.2,3.9l-2.1,0.4v4.1
					h11.2v-4.1L156.2,207.9z M139,198.9l3.3-10.1l0.3-1.1h0.1l0.3,1l3.4,10.2H139z"/>
				<path class="st2" d="M189.7,188.2c-1.2-2.3-2.9-4.2-5.1-5.5c-2.2-1.3-4.7-2-7.5-2h-14.3v4.1l3.4,0.8v21.8l-3.4,0.8v4.1h14.3
					c2.8,0,5.3-0.7,7.5-2c2.2-1.3,3.9-3.1,5.1-5.5c1.2-2.3,1.8-5,1.8-8v-0.5C191.5,193.2,190.9,190.6,189.7,188.2z M184.6,196.8
					c0,2-0.3,3.8-0.9,5.3c-0.6,1.5-1.5,2.7-2.6,3.6c-1.2,0.9-2.6,1.3-4.3,1.3h-3.7v-21h3.7c1.7,0,3.1,0.4,4.3,1.3
					c1.1,0.9,2,2.1,2.6,3.6c0.6,1.5,0.9,3.3,0.9,5.3V196.8z"/>
				<path class="st2" d="M216.8,203.4l-0.2,3.6h-9.5v-8.3h10.4v-5.4h-10.4v-7.2h9.1l0.2,3.5h5.3v-8.8h-24.8v4.1l3.3,0.7v22l-3.3,0.7
					v4.1h25.2v-8.9H216.8z"/>
				<path class="st2" d="M271.3,184.9v-4.1h-13.7l-7.9,21.4h-0.1l-8.1-21.4h-13.8v4.1l3.3,0.7v22l-3.3,0.7v4.1h13.6v-4.1l-3.7-0.7
					v-6l-0.5-13.4l0.2,0l9.4,24h5.4l9.2-24.2l0.1,0l-0.1,14.5v5.1l-3.5,0.7v4.1h13.6v-4.1l-3.3-0.7v-22L271.3,184.9z"/>
				<path class="st2" d="M294.4,180.8v4.1l3.4,0.4l-5.5,9.4l-0.5,1h-0.2l-0.5-1l-4.8-9.4l2.3-0.4v-4.1h-13.1v4.1l3.2,0.5l9.3,16.4
					v5.8l-3.3,0.7v4.1h13.6v-4.1l-3.3-0.7v-6.4l9.2-15.8l3.2-0.5v-4.1H294.4z"/>
			</g>
		</g>
	</g>
</g>
</svg>
