<?xml version="1.0" encoding="utf-8"?>
<!-- Generator: Adobe Illustrator 28.0.0, SVG Export Plug-In . SVG Version: 6.00 Build 0)  -->
<svg version="1.1" id="Layer_1" xmlns="http://www.w3.org/2000/svg" xmlns:xlink="http://www.w3.org/1999/xlink" x="0px" y="0px"
	 viewBox="0 0 938.4 106.9" style="enable-background:new 0 0 938.4 106.9;" xml:space="preserve">
<style type="text/css">
	.st0{fill:#E0DFE0;}
	.st1{fill:#B8BBC2;}
	.st2{fill:#0A1739;}
	.st3{fill:#801619;}
	.st4{fill:#BDB5AB;}
	.st5{clip-path:url(#SVGID_00000014634611878254265870000000645407512462484652_);}
</style>
<g>
	<path class="st2" d="M4.1,103.1L6,3.5h13.6l17.6,80.8L54.9,3.5h13.5l1.8,99.6H59.1L58,30.8l-16.8,72.3h-7.9L16.6,30.8l-1.1,72.3
		H4.1z"/>
	<path class="st2" d="M101.3,104.1c-2.8,0-5.2-0.8-7.4-2.4c-2.1-1.6-3.8-3.6-5-6.1c-1.2-2.5-1.8-5.1-1.8-7.9c0-4.4,0.7-8.2,2.2-11.2
		c1.5-3,3.5-5.6,6.1-7.7c2.6-2.1,5.6-3.9,9-5.5c3.4-1.6,7-3.1,10.8-4.5v-5c0-2.9-0.2-5.2-0.5-7.1c-0.3-1.9-1-3.3-2-4.2
		c-1-0.9-2.6-1.4-4.6-1.4c-1.8,0-3.3,0.4-4.4,1.2c-1.1,0.8-1.9,2-2.4,3.5c-0.5,1.5-0.7,3.3-0.7,5.3v3.6l-13-0.5
		c0.2-7.9,2-13.7,5.4-17.4c3.4-3.7,8.8-5.6,16-5.6c7,0,12,1.9,15,5.8c3,3.9,4.4,9.4,4.4,16.7V86c0,2.2,0.1,4.3,0.2,6.4
		c0.1,2,0.3,4,0.5,5.7c0.2,1.8,0.4,3.4,0.6,5h-12c-0.2-1.3-0.6-3-0.9-5c-0.4-2-0.6-3.8-0.8-5.5c-0.8,2.8-2.4,5.4-4.7,7.8
		C108.6,102.9,105.4,104.1,101.3,104.1z M106.4,92.8c1.3,0,2.5-0.4,3.7-1.1c1.1-0.7,2.2-1.6,3.1-2.5c0.9-0.9,1.5-1.7,1.8-2.3V66.7
		c-2,1.1-4,2.3-5.8,3.4c-1.8,1.1-3.4,2.4-4.7,3.6c-1.4,1.3-2.4,2.7-3.2,4.3c-0.8,1.6-1.2,3.4-1.2,5.5c0,2.9,0.5,5.1,1.6,6.8
		C102.8,92,104.4,92.8,106.4,92.8z"/>
	<path class="st2" d="M163.5,104.1c-5.8,0-10.5-1.8-14-5.5c-3.5-3.6-5.5-8.5-6-14.4l10.9-3.3c0.7,4.5,1.8,7.9,3.3,10.1
		c1.6,2.3,3.9,3.4,6.9,3.4c2.4,0,4.2-0.7,5.4-2s1.8-3.2,1.8-5.5c0-2-0.5-3.9-1.4-5.5c-0.9-1.6-2.4-3.3-4.4-5l-12.2-10.5
		c-2.5-2.1-4.5-4.5-6.2-7.1c-1.7-2.6-2.5-6-2.5-10.2c0-3.8,0.8-6.9,2.3-9.5c1.5-2.6,3.6-4.5,6.4-5.9c2.7-1.4,6-2,9.7-2
		c5.9,0,10.4,1.8,13.5,5.5c3.1,3.6,4.9,8.1,5.4,13.2l-9.3,3.3c-0.3-2.5-0.8-4.6-1.5-6.5c-0.7-1.8-1.6-3.3-2.8-4.3
		c-1.2-1-2.8-1.5-4.8-1.5c-2.1,0-3.8,0.7-5.1,2.2c-1.3,1.4-1.9,3.1-1.9,5.1c0,1.2,0.3,2.4,0.8,3.6c0.5,1.2,1.5,2.4,2.8,3.5
		l12.5,11.6c1.7,1.6,3.3,3.2,4.9,5c1.5,1.8,2.8,3.9,3.8,6.1c1,2.3,1.5,5,1.5,8c0,4-0.8,7.4-2.5,10.1c-1.6,2.7-3.9,4.7-6.9,6.1
		S167.4,104.1,163.5,104.1z"/>
	<path class="st2" d="M218.1,104.1c-3.7,0-6.7-0.7-8.9-2.1c-2.3-1.4-3.9-3.4-4.9-5.9c-1-2.5-1.5-5.5-1.5-9V40.8h-7.5v-8.7h7.5V11.3
		h13.2v20.8h11.4v8.7h-11.4v45.5c0,2.8,0.4,4.8,1.4,6c0.9,1.2,2.6,1.8,5.2,1.8c0.7,0,1.4,0,2.3-0.1c0.9-0.1,1.7-0.2,2.5-0.2v9.7
		c-1.6,0.2-3.2,0.4-4.5,0.6C221.2,104.1,219.7,104.1,218.1,104.1z"/>
	<path class="st2" d="M262.8,104.1c-5.6,0-9.9-1.1-12.9-3.3c-3-2.2-5.1-5.4-6.3-9.6c-1.2-4.2-1.8-9.4-1.8-15.6V59.5
		c0-6.3,0.6-11.6,1.8-15.7c1.2-4.2,3.4-7.3,6.5-9.5c3.1-2.1,7.3-3.2,12.7-3.2c6,0,10.4,1.2,13.2,3.7s4.7,6,5.6,10.6
		c0.9,4.6,1.4,10.2,1.4,16.7v5.8h-28v14.3c0,2.9,0.3,5.2,0.8,7c0.5,1.8,1.4,3.1,2.6,4c1.2,0.9,2.7,1.3,4.6,1.3c2,0,3.5-0.5,4.5-1.4
		c1-0.9,1.7-2.3,2.1-4.1c0.4-1.8,0.6-3.8,0.6-6.2v-4.3h12.8v2.7c0,7.1-1.5,12.7-4.5,16.8C275.3,102.1,270.1,104.1,262.8,104.1z
		 M255,60.7h15.1v-6.4c0-3-0.2-5.4-0.5-7.4c-0.3-2-1-3.5-2-4.5c-1-1-2.6-1.5-4.9-1.5c-2.1,0-3.8,0.5-4.9,1.5c-1.1,1-1.9,2.6-2.3,5
		c-0.4,2.3-0.6,5.6-0.6,9.7V60.7z"/>
	<path class="st2" d="M301.4,103.1V32.1h13.2v10.1c2.6-4.3,5.2-7.3,7.9-8.7c2.6-1.5,5.2-2.2,7.9-2.2c0.3,0,0.6,0,0.9,0
		c0.3,0,0.7,0,1.2,0.1v14.5c-1-0.4-2.1-0.8-3.4-1c-1.3-0.3-2.6-0.4-3.9-0.4c-2,0-3.9,0.5-5.6,1.4c-1.7,0.9-3.3,2.8-5,5.5v51.9H301.4
		z"/>
	<path class="st2" d="M397.3,103.1V68L375.8,3.5h12.9L404,51.6l15-48.1h13L410.6,68v35.2H397.3z"/>
	<path class="st2" d="M458.4,104.1c-5.2,0-9.4-1.1-12.4-3.2c-3-2.1-5.2-5.2-6.5-9.1c-1.3-3.9-1.9-8.6-1.9-13.9V57.3
		c0-5.3,0.6-10,1.9-13.9c1.3-3.9,3.4-7,6.5-9.1c3-2.1,7.2-3.2,12.4-3.2c5.2,0,9.4,1.1,12.4,3.2c3,2.1,5.1,5.2,6.4,9.1
		c1.3,3.9,1.9,8.6,1.9,13.9v20.7c0,5.3-0.6,10-1.9,13.9c-1.3,3.9-3.4,7-6.4,9.1C467.8,103.1,463.7,104.1,458.4,104.1z M458.4,94.4
		c2.5,0,4.3-0.7,5.3-2.2c1-1.5,1.6-3.4,1.8-5.8c0.2-2.4,0.3-4.9,0.3-7.6V56.5c0-2.7-0.1-5.2-0.3-7.6c-0.2-2.4-0.8-4.3-1.8-5.8
		c-1-1.5-2.8-2.3-5.3-2.3c-2.5,0-4.3,0.8-5.4,2.3c-1.1,1.5-1.7,3.5-1.9,5.8c-0.2,2.4-0.3,4.9-0.3,7.6v22.3c0,2.6,0.1,5.1,0.3,7.6
		c0.2,2.4,0.8,4.4,1.9,5.8C454.1,93.7,455.9,94.4,458.4,94.4z"/>
	<path class="st2" d="M507.5,104.1c-2.8,0-5-0.7-6.5-2.2c-1.6-1.5-2.6-3.3-3.3-5.5c-0.6-2.2-0.9-4.5-0.9-6.8V32.1H510v53.6
		c0,2.5,0.4,4.5,1.1,6c0.7,1.4,2.3,2.2,4.5,2.2c1.5,0,3-0.4,4.6-1.3c1.6-0.9,3.1-1.9,4.6-3.1V32.1H538v71.1h-13.2v-7
		c-2.3,2.2-4.9,4.1-7.8,5.7C514.1,103.3,510.9,104.1,507.5,104.1z"/>
	<path class="st2" d="M557.9,103.1V32.1h13.2v10.1c2.6-4.3,5.2-7.3,7.9-8.7c2.6-1.5,5.2-2.2,7.9-2.2c0.3,0,0.6,0,0.9,0
		c0.3,0,0.7,0,1.2,0.1v14.5c-1-0.4-2.1-0.8-3.4-1c-1.3-0.3-2.6-0.4-3.9-0.4c-2,0-3.9,0.5-5.6,1.4c-1.7,0.9-3.3,2.8-5,5.5v51.9H557.9
		z"/>
	<path class="st2" d="M663.5,104.2c-7,0-12.5-1.5-16.4-4.4c-3.9-3-6.6-6.9-8.1-11.9c-1.5-5-2.3-10.6-2.3-16.7V36
		c0-6.7,0.8-12.6,2.3-17.6c1.5-5,4.2-8.9,8.1-11.6c3.9-2.7,9.4-4.1,16.4-4.1c6.2,0,11.2,1.1,14.8,3.4c3.6,2.3,6.3,5.6,7.9,9.8
		c1.6,4.3,2.4,9.4,2.4,15.4v7.9h-13.2v-7c0-3.7-0.2-6.9-0.6-9.8c-0.4-2.8-1.4-5-3-6.6c-1.6-1.6-4.4-2.3-8.2-2.3
		c-3.9,0-6.8,0.8-8.6,2.5c-1.8,1.7-3,4.1-3.5,7.1c-0.5,3.1-0.8,6.7-0.8,10.8v39.5c0,5,0.4,9,1.2,11.9c0.8,2.9,2.2,5,4.1,6.2
		c1.9,1.2,4.4,1.8,7.6,1.8c3.8,0,6.5-0.8,8.1-2.5c1.6-1.7,2.7-4,3.1-6.9c0.4-3,0.6-6.4,0.6-10.3v-7.4h13.2v7.4
		c0,6.1-0.7,11.4-2.2,16c-1.5,4.6-4,8.2-7.6,10.8C675.2,102.9,670.1,104.2,663.5,104.2z"/>
	<path class="st2" d="M708.2,103.1V3.5h13.2v99.6H708.2z"/>
	<path class="st2" d="M751.9,104.1c-2.8,0-5.2-0.8-7.4-2.4c-2.1-1.6-3.8-3.6-5-6.1c-1.2-2.5-1.8-5.1-1.8-7.9c0-4.4,0.7-8.2,2.2-11.2
		c1.5-3,3.5-5.6,6.1-7.7c2.6-2.1,5.6-3.9,9-5.5c3.4-1.6,7-3.1,10.8-4.5v-5c0-2.9-0.2-5.2-0.5-7.1c-0.3-1.9-1-3.3-2-4.2
		c-1-0.9-2.6-1.4-4.6-1.4c-1.8,0-3.3,0.4-4.4,1.2c-1.1,0.8-1.9,2-2.4,3.5c-0.5,1.5-0.7,3.3-0.7,5.3v3.6l-13-0.5
		c0.2-7.9,2-13.7,5.4-17.4c3.4-3.7,8.8-5.6,16-5.6c7,0,12,1.9,15,5.8c3,3.9,4.4,9.4,4.4,16.7V86c0,2.2,0.1,4.3,0.2,6.4
		c0.1,2,0.3,4,0.5,5.7c0.2,1.8,0.4,3.4,0.6,5h-12c-0.2-1.3-0.6-3-0.9-5c-0.4-2-0.6-3.8-0.8-5.5c-0.8,2.8-2.4,5.4-4.7,7.8
		C759.2,102.9,756,104.1,751.9,104.1z M757.1,92.8c1.3,0,2.5-0.4,3.7-1.1c1.1-0.7,2.2-1.6,3.1-2.5c0.9-0.9,1.5-1.7,1.8-2.3V66.7
		c-2,1.1-4,2.3-5.8,3.4c-1.8,1.1-3.4,2.4-4.7,3.6c-1.4,1.3-2.4,2.7-3.2,4.3c-0.8,1.6-1.2,3.4-1.2,5.5c0,2.9,0.5,5.1,1.6,6.8
		C753.5,92,755,92.8,757.1,92.8z"/>
	<path class="st2" d="M798.5,21.5V7.7h13.2v13.8H798.5z M798.5,103.1V32.1h13.2v71.1H798.5z"/>
	<path class="st2" d="M832,103.1V32.1h12.2v6.8c2.4-2.7,5-4.7,7.9-6c2.9-1.3,5.8-2,8.9-2c2.6,0,5,0.7,7.1,2c2.1,1.3,3.6,3.6,4.5,7
		c2.5-3.1,5.3-5.4,8.3-6.8c3-1.4,6.1-2.2,9.4-2.2c2.3,0,4.4,0.6,6.3,1.7c1.9,1.1,3.4,2.9,4.5,5.3c1.1,2.4,1.7,5.6,1.7,9.5v55.8h-12
		v-55c0-3.4-0.6-5.8-1.7-6.9c-1.1-1.2-2.6-1.8-4.5-1.8c-1.8,0-3.7,0.5-5.7,1.5c-2,1-3.8,2.4-5.4,4.2c0,0.3,0,0.7,0,1
		c0,0.3,0,0.7,0,1.1v55.8h-12v-55c0-3.4-0.6-5.8-1.7-6.9c-1.1-1.2-2.6-1.8-4.5-1.8c-1.8,0-3.7,0.5-5.6,1.5c-1.9,1-3.8,2.4-5.5,4.2
		v57.9H832z"/>
	<path class="st2" d="M921.1,103.1V88.5h13.2v14.6H921.1z"/>
</g>
</svg>
