<?xml version="1.0" encoding="utf-8"?>
<!-- Generator: Adobe Illustrator 28.0.0, SVG Export Plug-In . SVG Version: 6.00 Build 0)  -->
<svg version="1.1" id="Layer_1" xmlns="http://www.w3.org/2000/svg" xmlns:xlink="http://www.w3.org/1999/xlink" x="0px" y="0px"
	 viewBox="0 0 187.5 203.2" style="enable-background:new 0 0 187.5 203.2;" xml:space="preserve">
<style type="text/css">
	.st0{fill:#E0DFE0;}
	.st1{fill:#B8BBC2;}
	.st2{fill:#0A1739;}
	.st3{fill:#801619;}
	.st4{fill:#BDB5AB;}
	.st5{clip-path:url(#SVGID_00000130620680950254623450000014936146404650722468_);}
</style>
<g>
	<g>
		<path class="st0" d="M148.3,79.9L148.3,79.9C148.3,79.9,148.3,79.9,148.3,79.9C148.3,79.9,148.3,79.9,148.3,79.9z"/>
		<g>
			<path class="st0" d="M149.7,91.8c-0.1-2-0.3-4-0.6-5.9c-0.4-2.3-2-4.2-4.2-4.9l-5.6-1.7c0,0,5.3,0.4,7.7,0.6
				c0.5,0,0.8-0.4,0.7-0.9c-0.6-1.8-1.3-5.4-1.9-6.8c-1.8-5.6-4.1-12.8-5.8-18.5c-8.9-0.7-17.8-2.6-26.2-5.5
				c2.3,7.7,6.1,18.9,1.4,29.2c-0.3,0.8-2,3.2-4,4.4c-1.9,1.1-4.3,0.2-5.1-1.8c-1-2.6-0.8-6.3-1.5-8.7c-1.1-8.2-8-9-4.6-11.5
				c-7.7-0.7-27.1-1.6-23.4,8.9c6.4-6.6,10.3,6.5,6.2,11.2c-1.2,1.7-3.1,2.6-5.1,2.4c-1.4-0.1-2.7-0.8-3.8-1.8
				c-7.7-7.1-5-22.2-1.2-32.3c-8.3,2.8-17,4.6-25.7,5.3c-1.9,5.6-4.1,12.9-5.9,18.5c-3.2,9.5-2.7,7.5,6.1,7.1
				c-1.6,0.9-9.2,1.8-9.4,4.2c-0.6,4.2-2,11-0.8,15c0.3-0.1,16.1-6.1,16.4-6.2c-0.3,0.2-10.8,5.8-14.7,7.9c-0.9,0.5-1.4,1.5-1.3,2.5
				c0.9,5.3,4,11.9,6.8,16.3l0.5-0.4l10.3-8.9c-13,15.6-12.6,8.3,0.6,22.3c2-3.2,7.2-9.9,9.6-13c-0.5,1-6.3,11.5-7.8,14.5
				c-0.4,0.8,10.6,6.9,11.9,7.4c0.2,0.2,13-17.2,13.2-17.2l-8.7,19.7l-0.3,0.6c-0.4,0.9,17.7,7.9,19.5,8.5c2-0.5,19.3-7.3,19.5-8.5
				c-0.2-0.4-7.8-19.9-8-20.3c0.3,0.5,11.5,17.5,11.6,17.5c0,0.1,0.9-0.3,2-0.9c3.6-2,10.7-6.5,10.5-6.8l-0.3-0.5l-7.6-14.1
				c2.4,3.1,7.6,9.8,9.7,13c3.8-3.4,7.4-7.2,10.4-11.4c-2.2-2.3-7.6-8.3-9.7-10.9c0.2,0.2,10.6,9.2,10.8,9.3
				c3.2-4.8,5.6-10.3,6.7-15.9c0.2-1.2-0.3-2.4-1.4-3L133,92.3l16.4,6.2C150.3,97.1,149.6,92.4,149.7,91.8z M79.8,64.6
				c-0.1,0-0.2,0-0.3,0c3.2-2.6,11.1-2.9,17-2.5c5.5,6.8,5.8,8.3,7.1,17.2l0,0c0,0.1,0,1.8,0,1.9c-0.9-0.4-1.6-0.1-2.1,0.7
				c-0.3,0.1-0.8,1.2-1.2,0.9c-0.9-0.5-4.8-2.6-5.6-3c-1.2-0.1-6.3,2.8-7.6,3.2c-0.7,0.3-1.5-1.1-2.1-1.4
				C88.4,75.5,87.7,65.1,79.8,64.6z M99.6,108.2c0.8,3,1.7,6.1,3,10.5c-3.5-2.4-6.1-4.2-8.9-6.2c-2.8,1.9-5.6,3.6-9.2,6
				c1.2-4.1,2.1-7.2,3-10.4c-2.6-2.1-5-4-8.4-6.7h10.6c1.3-3.4,2.4-6.4,3.9-10.5c0.9,2.5,1.5,4,2,5.5c0.5,1.4,0.9,2.8,1.5,4.6
				c3.2,0.2,6.4,0.4,10.6,0.6C104.7,104.1,102.4,106,99.6,108.2z"/>
			<path class="st0" d="M122.5,163.5c0.2,0,0.4,0,0.6,0.1c0,0-0.1-0.1-0.1-0.1C122.9,163.5,122.7,163.5,122.5,163.5z"/>
			<path class="st0" d="M122.2,163.6c0.1,0,0.3,0,0.4,0C122.3,163.5,122.2,163.5,122.2,163.6z"/>
			<path class="st0" d="M63.5,163.6c0.2,0,0.4-0.1,0.6-0.1c-0.2,0-0.3,0-0.5,0C63.6,163.5,63.6,163.6,63.5,163.6z"/>
			<path class="st0" d="M64.1,163.5c0.1,0,0.2,0,0.4,0C64.5,163.5,64.3,163.5,64.1,163.5z"/>
			<path class="st0" d="M88.3,66.2c0.1,0,0.1,0,0.2,0c0.8-0.1,1.3-0.8,1.1-1.6c-0.1-0.6-0.7-0.9-1.2-0.9h-0.1
				c-0.7,0-1.2,0.6-1.3,1.3c0,0.4,0.1,0.7,0.4,0.9C87.6,66.1,88,66.2,88.3,66.2z"/>
		</g>
		<path class="st0" d="M93.7,47h-0.1C93.6,47,93.6,47,93.7,47C93.6,47,93.6,47,93.7,47z"/>
		<path class="st0" d="M166.6,111.9L166.6,111.9c0.2,1.6,1.8,2.7,3.4,2.3c15.6-3.7,16.2-17,16-21.2c-0.1-1.5-1.3-2.7-2.8-2.7
			c-0.2,0-0.4,0-0.6,0c-9.7,0-15.7,3.5-19.3,7.3c0.1-0.8,0.3-1.7,0.4-2.5c1-6.9,0.7-13.9-0.7-20.2c0.1-1.1,1.2-11.5,14-17.1
			c0.6-0.3,1.4,0,1.7,0.6c1.2,2,2.7,5.7,1.8,10c-1,4.7-4.8,9-11.1,12.8l0,0c0.8,1.4,2.7,1.8,4,0.9c5.6-3.8,8.9-8.2,10-13
			c1.4-6.2-1.5-11.3-2.8-13.3c-0.8-1.1-2.2-1.5-3.4-1.1c-9.8,3.8-13.9,10.1-15.7,14.6c-1.1-3-2.6-5.8-4.1-8.6c-2-3.7-3.8-7.1-4.9-11
			c-1.2-4.6-0.6-9.8,1.8-14.7c1.7-3.5,4.1-6,4.1-6c0.9-0.9,1.8-1.8,2.8-2.5c0.6-0.4,1.4-0.3,1.9,0.3c1.8,2.4,4,6.4,3.9,11.8
			c-0.2,7.6-4.9,12.3-6.3,13.6v0c1.1,1.2,3,1.2,4.1,0c2.2-2.6,5-7.2,5.2-13.5c0.2-7.2-3.3-12.4-5.4-14.8c-0.9-1.1-2.5-1.3-3.7-0.5
			c-1.6,1.1-3.2,2.3-4.5,3.7c-0.1,0.1-2.7,2.8-4.6,6.8c-2.7,5.5-3.4,11.5-2,16.7c1.1,4.2,3.1,7.9,5.1,11.6c1.7,3.2,3.4,6.4,4.5,9.8
			c2.2,7,2.8,14.9,1.7,22.8c-0.5,3.7-1.3,7.2-2.3,10.7c-0.3,0.8-0.4,1.2-0.4,1.2l0,0c-2.7,8.8-7,16.9-12.5,23.7c0,0,0,0,0,0l0,0
			c-4.8,5.9-10.4,10.9-16.8,14.7c-3.7,2.2-7.9,3.7-12,5.2c-2.4,0.9-4.9,1.8-7.3,2.9c-3.5,1.5-6.5,3.1-9,4.9
			c-0.9,0.6-2.4,1.8-4.1,3.3c-0.7,0.6-1.3,1.1-1.9,1.7c-0.4,0.4-1,0.4-1.4,0c-0.6-0.5-1.2-1.1-1.9-1.7c-1.7-1.5-3.2-2.7-4.1-3.3
			c-2.5-1.7-5.5-3.3-9-4.9c-2.4-1.1-4.9-2-7.3-2.9c-4.1-1.5-8.3-3-12-5.2c-6.4-3.7-12-8.7-16.8-14.7l0,0c0,0,0,0,0,0
			c-5.5-6.8-9.8-14.9-12.5-23.7l0,0c0,0-0.1-0.5-0.4-1.2c-1-3.5-1.8-7.1-2.3-10.7c-1.1-7.9-0.6-15.8,1.7-22.8
			c1.1-3.4,2.8-6.7,4.5-9.8c2-3.7,4-7.5,5.1-11.6c1.4-5.3,0.7-11.2-2-16.7c-1.9-3.9-4.5-6.6-4.6-6.8c-1.3-1.4-2.9-2.7-4.5-3.7
			c-1.2-0.8-2.8-0.5-3.7,0.5c-2.1,2.4-5.6,7.5-5.4,14.8c0.1,4.7,1.9,9.2,5.2,13.3c1,1.3,3,1.4,4.2,0.3l0,0
			c-4.2-4.3-6.3-8.9-6.4-13.7c-0.1-5.4,2.1-9.4,3.8-11.8c0.4-0.6,1.3-0.7,1.9-0.3c1,0.8,2,1.6,2.9,2.6c0,0,2.4,2.5,4.1,6
			c2.4,4.9,3,10.1,1.8,14.7c-1,3.8-2.9,7.3-4.9,11c-1.5,2.7-3,5.6-4.1,8.6c-1.8-4.6-5.9-10.8-15.7-14.6c-1.2-0.5-2.6,0-3.4,1.1
			C5.8,57.6,3,62.8,4.3,69c1.1,4.8,4.4,9.2,10,13c1.3,0.9,3.2,0.5,4-0.9h0C12,77.3,8.2,73,7.2,68.3c-0.9-4.2,0.6-7.9,1.7-9.9
			c0.3-0.6,1.1-0.9,1.7-0.6c6.3,2.7,9.8,6.6,11.7,9.9c1.8,3.1,2.3,6.8,1.7,10.3c-0.9,5.5-0.9,11.2-0.1,17c0.1,0.9,0.3,1.7,0.4,2.5
			c-3.7-3.9-9.8-7.5-19.9-7.3c-1.5,0-2.7,1.2-2.8,2.7c-0.2,4.2,0.4,17.5,16,21.2c1.6,0.4,3.2-0.7,3.4-2.3l0,0
			C6.7,109.8,4.6,100,4.4,94.6c0-0.8,0.6-1.4,1.4-1.4c10.2,0.2,15.5,4.7,18.2,8.5c1.2,1.6,2,3.5,2.6,5.4c2.1,6.8,5,13.2,8.7,18.9
			c-6-3-15-5.3-22.5,1.9c-1.1,1-1.2,2.7-0.3,3.8c2.2,3,9.1,11,18.2,11c1.4,0,2.9-0.2,4.4-0.6c1.6-0.5,2.5-2.3,1.7-3.8l0,0
			c-9.7,4.8-17.9-3.4-21.1-7.3c-0.5-0.6-0.4-1.4,0.2-1.8c5.5-4.5,11.8-3.4,16.6-1.4c3.7,1.6,7,4.1,9.7,7.1c4.5,5,9.6,9.3,15.2,12.6
			c0.1,0.1,0.3,0.2,0.4,0.2c-5.8,0.5-13.2,3.2-19,12.5c-0.8,1.3-0.4,3.1,0.9,3.9c1.9,1.3,6.4,3.7,12.1,3.7c4.2,0,9.1-1.4,13.9-5.7
			c1.2-1.1,1.3-3,0.1-4.2h0c-9.3,10-18.6,7-23.2,4.4c-0.7-0.4-0.9-1.3-0.4-1.9c9.9-14.3,23.5-9.1,24.2-8.9c1.2,0.4,2.3,0.9,3.5,1.3
			c2.4,0.9,4.8,1.8,7.1,2.8c3.4,1.5,6.1,3,8.5,4.6c0.8,0.5,2.2,1.7,3.9,3.1c0.6,0.6,1.2,1.1,1.8,1.6c0.8,0.7,1.7,1,2.7,1
			c1,0,1.9-0.3,2.7-1c0.5-0.5,1.1-1,1.8-1.6c1.6-1.4,3.1-2.6,3.9-3.1c2.4-1.6,5.2-3.1,8.5-4.6c2.3-1,4.8-1.9,7.2-2.8
			c1.2-0.4,2.3-0.9,3.5-1.3v0c0.6-0.2,14.3-5.5,24.2,8.9c0.4,0.7,0.2,1.5-0.4,1.9c-4.6,2.6-13.9,5.6-23.2-4.4l0,0
			c-1.2,1.1-1.2,3.1,0.1,4.2c4.9,4.3,9.7,5.7,13.9,5.7c5.7,0,10.2-2.5,12.1-3.7c1.3-0.8,1.7-2.6,0.9-3.9c-5.8-9.3-13.2-12-19-12.5
			c0.1-0.1,0.3-0.2,0.4-0.2c6.6-3.9,12.5-9.1,17.4-15.2c1.8-1.5,14.2-11.2,24.1-3.2c0.6,0.5,0.7,1.3,0.2,1.8
			c-3.2,4-11.5,12.2-21.1,7.4l0,0c-0.8,1.5,0.1,3.3,1.7,3.8c1.5,0.4,3,0.6,4.4,0.6c9.1,0,15.9-8.1,18.2-11c0.9-1.2,0.7-2.8-0.3-3.8
			c-7.5-7.2-16.5-4.9-22.5-1.9c3.9-6.1,7-12.9,9.1-20.2c1.2-3.5,5.8-12.3,20.3-12.7c0.8,0,1.4,0.6,1.4,1.4
			C183,100,180.8,109.8,166.6,111.9z"/>
		<path class="st0" d="M61.4,33.9c0.8-2.7,1.4-4.7,2-6.8c-1.7-1.4-3.3-2.6-5.5-4.4c2.8,0,4.8,0,6.9,0c0.8-2.2,1.6-4.2,2.6-6.9
			c0.6,1.6,1,2.6,1.3,3.6c0.3,0.9,0.6,1.9,1,3c2.1,0.1,4.2,0.2,7,0.4c-1.9,1.6-3.5,2.8-5.2,4.3c0.6,2,1.1,4,2,6.9
			c-2.3-1.6-4-2.8-5.9-4.1C65.6,31.1,63.8,32.3,61.4,33.9z"/>
		<path class="st0" d="M113.6,33.9c0.8-2.7,1.4-4.7,2-6.8c-1.7-1.4-3.3-2.6-5.5-4.4c2.8,0,4.8,0,6.9,0c0.8-2.2,1.6-4.2,2.6-6.9
			c0.6,1.6,1,2.6,1.3,3.6c0.3,0.9,0.6,1.9,1,3c2.1,0.1,4.2,0.2,7,0.4c-1.9,1.6-3.5,2.8-5.2,4.3c0.6,2,1.1,4,2,6.9
			c-2.3-1.6-4-2.8-5.9-4.1C117.8,31.1,116,32.3,113.6,33.9z"/>
		<path class="st0" d="M87.5,19.8c0.8-2.7,1.4-4.7,2-6.8c-1.7-1.4-3.3-2.6-5.5-4.4c2.8,0,4.8,0,6.9,0c0.8-2.2,1.6-4.2,2.6-6.9
			c0.6,1.6,1,2.6,1.3,3.6c0.3,0.9,0.6,1.9,1,3c2.1,0.1,4.2,0.2,7,0.4c-1.9,1.6-3.5,2.8-5.2,4.3c0.6,2,1.1,4,2,6.9
			c-2.3-1.6-4-2.8-5.9-4.1C91.7,17.1,89.9,18.3,87.5,19.8z"/>
		<g>
			<g>
				<path class="st0" d="M93.8,201.5c-0.7,0-1.2-0.4-1.4-1.1c-2.2-7.7-9.3-13.1-17.3-13.1H3c-0.8,0-1.5-0.7-1.5-1.5l0,0
					c0-0.8,0.7-1.5,1.5-1.5h72c6.4,0,12.3,2.9,16.2,7.7c1.3,1.6,3.7,1.6,5,0c3.9-4.7,9.8-7.7,16.2-7.7h72c0.8,0,1.5,0.7,1.5,1.5l0,0
					c0,0.8-0.7,1.5-1.5,1.5h-72c-8,0-15.1,5.4-17.3,13.1C95,201.1,94.4,201.5,93.8,201.5z"/>
			</g>
		</g>
	</g>
</g>
</svg>
