<svg xmlns="http://www.w3.org/2000/svg" xmlns:xlink="http://www.w3.org/1999/xlink" width="500" zoomAndPan="magnify" viewBox="0 0 375 374.999991" height="500" preserveAspectRatio="xMidYMid meet" version="1.0"><defs><filter x="0%" y="0%" width="100%" height="100%" id="b0532a675c"><feColorMatrix values="0 0 0 0 1 0 0 0 0 1 0 0 0 0 1 0 0 0 1 0" color-interpolation-filters="sRGB"/></filter><g/><clipPath id="6f9e9855e4"><path d="M -144.5 332.125 L 317.195312 -124.449219 L 409.546875 -31.066406 L -52.152344 425.511719 Z M -144.5 332.125 " clip-rule="nonzero"/></clipPath><mask id="157f8e45dd"><g filter="url(#b0532a675c)"><rect x="-37.5" width="450" fill="#000000" y="-37.499999" height="449.999989" fill-opacity="0.47"/></g></mask><clipPath id="bd283e59e8"><path d="M 0 0 L 375 0 L 375 375 L 0 375 Z M 0 0 " clip-rule="nonzero"/></clipPath><clipPath id="25b3f8cf16"><rect x="0" width="375" y="0" height="375"/></clipPath></defs><g clip-path="url(#6f9e9855e4)"><path fill="#80030e" d="M -144.5 332.125 L 317.320312 -124.574219 L 409.671875 -31.1875 L -52.152344 425.511719 Z M -144.5 332.125 " fill-opacity="1" fill-rule="nonzero"/></g><path stroke-linecap="butt" transform="matrix(0.535195, -0.52542, 0.52542, 0.535195, -76.223405, 294.313193)" fill="none" stroke-linejoin="miter" d="M 185.75949 27.405977 L 208.789295 27.403672 C 214.825736 27.403287 219.338423 29.111127 222.331074 32.530839 C 225.320008 35.946903 226.816534 40.875703 226.816936 47.313591 C 226.814536 54.646475 225.078881 59.737651 221.606321 62.590834 C 218.148492 65.443882 213.281652 66.86986 207.009519 66.872417 L 200.910439 66.869697 L 200.910024 95.998582 L 185.758141 95.998263 Z M 205.994888 56.285764 C 208.642981 56.287141 210.400643 55.582221 211.267944 54.17837 C 212.153488 52.755935 212.592002 50.383722 212.594567 47.065311 C 212.592143 44.004757 212.166209 41.747318 211.309331 40.285696 C 210.467048 38.809207 208.670336 38.074432 205.915412 38.070357 L 200.913909 38.072253 L 200.912366 56.288407 Z M 253.744682 97.010655 C 246.341861 97.012584 241.06499 95.109221 237.906772 91.308002 C 234.752066 87.488335 233.175437 81.860502 233.176819 74.417138 L 233.173939 48.927091 C 233.175184 41.468996 234.755131 35.867318 237.910064 32.118408 C 241.064861 28.354768 246.34367 26.471984 253.742843 26.473772 C 261.200938 26.475018 266.521934 28.370607 269.705829 32.160541 C 272.90432 35.935608 274.502705 41.52641 274.500917 48.925582 L 274.503797 74.415629 C 274.502416 81.858994 272.900644 87.490337 269.705846 91.309591 C 266.521927 95.11033 261.202778 97.011901 253.744682 97.010655 Z M 253.745048 86.259962 C 255.895944 86.262238 257.307298 85.545778 257.982827 84.114229 C 258.65822 82.66795 258.997352 80.701784 258.996573 78.219446 L 258.994124 45.182919 C 258.996519 42.645307 258.657968 40.67802 257.982051 39.269975 C 257.309715 37.850848 255.896275 37.142005 253.745379 37.13973 C 251.719763 37.143665 250.360035 37.867016 249.673559 39.309714 C 248.998098 40.748627 248.658831 42.700063 248.659609 45.182401 L 248.658409 78.222644 C 248.662837 80.701266 248.96821 82.665176 249.58926 84.114239 C 250.210174 85.548572 251.59422 86.265051 253.745048 86.259962 Z M 283.723719 27.405502 L 306.753524 27.403197 C 312.789965 27.402812 317.306369 29.1143 320.295303 32.530364 C 323.287953 35.950077 324.780763 40.875228 324.781165 47.313116 C 324.778766 54.646 323.04311 59.737175 319.57055 62.590359 C 316.112721 65.443407 311.245882 66.869385 304.973749 66.871942 L 298.878385 66.87287 L 298.877969 96.001756 L 283.72237 95.997788 Z M 303.962834 56.288938 C 306.60721 56.286666 308.364873 55.581746 309.232173 54.177894 C 310.117717 52.75546 310.559948 50.386896 310.558797 47.064836 C 310.556373 44.004282 310.130438 41.746843 309.27356 40.285221 C 308.434994 38.812381 306.638214 38.07024 303.879641 38.069882 L 298.878138 38.071778 L 298.876595 56.287932 Z M 351.874667 97.012336 C 346.736871 97.011805 342.670535 96.18009 339.679308 94.513474 C 336.688082 92.846859 334.588237 90.391231 333.372476 87.154026 C 332.160229 83.898372 331.554947 79.764254 331.552915 74.74802 L 331.554874 27.402981 L 346.544718 27.404793 L 346.545286 77.022223 C 346.541347 79.791878 346.893152 81.998439 347.596986 83.638255 C 348.315551 85.277936 349.737374 86.097192 351.877188 86.095887 C 354.028083 86.098163 355.438487 85.278587 356.115764 83.637092 C 356.789393 81.999313 357.126285 79.790089 357.126576 77.02415 L 357.129656 27.403003 L 372.20052 27.404068 L 372.198561 74.749108 C 372.200594 79.765341 371.579437 83.899713 370.335092 87.152225 C 369.097976 90.389938 366.995497 92.843779 364.031302 94.510033 C 361.070824 96.179936 357.019828 97.012798 351.874667 97.012336 Z M 381.857352 27.403466 L 397.009235 27.403784 L 397.012867 85.746223 L 412.765063 85.744693 L 412.763798 95.998189 L 381.85972 95.999401 Z M 429.021906 27.403405 L 446.284141 27.40269 L 459.081265 95.998568 L 445.107979 96.00212 L 442.81269 81.53065 L 432.743329 81.527689 L 430.364909 96.001717 L 416.060113 96.000958 Z M 441.384713 72.450472 L 437.746118 45.697514 L 434.085008 72.45145 Z M 466.021348 27.401265 L 484.900454 27.404064 C 492.410107 27.404834 498.083131 28.73368 501.908512 31.394386 C 505.755854 34.040157 507.68132 38.755073 507.681195 45.535485 C 507.679155 50.109795 507.086629 53.754064 505.899968 56.472008 C 504.716821 59.171505 502.511752 61.283773 499.288343 62.79773 L 508.691329 95.998068 L 493.020153 95.998852 L 485.49605 65.256177 L 481.17588 65.255478 L 481.175598 95.997518 L 466.020067 96.000916 Z M 485.415683 56.535564 C 488.461507 56.533275 490.590273 55.73286 491.801982 54.134319 C 493.013555 52.521046 493.621065 50.10308 493.620797 46.87677 C 493.621682 43.775672 493.055194 41.453234 491.92505 39.913104 C 490.79842 38.354527 488.853993 37.576918 486.09542 37.576559 L 481.174936 37.577709 L 481.176532 56.534117 Z M 485.415683 56.535564 " stroke="#000000" stroke-width="3.599181" stroke-opacity="1" stroke-miterlimit="4"/><g fill="#fffefd" fill-opacity="1"><g transform="translate(70.911585, 250.763198)"><g><path d="M -33.328125 -39.390625 L -21 -51.5 C -17.757812 -54.664062 -14.441406 -56.117188 -11.046875 -55.859375 C -7.648438 -55.609375 -4.257812 -53.757812 -0.875 -50.3125 C 2.976562 -46.382812 4.722656 -42.742188 4.359375 -39.390625 C 4.003906 -36.035156 2.148438 -32.710938 -1.203125 -29.421875 L -4.453125 -26.234375 L 10.84375 -10.640625 L 2.71875 -2.671875 Z M -7.3125 -34.546875 C -5.894531 -35.941406 -5.320312 -37.25 -5.59375 -38.46875 C -5.863281 -39.695312 -6.875 -41.203125 -8.625 -42.984375 C -10.226562 -44.609375 -11.640625 -45.585938 -12.859375 -45.921875 C -14.085938 -46.265625 -15.445312 -45.707031 -16.9375 -44.25 L -19.59375 -41.640625 L -10.015625 -31.890625 Z M -7.3125 -34.546875 "/></g></g></g><g fill="#fffefd" fill-opacity="1"><g transform="translate(96.787019, 225.36033)"><g><path d="M 13.765625 -12.453125 C 9.804688 -8.554688 5.976562 -6.796875 2.28125 -7.171875 C -1.40625 -7.554688 -5.207031 -9.742188 -9.125 -13.734375 L -22.515625 -27.375 C -26.429688 -31.363281 -28.53125 -35.191406 -28.8125 -38.859375 C -29.09375 -42.523438 -27.253906 -46.304688 -23.296875 -50.203125 C -19.304688 -54.117188 -15.460938 -55.898438 -11.765625 -55.546875 C -8.078125 -55.203125 -4.285156 -53.050781 -0.390625 -49.09375 L 13 -35.453125 C 16.914062 -31.460938 19.019531 -27.609375 19.3125 -23.890625 C 19.601562 -20.179688 17.753906 -16.367188 13.765625 -12.453125 Z M 8.125 -18.203125 C 9.269531 -19.316406 9.644531 -20.441406 9.25 -21.578125 C 8.851562 -22.710938 8.003906 -23.941406 6.703125 -25.265625 L -10.65625 -42.9375 C -11.988281 -44.300781 -13.207031 -45.179688 -14.3125 -45.578125 C -15.414062 -45.972656 -16.539062 -45.613281 -17.6875 -44.5 C -18.769531 -43.425781 -19.113281 -42.328125 -18.71875 -41.203125 C -18.332031 -40.078125 -17.488281 -38.847656 -16.1875 -37.515625 L 1.171875 -19.84375 C 2.472656 -18.519531 3.671875 -17.632812 4.765625 -17.1875 C 5.859375 -16.738281 6.976562 -17.078125 8.125 -18.203125 Z M 8.125 -18.203125 "/></g></g></g><g fill="#fffefd" fill-opacity="1"><g transform="translate(123.342194, 199.290136)"><g><path d="M -33.328125 -39.390625 L -21 -51.5 C -17.757812 -54.664062 -14.441406 -56.117188 -11.046875 -55.859375 C -7.648438 -55.609375 -4.257812 -53.757812 -0.875 -50.3125 C 2.976562 -46.382812 4.722656 -42.742188 4.359375 -39.390625 C 4.003906 -36.035156 2.148438 -32.710938 -1.203125 -29.421875 L -4.453125 -26.234375 L 10.84375 -10.640625 L 2.71875 -2.671875 Z M -7.3125 -34.546875 C -5.894531 -35.941406 -5.320312 -37.25 -5.59375 -38.46875 C -5.863281 -39.695312 -6.875 -41.203125 -8.625 -42.984375 C -10.226562 -44.609375 -11.640625 -45.585938 -12.859375 -45.921875 C -14.085938 -46.265625 -15.445312 -45.707031 -16.9375 -44.25 L -19.59375 -41.640625 L -10.015625 -31.890625 Z M -7.3125 -34.546875 "/></g></g></g><g fill="#fffefd" fill-opacity="1"><g transform="translate(149.217629, 173.887269)"><g><path d="M 13.859375 -12.53125 C 11.109375 -9.832031 8.492188 -8.140625 6.015625 -7.453125 C 3.535156 -6.773438 1.117188 -6.988281 -1.234375 -8.09375 C -3.585938 -9.195312 -6.082031 -11.09375 -8.71875 -13.78125 L -33.59375 -39.125 L -25.578125 -47 L 0.5 -20.4375 C 1.957031 -18.945312 3.304688 -17.953125 4.546875 -17.453125 C 5.785156 -16.953125 6.976562 -17.265625 8.125 -18.390625 C 9.269531 -19.523438 9.59375 -20.703125 9.09375 -21.921875 C 8.601562 -23.148438 7.628906 -24.507812 6.171875 -26 L -19.90625 -52.5625 L -11.84375 -60.484375 L 13.03125 -35.140625 C 15.664062 -32.453125 17.503906 -29.910156 18.546875 -27.515625 C 19.585938 -25.117188 19.753906 -22.695312 19.046875 -20.25 C 18.335938 -17.800781 16.609375 -15.226562 13.859375 -12.53125 Z M 13.859375 -12.53125 "/></g></g></g><g fill="#fffefd" fill-opacity="1"><g transform="translate(175.863435, 147.728099)"><g><path d="M -33.328125 -39.390625 L -25.203125 -47.359375 L 5.453125 -16.125 L 13.875 -24.40625 L 19.265625 -18.921875 L 2.71875 -2.671875 Z M -33.328125 -39.390625 "/></g></g></g><g fill="#fffefd" fill-opacity="1"><g transform="translate(195.938422, 128.019744)"><g><path d="M -28.15625 -44.453125 L -18.90625 -53.546875 L 23.96875 -23.53125 L 16.5 -16.203125 L 7.671875 -22.75 L 2.265625 -17.453125 L 8.609375 -8.453125 L 0.953125 -0.9375 Z M 2.125 -26.828125 L -13.875 -39.25 L -1.765625 -23 Z M 2.125 -26.828125 "/></g></g></g><g fill="#fffefd" fill-opacity="1"><g transform="translate(220.90753, 103.50665)"><g><path d="M -33.328125 -39.390625 L -23.21875 -49.3125 C -19.195312 -53.257812 -15.460938 -55.53125 -12.015625 -56.125 C -8.566406 -56.71875 -5.0625 -55.203125 -1.5 -51.578125 C 0.90625 -49.128906 2.5 -46.863281 3.28125 -44.78125 C 4.070312 -42.707031 4.007812 -40.421875 3.09375 -37.921875 L 25.5625 -25.09375 L 17.1875 -16.875 L -3.015625 -29.359375 L -5.3125 -27.09375 L 10.84375 -10.640625 L 2.71875 -2.671875 Z M -7.640625 -33.984375 C -6.003906 -35.585938 -5.28125 -37.132812 -5.46875 -38.625 C -5.664062 -40.125 -6.613281 -41.738281 -8.3125 -43.46875 C -9.9375 -45.125 -11.460938 -46.070312 -12.890625 -46.3125 C -14.316406 -46.550781 -15.769531 -45.945312 -17.25 -44.5 L -19.859375 -41.921875 L -9.890625 -31.765625 Z M -7.640625 -33.984375 "/></g></g></g><g mask="url(#157f8e45dd)"><g transform="matrix(1, 0, 0, 1, 0, 0)"><g clip-path="url(#25b3f8cf16)"><g clip-path="url(#bd283e59e8)"><path stroke-linecap="butt" transform="matrix(0.534781, -0.525841, 0.525841, 0.534781, -32.765322, 404.158677)" fill="none" stroke-linejoin="miter" d="M 0.00212356 10.501263 L 816.757911 10.500546 " stroke="#000000" stroke-width="21" stroke-opacity="1" stroke-miterlimit="4"/></g></g></g></g></svg>