<?xml version="1.0" encoding="utf-8"?>
<!-- Generator: Adobe Illustrator 28.0.0, SVG Export Plug-In . SVG Version: 6.00 Build 0)  -->
<svg version="1.1" id="Layer_1" xmlns="http://www.w3.org/2000/svg" xmlns:xlink="http://www.w3.org/1999/xlink" x="0px" y="0px"
	 viewBox="0 0 247.1 218.1" style="enable-background:new 0 0 247.1 218.1;" xml:space="preserve">
<style type="text/css">
	.st0{fill:#E0DFE0;}
	.st1{fill:#B8BBC2;}
	.st2{fill:#0A1739;}
	.st3{fill:#801619;}
	.st4{fill:#BDB5AB;}
	.st5{clip-path:url(#SVGID_00000022557422425093728620000002776941552635703946_);}
</style>
<g>
	<g>
		<g>
			<path class="st0" d="M197.1,118.4c-0.1-2.6-0.3-5.2-0.8-7.8c-0.5-3-2.6-5.5-5.6-6.4l-7.3-2.3c0,0,6.9,0.5,10.2,0.7
				c0.6,0,1.1-0.6,0.9-1.2c-0.8-2.3-1.7-7-2.5-8.9c-2.3-7.4-5.3-16.9-7.7-24.3c-11.7-0.9-23.4-3.4-34.5-7.2c3,10.1,8,24.8,1.8,38.4
				c-0.3,1-2.6,4.2-5.2,5.8c-2.4,1.5-5.7,0.3-6.7-2.4c-1.3-3.5-1-8.2-2-11.4c-1.5-10.7-10.6-11.9-6-15.1c-10.2-1-35.6-2.1-30.8,11.7
				c8.4-8.6,13.5,8.5,8.1,14.7c-1.6,2.3-4.1,3.4-6.7,3.2c-1.9-0.1-3.6-1.1-5-2.4c-10.2-9.3-6.6-29.1-1.6-42.4
				c-10.9,3.7-22.3,6-33.8,7c-2.5,7.3-5.3,16.9-7.7,24.3c-4.2,12.4-3.6,9.9,8.1,9.3c-2.1,1.1-12,2.4-12.3,5.5
				c-0.8,5.5-2.6,14.5-1,19.7c0.4-0.2,21.2-8,21.6-8.1c-0.4,0.2-14.1,7.6-19.3,10.4c-1.2,0.6-1.9,1.9-1.7,3.3c1.1,7,5.2,15.7,9,21.4
				l0.6-0.5L73,141.7c-17.1,20.6-16.6,10.9,0.8,29.3c2.7-4.2,9.5-13,12.7-17c-0.7,1.3-8.2,15.2-10.3,19c-0.5,1,13.9,9.1,15.6,9.8
				c0.3,0.3,17.1-22.6,17.3-22.6l-11.4,26l-0.4,0.8c-0.5,1.2,23.2,10.4,25.6,11.2c2.7-0.7,25.4-9.6,25.7-11.2
				c-0.2-0.5-10.2-26.2-10.5-26.7c0.5,0.7,15.2,22.9,15.2,23c0.1,0.2,1.2-0.4,2.6-1.2c4.7-2.6,14.1-8.5,13.8-9l-0.3-0.6l-10-18.5
				c3.2,4.1,10,12.9,12.7,17.1c5-4.5,9.7-9.5,13.6-15c-2.9-3-10-10.9-12.8-14.3c0.3,0.2,13.9,12.1,14.2,12.3
				c4.2-6.3,7.3-13.5,8.8-21c0.3-1.6-0.4-3.2-1.9-3.9L175.2,119l21.6,8.1C197.8,125.3,197,119.1,197.1,118.4z M105.2,82.6
				c-0.1,0-0.2,0-0.3,0c4.2-3.4,14.5-3.8,22.4-3.3c7.2,8.9,7.6,10.9,9.3,22.6l0,0c0,0.1,0,2.3,0.1,2.5c-1.2-0.5-2.1-0.1-2.8,0.9
				c-0.3,0.2-1.1,1.5-1.6,1.1c-1.2-0.7-6.3-3.5-7.4-4c-1.6-0.2-8.3,3.7-10,4.2c-0.9,0.4-2-1.5-2.7-1.9
				C116.5,97,115.6,83.2,105.2,82.6z M131.3,139.9c1.1,3.9,2.3,8.1,3.9,13.9c-4.6-3.2-8-5.5-11.7-8.1c-3.7,2.4-7.4,4.8-12.1,7.9
				c1.5-5.3,2.7-9.4,3.9-13.6c-3.4-2.7-6.6-5.3-11.1-8.8h13.9c1.7-4.5,3.2-8.5,5.2-13.8c1.2,3.3,2,5.2,2.7,7.2c0.7,1.9,1.2,3.7,2,6
				c4.3,0.2,8.4,0.5,13.9,0.8C137.9,134.5,134.8,137,131.3,139.9z"/>
			<path class="st0" d="M116.4,84.7c0.1,0,0.2,0,0.2,0c1-0.1,1.7-1.1,1.4-2.2c-0.2-0.7-0.9-1.2-1.6-1.2h-0.1c-0.9,0-1.6,0.7-1.6,1.7
				c0,0.5,0.2,0.9,0.5,1.2C115.5,84.6,115.9,84.7,116.4,84.7z"/>
		</g>
		<path class="st0" d="M193.2,102.8L193.2,102.8C193.2,102.8,193.2,102.8,193.2,102.8C193.2,102.8,193.2,102.8,193.2,102.8z"/>
		<path class="st0" d="M216.6,143.6L216.6,143.6c0.3,2.1,2.3,3.5,4.4,3c19.9-4.8,20.7-21.7,20.4-27.1c-0.1-1.9-1.7-3.5-3.6-3.5
			c-0.3,0-0.5,0-0.8,0c-12.4,0-20,4.5-24.6,9.3c0.2-1.1,0.4-2.1,0.5-3.2c1.3-8.9,0.9-17.7-0.9-25.9c0.1-1.4,1.5-14.8,17.9-21.8
			c0.8-0.3,1.7,0,2.2,0.7c1.5,2.6,3.4,7.3,2.2,12.7c-1.3,6-6.1,11.5-14.2,16.3h0c1.1,1.8,3.4,2.3,5.1,1.2
			c7.1-4.9,11.4-10.5,12.7-16.7c1.8-7.9-1.9-14.5-3.6-16.9c-1-1.4-2.8-2-4.3-1.4c-12.5,4.8-17.8,12.9-20.1,18.7
			c-1.4-3.8-3.4-7.4-5.3-11c-2.5-4.7-4.9-9.1-6.2-14c-1.5-5.9-0.7-12.5,2.3-18.8c2.2-4.5,5.2-7.7,5.2-7.7c1.1-1.2,2.4-2.3,3.6-3.2
			c0.8-0.6,1.8-0.4,2.4,0.3c2.3,3,5.1,8.2,4.9,15c-0.2,9.7-6.3,15.8-8.1,17.4l0,0c1.4,1.6,3.9,1.6,5.2,0c2.8-3.4,6.4-9.2,6.6-17.3
			c0.2-9.2-4.2-15.8-6.9-18.9c-1.2-1.4-3.2-1.7-4.8-0.7c-2.1,1.4-4,3-5.8,4.8c-0.1,0.1-3.4,3.6-5.9,8.6c-3.4,7-4.3,14.6-2.6,21.4
			c1.4,5.3,4,10.2,6.5,14.8c2.2,4,4.4,8.2,5.8,12.5c2.8,8.9,3.6,19,2.1,29.1c-0.7,4.7-1.7,9.2-3,13.7c-0.3,1-0.5,1.6-0.5,1.6l0,0
			c-3.5,11.3-9,21.6-16,30.3c0,0-0.1,0-0.1,0l0,0c-6.1,7.6-13.3,14-21.5,18.7c-4.7,2.8-10.1,4.8-15.3,6.7c-3.1,1.1-6.3,2.3-9.3,3.7
			c-4.5,2-8.3,4-11.5,6.2c-1.1,0.8-3.1,2.3-5.3,4.2c-0.9,0.8-1.7,1.5-2.4,2.1c-0.5,0.5-1.3,0.5-1.8,0c-0.7-0.7-1.5-1.4-2.4-2.1
			c-2.2-1.9-4.1-3.4-5.3-4.2c-3.2-2.2-7-4.3-11.5-6.2c-3.1-1.3-6.3-2.5-9.3-3.7c-5.2-1.9-10.5-3.9-15.3-6.7
			c-8.1-4.8-15.4-11.2-21.5-18.7l0,0c0,0,0,0-0.1,0c-7-8.7-12.5-19.1-16-30.3l0,0c0,0-0.1-0.6-0.5-1.5c-1.3-4.5-2.3-9-3-13.7
			c-1.4-10.1-0.7-20.2,2.1-29.1c1.4-4.3,3.6-8.5,5.8-12.5c2.5-4.7,5.1-9.5,6.5-14.8c1.8-6.7,0.9-14.3-2.6-21.4
			c-2.4-5-5.7-8.5-5.9-8.6c-1.7-1.8-3.7-3.4-5.8-4.8c-1.5-1-3.6-0.7-4.8,0.7c-2.7,3.1-7.1,9.6-6.9,18.9c0.1,6,2.4,11.7,6.6,17
			c1.3,1.7,3.8,1.8,5.3,0.4v0c-5.3-5.4-8.1-11.3-8.2-17.5c-0.2-6.9,2.7-12,4.9-15c0.6-0.8,1.6-0.9,2.4-0.4c1.3,1,2.6,2.1,3.7,3.3
			c0,0,3,3.2,5.2,7.7c3,6.2,3.9,12.9,2.3,18.8c-1.3,4.9-3.7,9.3-6.2,14c-1.9,3.5-3.8,7.1-5.3,11c-2.3-5.8-7.6-13.9-20.1-18.7
			c-1.6-0.6-3.4-0.1-4.3,1.4c-1.7,2.5-5.4,9-3.6,16.9c1.4,6.2,5.6,11.7,12.7,16.7c1.7,1.2,4.1,0.6,5.1-1.2h0
			C19,99.5,14.2,94,12.9,88c-1.2-5.4,0.7-10.1,2.2-12.7c0.4-0.8,1.4-1.1,2.2-0.8c8.1,3.5,12.5,8.4,15,12.7c2.3,4,2.9,8.7,2.1,13.2
			c-1.1,7-1.2,14.4-0.1,21.8c0.2,1.1,0.4,2.2,0.5,3.2c-4.7-4.9-12.6-9.5-25.4-9.4c-1.9,0-3.5,1.6-3.6,3.5
			c-0.3,5.3,0.5,22.3,20.4,27.1c2,0.5,4.1-0.9,4.4-3l0,0c-18.2-2.6-21-15.2-21.1-22c0-1,0.8-1.8,1.8-1.8c13,0.3,19.8,6,23.2,10.9
			c1.5,2.1,2.5,4.5,3.3,6.9c2.7,8.7,6.4,16.8,11.1,24.2c-7.7-3.8-19.1-6.7-28.7,2.4c-1.4,1.3-1.5,3.4-0.4,4.9
			c2.9,3.8,11.6,14.1,23.2,14.1c1.8,0,3.7-0.2,5.6-0.8c2.1-0.6,3.2-2.9,2.2-4.9h0c-12.4,6.2-22.9-4.3-27-9.4
			c-0.6-0.7-0.5-1.8,0.3-2.4c7-5.7,15.1-4.4,21.2-1.8c4.8,2,8.9,5.3,12.4,9.1c5.7,6.4,12.3,11.8,19.5,16.1c0.2,0.1,0.4,0.2,0.5,0.3
			c-7.4,0.6-16.8,4.1-24.2,15.9c-1,1.7-0.6,3.9,1.1,5c2.4,1.6,8.2,4.8,15.5,4.8c5.4,0,11.6-1.8,17.8-7.2c1.6-1.4,1.6-3.9,0.1-5.3
			l0,0c-11.9,12.8-23.8,8.9-29.7,5.6c-0.9-0.5-1.1-1.6-0.6-2.5c12.6-18.3,30.1-11.7,30.9-11.3c1.5,0.6,3,1.1,4.5,1.7
			c3,1.1,6.2,2.3,9.1,3.6c4.3,1.9,7.8,3.8,10.9,5.9c1,0.7,2.9,2.2,5,4c0.8,0.7,1.6,1.4,2.3,2c1,0.9,2.2,1.3,3.5,1.3
			c1.2,0,2.5-0.4,3.5-1.3c0.7-0.6,1.4-1.3,2.3-2c2.1-1.8,3.9-3.3,5-4c3-2.1,6.6-4,10.9-5.9c3-1.3,6.1-2.5,9.1-3.6
			c1.5-0.5,3-1.1,4.5-1.7v0c0.8-0.3,18.2-7,30.9,11.3c0.6,0.8,0.3,2-0.6,2.5c-5.9,3.3-17.7,7.1-29.7-5.6l0,0
			c-1.5,1.4-1.5,3.9,0.1,5.3c6.2,5.5,12.4,7.2,17.8,7.2c7.2,0,13-3.2,15.5-4.8c1.7-1.1,2.1-3.3,1.1-5c-7.4-11.9-16.8-15.3-24.2-15.9
			c0.2-0.1,0.4-0.2,0.5-0.3c8.5-5,16-11.6,22.3-19.4c2.3-1.9,18.2-14.3,30.8-4.1c0.7,0.6,0.8,1.6,0.3,2.4c-4.1,5.1-14.6,15.6-27,9.4
			l0,0c-1,1.9,0.1,4.3,2.2,4.9c1.9,0.6,3.8,0.8,5.6,0.8c11.6,0,20.4-10.3,23.2-14.1c1.1-1.5,0.9-3.6-0.4-4.9
			c-9.6-9.2-21.1-6.2-28.7-2.4c5-7.8,8.9-16.5,11.6-25.8c1.6-4.4,7.5-15.8,26-16.2c1,0,1.8,0.8,1.8,1.8
			C237.5,128.4,234.8,141,216.6,143.6z"/>
		<path class="st0" d="M82.2,43.9c1-3.4,1.7-6,2.5-8.7c-2.2-1.7-4.2-3.4-7.1-5.6c3.5,0,6.1,0,8.9,0c1.1-2.9,2-5.4,3.3-8.8
			c0.8,2.1,1.3,3.3,1.7,4.6c0.4,1.2,0.8,2.4,1.3,3.8c2.7,0.2,5.4,0.3,8.9,0.5c-2.5,2-4.4,3.6-6.7,5.5c0.7,2.5,1.5,5.2,2.5,8.9
			c-2.9-2-5.1-3.6-7.5-5.2C87.6,40.4,85.3,42,82.2,43.9z"/>
		<path class="st0" d="M148.8,43.9c1-3.4,1.7-6,2.5-8.7c-2.2-1.7-4.2-3.4-7.1-5.6c3.5,0,6.1,0,8.9,0c1.1-2.9,2-5.4,3.3-8.8
			c0.8,2.1,1.3,3.3,1.7,4.6c0.4,1.2,0.8,2.4,1.3,3.8c2.7,0.2,5.4,0.3,8.9,0.5c-2.5,2-4.4,3.6-6.7,5.5c0.7,2.5,1.5,5.2,2.5,8.9
			c-2.9-2-5.1-3.6-7.5-5.2C154.2,40.4,151.9,42,148.8,43.9z"/>
		<path class="st0" d="M115.5,26c1-3.4,1.7-6,2.5-8.7c-2.2-1.7-4.2-3.4-7.1-5.6c3.5,0,6.1,0,8.9,0c1.1-2.9,2-5.4,3.3-8.8
			c0.8,2.1,1.3,3.3,1.7,4.6c0.4,1.2,0.8,2.4,1.3,3.8c2.7,0.2,5.4,0.3,8.9,0.5c-2.5,2-4.4,3.6-6.7,5.5c0.7,2.5,1.5,5.2,2.5,8.9
			c-2.9-2-5.1-3.6-7.5-5.2C120.9,22.5,118.6,24,115.5,26z"/>
	</g>
</g>
</svg>
