<?xml version="1.0" encoding="utf-8"?>
<!-- Generator: Adobe Illustrator 28.0.0, SVG Export Plug-In . SVG Version: 6.00 Build 0)  -->
<svg version="1.1" id="Layer_1" xmlns="http://www.w3.org/2000/svg" xmlns:xlink="http://www.w3.org/1999/xlink" x="0px" y="0px"
	 viewBox="0 0 406.7 120.6" style="enable-background:new 0 0 406.7 120.6;" xml:space="preserve">
<style type="text/css">
	.st0{fill:#E0DFE0;}
	.st1{fill:#B8BBC2;}
	.st2{fill:#0A1739;}
	.st3{fill:#801619;}
	.st4{fill:#BDB5AB;}
	.st5{clip-path:url(#SVGID_00000087390152427252852950000005845061436955522745_);}
</style>
<g>
	<g>
		<g>
			<g>
				<path class="st2" d="M163.9,54.9L158.4,41h3.2l2.9,7.5c0.2,0.4,0.3,0.8,0.4,1.1c0.1,0.3,0.2,0.6,0.3,0.9
					c0.1,0.3,0.2,0.5,0.2,0.8c0.1,0.3,0.2,0.5,0.2,0.8l-0.6,0c0.1-0.4,0.2-0.8,0.3-1.1c0.1-0.3,0.2-0.7,0.4-1.1
					c0.1-0.4,0.3-0.8,0.5-1.4L169,41h3.1l-5.6,13.9H163.9z"/>
				<path class="st2" d="M177.2,54.9l5.4-13.9h2.7l5.4,13.9h-3.1l-2.8-7.5c-0.1-0.2-0.2-0.5-0.3-0.8c-0.1-0.3-0.2-0.7-0.3-1.1
					c-0.1-0.4-0.2-0.7-0.3-1.1c-0.1-0.3-0.2-0.6-0.2-0.8l0.5,0c-0.1,0.3-0.2,0.6-0.3,0.9c-0.1,0.3-0.2,0.7-0.3,1
					c-0.1,0.3-0.2,0.7-0.3,1c-0.1,0.3-0.2,0.6-0.3,0.9l-2.8,7.4H177.2z M179.7,52l1-2.4h6.4l1,2.4H179.7z"/>
				<path class="st2" d="M214.4,55.1c-1,0-2-0.2-2.8-0.5c-0.9-0.4-1.6-0.8-2.2-1.5c-0.6-0.6-1.1-1.4-1.5-2.3
					c-0.3-0.9-0.5-1.8-0.5-2.9c0-1,0.2-2,0.5-2.8c0.4-0.9,0.9-1.6,1.5-2.3c0.6-0.6,1.4-1.1,2.3-1.5c0.9-0.4,1.8-0.5,2.8-0.5
					c0.7,0,1.3,0.1,2,0.3c0.6,0.2,1.2,0.4,1.8,0.8c0.5,0.3,1,0.8,1.4,1.2l-1.9,2.1c-0.3-0.3-0.6-0.6-1-0.8c-0.3-0.2-0.7-0.4-1.1-0.5
					c-0.4-0.1-0.8-0.2-1.2-0.2c-0.6,0-1.1,0.1-1.6,0.3c-0.5,0.2-0.9,0.5-1.3,0.9s-0.7,0.8-0.9,1.4c-0.2,0.5-0.3,1.1-0.3,1.8
					c0,0.7,0.1,1.3,0.3,1.8c0.2,0.5,0.5,1,0.9,1.4s0.8,0.7,1.4,0.9c0.5,0.2,1.1,0.3,1.8,0.3c0.4,0,0.8-0.1,1.2-0.2
					c0.4-0.1,0.8-0.3,1.1-0.5c0.3-0.2,0.6-0.5,0.9-0.7l1.4,2.3c-0.3,0.4-0.7,0.7-1.3,1c-0.5,0.3-1.1,0.5-1.8,0.7
					C215.7,55,215,55.1,214.4,55.1z"/>
				<path class="st2" d="M226.7,54.9V41h3v11.2h6.3v2.7H226.7z"/>
				<path class="st2" d="M241.8,54.9l5.4-13.9h2.7l5.4,13.9h-3.1l-2.8-7.5c-0.1-0.2-0.2-0.5-0.3-0.8c-0.1-0.3-0.2-0.7-0.3-1.1
					c-0.1-0.4-0.2-0.7-0.3-1.1c-0.1-0.3-0.2-0.6-0.2-0.8l0.5,0c-0.1,0.3-0.2,0.6-0.3,0.9c-0.1,0.3-0.2,0.7-0.3,1
					c-0.1,0.3-0.2,0.7-0.3,1c-0.1,0.3-0.2,0.6-0.3,0.9l-2.8,7.4H241.8z M244.4,52l1-2.4h6.4l1,2.4H244.4z"/>
				<path class="st2" d="M261.7,54.9v-2.6h2.3v-8.8h-2.3V41h7.6v2.6H267v8.8h2.3v2.6H261.7z"/>
				<path class="st2" d="M277.3,54.9V41h2.7l5.1,8.2l-1.8,0l5.1-8.2h2.6v13.9h-2.9v-4.8c0-1.2,0-2.3,0.1-3.2c0.1-1,0.2-1.9,0.3-2.8
					l0.4,0.9l-4.1,6.3h-1.3l-4-6.3l0.3-1c0.1,0.9,0.2,1.8,0.3,2.7c0.1,0.9,0.1,2,0.1,3.3v4.8H277.3z"/>
				<path class="st2" d="M303.9,55.1c-0.9,0-1.6-0.1-2.4-0.3c-0.7-0.2-1.3-0.5-1.9-0.9c-0.5-0.4-1-0.9-1.5-1.5l1.9-2.1
					c0.6,0.9,1.3,1.5,1.9,1.8c0.6,0.3,1.3,0.5,2.1,0.5c0.4,0,0.8-0.1,1.1-0.2c0.3-0.1,0.6-0.3,0.8-0.5c0.2-0.2,0.3-0.5,0.3-0.8
					c0-0.2,0-0.4-0.1-0.6c-0.1-0.2-0.2-0.3-0.4-0.5c-0.2-0.1-0.4-0.3-0.6-0.4c-0.2-0.1-0.5-0.2-0.8-0.3c-0.3-0.1-0.6-0.2-1-0.2
					c-0.7-0.2-1.4-0.4-1.9-0.6c-0.6-0.2-1-0.5-1.4-0.9c-0.4-0.4-0.6-0.8-0.8-1.2c-0.2-0.5-0.3-1-0.3-1.6c0-0.6,0.1-1.1,0.4-1.7
					c0.3-0.5,0.6-0.9,1.1-1.3c0.5-0.4,1-0.7,1.6-0.9c0.6-0.2,1.3-0.3,2-0.3c0.8,0,1.6,0.1,2.2,0.3c0.6,0.2,1.2,0.5,1.7,0.8
					c0.5,0.4,0.9,0.8,1.2,1.3l-1.9,1.8c-0.3-0.4-0.6-0.7-0.9-0.9c-0.3-0.3-0.7-0.4-1.1-0.6c-0.4-0.1-0.8-0.2-1.2-0.2
					c-0.4,0-0.8,0.1-1.1,0.2c-0.3,0.1-0.6,0.3-0.7,0.5c-0.2,0.2-0.3,0.5-0.3,0.8c0,0.2,0.1,0.4,0.2,0.6c0.1,0.2,0.3,0.3,0.5,0.5
					c0.2,0.1,0.5,0.3,0.8,0.4c0.3,0.1,0.7,0.2,1.1,0.3c0.7,0.1,1.4,0.3,2,0.6c0.6,0.2,1.1,0.5,1.5,0.9c0.4,0.3,0.7,0.7,1,1.2
					c0.2,0.5,0.3,1,0.3,1.5c0,0.9-0.2,1.7-0.7,2.4c-0.4,0.7-1.1,1.2-1.9,1.5C305.9,54.9,305,55.1,303.9,55.1z"/>
			</g>
		</g>
		<g>
			<path class="st2" d="M154.1,98.3v-4.2l2.3-0.3l10-27.8h7.5l9.9,27.8l2.3,0.3v4.2h-11.5v-4.2l2.2-0.4l-1.2-4h-10.9l-1.2,4l2.2,0.4
				v4.2H154.1z M166.3,84.6h7.7l-3.5-10.5l-0.3-1H170l-0.4,1.1L166.3,84.6z"/>
			<path class="st2" d="M205,98.8c-3.1,0-5.8-0.6-8.2-1.9c-2.4-1.3-4.2-3.1-5.5-5.5c-1.3-2.4-2-5.2-2-8.6v-1.3
				c0-3.1,0.6-5.9,1.9-8.3c1.2-2.4,3-4.3,5.3-5.7c2.3-1.4,5-2.1,8.2-2.1c2.2,0,4.3,0.3,6.3,0.9c2,0.6,3.8,1.6,5.4,2.9v8h-5.2
				l-0.7-4.8c-0.5-0.3-1-0.6-1.6-0.9c-0.6-0.3-1.2-0.4-1.8-0.6c-0.7-0.1-1.4-0.2-2.1-0.2c-1.7,0-3.3,0.4-4.5,1.3s-2.3,2-2.9,3.6
				c-0.7,1.6-1,3.5-1,5.7v1.3c0,2.1,0.4,4,1.1,5.6c0.7,1.6,1.7,2.8,3,3.7c1.3,0.9,2.8,1.3,4.6,1.3c0.9,0,1.8-0.1,2.7-0.3
				s1.8-0.5,2.6-0.8l0.7-4.5h5.2v7.9c-1.3,0.9-2.9,1.6-4.8,2.2C209.6,98.5,207.4,98.8,205,98.8z"/>
			<path class="st2" d="M221.2,98.3v-4.2l2.3-0.3l10-27.8h7.5l9.9,27.8l2.3,0.3v4.2h-11.5v-4.2l2.2-0.4l-1.2-4h-10.9l-1.2,4l2.2,0.4
				v4.2H221.2z M233.3,84.6h7.7l-3.5-10.5l-0.3-1h-0.1l-0.4,1.1L233.3,84.6z"/>
			<path class="st2" d="M257.7,98.3v-4.2l3.4-0.8V71l-3.4-0.8V66h3.4h11.2c2.9,0,5.5,0.7,7.7,2c2.2,1.4,4,3.2,5.2,5.6
				c1.3,2.4,1.9,5.1,1.9,8.2v0.6c0,3.1-0.6,5.8-1.9,8.2c-1.2,2.4-3,4.3-5.2,5.6s-4.8,2-7.7,2H257.7z M268.2,92.9h3.8
				c1.7,0,3.2-0.4,4.4-1.3c1.2-0.9,2.1-2.1,2.7-3.7c0.6-1.6,0.9-3.4,0.9-5.4v-0.6c0-2.1-0.3-3.9-0.9-5.5c-0.6-1.6-1.5-2.8-2.7-3.7
				c-1.2-0.9-2.6-1.3-4.4-1.3h-3.8V92.9z"/>
			<path class="st2" d="M292.5,98.3v-4.2l3.4-0.7V70.9l-3.4-0.7V66h25.4v9h-5.4l-0.2-3.5H303v7.4h10.6v5.5H303v8.5h9.7l0.2-3.7h5.3
				v9.1H292.5z"/>
			<path class="st2" d="M324.1,98.3v-4.2l3.4-0.7V70.9l-3.4-0.7V66h3.4h10.7l8.3,21.9h0.1l8.1-21.9h14v4.2l-3.4,0.7v22.5l3.4,0.7
				v4.2h-13.9v-4.2l3.5-0.7v-5.3l0.1-14.9l-0.1,0L349,98.1h-5.5L334,73.5l-0.2,0l0.5,13.8v6.1l3.8,0.7v4.2H324.1z"/>
			<path class="st2" d="M382.3,98.3v-4.2l3.4-0.7v-6l-9.5-16.7l-3.2-0.5V66h13.4v4.2l-2.4,0.4l4.9,9.6l0.5,1.1h0.2l0.5-1l5.6-9.7
				l-3.5-0.4V66h13.1v4.2l-3.3,0.5l-9.4,16.2v6.5l3.4,0.7v4.2H382.3z"/>
		</g>
	</g>
	<g>
		<g>
			<path class="st2" d="M106.7,65.4c0-1.4-0.2-2.9-0.4-4.3c-0.3-1.7-1.5-3-3.1-3.5l-4-1.3c0,0,3.8,0.3,5.6,0.4
				c0.4,0,0.6-0.3,0.5-0.7c-0.5-1.3-0.9-3.9-1.4-4.9c-1.3-4.1-2.9-9.3-4.2-13.4c-6.5-0.5-12.9-1.8-19-3.9c1.6,5.6,4.4,13.7,1,21.2
				c-0.2,0.5-1.4,2.3-2.9,3.2c-1.3,0.8-3.1,0.2-3.7-1.3c-0.7-1.9-0.5-4.5-1.1-6.3c-0.8-5.9-5.8-6.5-3.3-8.3
				c-5.6-0.5-19.6-1.2-17,6.4c4.7-4.8,7.4,4.7,4.5,8.1c-0.9,1.3-2.3,1.9-3.7,1.7c-1-0.1-2-0.6-2.7-1.3c-5.6-5.1-3.6-16-0.9-23.4
				c-6,2-12.3,3.3-18.6,3.8c-1.4,4-2.9,9.3-4.3,13.4c-2.3,6.9-2,5.4,4.4,5.1c-1.1,0.6-6.6,1.3-6.8,3c-0.5,3-1.4,8-0.5,10.8
				c0.2-0.1,11.7-4.4,11.9-4.5c-0.2,0.1-7.8,4.2-10.6,5.7c-0.7,0.3-1,1.1-0.9,1.8c0.6,3.9,2.9,8.6,5,11.8l0.3-0.3l7.5-6.5
				c-9.4,11.3-9.1,6,0.5,16.1c1.5-2.3,5.2-7.2,7-9.4c-0.4,0.7-4.5,8.4-5.7,10.5c-0.3,0.5,7.7,5,8.6,5.4c0.2,0.2,9.4-12.5,9.5-12.4
				l-6.3,14.3l-0.2,0.4c-0.3,0.6,12.8,5.7,14.1,6.1c1.5-0.4,14-5.3,14.2-6.1c-0.1-0.3-5.6-14.4-5.8-14.7c0.3,0.4,8.4,12.6,8.4,12.6
				c0,0.1,0.7-0.2,1.4-0.6c2.6-1.4,7.7-4.7,7.6-4.9l-0.2-0.3L85.9,85c1.7,2.2,5.5,7.1,7,9.4c2.8-2.5,5.4-5.2,7.5-8.3
				c-1.6-1.6-5.5-6-7-7.9c0.2,0.1,7.7,6.6,7.8,6.8c2.3-3.5,4-7.4,4.8-11.5c0.2-0.9-0.2-1.7-1-2.2l-10.4-5.6l11.9,4.5
				C107.1,69.3,106.6,65.8,106.7,65.4z M56,45.7c-0.1,0-0.1,0-0.2,0c2.3-1.9,8-2.1,12.3-1.8c4,4.9,4.2,6,5.1,12.5l0,0
				c0,0.1,0,1.3,0,1.4c-0.7-0.3-1.1-0.1-1.5,0.5c-0.2,0.1-0.6,0.8-0.9,0.6c-0.7-0.4-3.5-1.9-4.1-2.2c-0.9-0.1-4.6,2-5.5,2.3
				c-0.5,0.2-1.1-0.8-1.5-1C62.3,53.6,61.8,46,56,45.7z M70.4,77.3c0.6,2.2,1.3,4.4,2.2,7.6c-2.5-1.7-4.4-3.1-6.5-4.5
				c-2.1,1.3-4.1,2.6-6.7,4.4c0.8-2.9,1.5-5.2,2.2-7.5c-1.9-1.5-3.6-2.9-6.1-4.8h7.6c0.9-2.5,1.7-4.7,2.8-7.6c0.7,1.8,1.1,2.9,1.5,4
				c0.4,1,0.7,2.1,1.1,3.3c2.4,0.1,4.6,0.3,7.6,0.4C74.1,74.3,72.4,75.7,70.4,77.3z"/>
			<path class="st2" d="M62.2,46.9c0,0,0.1,0,0.1,0c0.6-0.1,0.9-0.6,0.8-1.2C63,45.3,62.6,45,62.2,45h0c-0.5,0-0.9,0.4-0.9,0.9
				c0,0.3,0.1,0.5,0.3,0.7C61.7,46.8,62,46.9,62.2,46.9z"/>
		</g>
		<path class="st2" d="M104.5,56.8L104.5,56.8C104.5,56.8,104.6,56.8,104.5,56.8C104.5,56.8,104.5,56.8,104.5,56.8z"/>
		<path class="st2" d="M117.4,79.3L117.4,79.3c0.2,1.1,1.3,1.9,2.4,1.6c11-2.6,11.4-12,11.2-14.9c-0.1-1.1-0.9-1.9-2-1.9
			c-0.1,0-0.3,0-0.4,0c-6.8,0-11,2.5-13.6,5.1c0.1-0.6,0.2-1.2,0.3-1.8c0.7-4.9,0.5-9.8-0.5-14.2c0.1-0.8,0.8-8.1,9.8-12
			c0.4-0.2,1,0,1.2,0.4c0.8,1.4,1.9,4,1.2,7c-0.7,3.3-3.4,6.3-7.8,9v0c0.6,1,1.9,1.3,2.8,0.6c3.9-2.7,6.3-5.8,7-9.2
			c1-4.4-1.1-8-2-9.3c-0.5-0.8-1.5-1.1-2.4-0.7c-6.9,2.7-9.8,7.1-11,10.3c-0.8-2.1-1.9-4.1-2.9-6c-1.4-2.6-2.7-5-3.4-7.7
			c-0.9-3.2-0.4-6.9,1.3-10.3c1.2-2.5,2.9-4.2,2.9-4.2c0.6-0.7,1.3-1.3,2-1.8c0.4-0.3,1-0.2,1.3,0.2c1.2,1.7,2.8,4.5,2.7,8.3
			c-0.1,5.3-3.4,8.7-4.5,9.6l0,0c0.8,0.9,2.1,0.9,2.9,0c1.6-1.9,3.5-5.1,3.6-9.5c0.1-5.1-2.3-8.7-3.8-10.4c-0.7-0.8-1.8-0.9-2.6-0.4
			c-1.2,0.7-2.2,1.6-3.2,2.6c-0.1,0.1-1.9,2-3.2,4.8c-1.9,3.9-2.4,8.1-1.4,11.8c0.8,2.9,2.2,5.6,3.6,8.2c1.2,2.2,2.4,4.5,3.2,6.9
			c1.6,4.9,2,10.5,1.2,16c-0.4,2.6-0.9,5.1-1.6,7.5c-0.2,0.5-0.3,0.9-0.3,0.9l0,0c-1.9,6.2-4.9,11.9-8.8,16.7c0,0,0,0,0,0l0,0
			c-3.3,4.2-7.3,7.7-11.8,10.3c-2.6,1.5-5.6,2.6-8.4,3.7c-1.7,0.6-3.5,1.3-5.1,2c-2.5,1.1-4.6,2.2-6.3,3.4c-0.6,0.4-1.7,1.3-2.9,2.3
			c-0.5,0.4-0.9,0.8-1.3,1.2c-0.3,0.3-0.7,0.2-1,0c-0.4-0.4-0.8-0.8-1.3-1.2c-1.2-1-2.3-1.9-2.9-2.3c-1.8-1.2-3.9-2.3-6.3-3.4
			c-1.7-0.7-3.4-1.4-5.1-2c-2.9-1.1-5.8-2.1-8.4-3.7c-4.5-2.6-8.5-6.2-11.8-10.3l0,0c0,0,0,0,0,0c-3.9-4.8-6.9-10.5-8.8-16.7l0,0
			c0,0-0.1-0.3-0.3-0.8c-0.7-2.5-1.3-5-1.7-7.6c-0.8-5.6-0.4-11.1,1.2-16c0.8-2.4,2-4.7,3.2-6.9c1.4-2.6,2.8-5.2,3.6-8.2
			c1-3.7,0.5-7.9-1.4-11.8c-1.3-2.8-3.2-4.7-3.2-4.8c-0.9-1-2-1.9-3.2-2.6c-0.8-0.5-2-0.4-2.6,0.4c-1.5,1.7-3.9,5.3-3.8,10.4
			c0.1,3.3,1.3,6.5,3.7,9.4c0.7,0.9,2.1,1,2.9,0.2l0,0c-2.9-3-4.4-6.2-4.5-9.6c-0.1-3.8,1.5-6.6,2.7-8.3c0.3-0.4,0.9-0.5,1.3-0.2
			c0.7,0.5,1.4,1.1,2,1.8c0,0,1.7,1.8,2.9,4.2c1.7,3.4,2.1,7.1,1.3,10.3c-0.7,2.7-2,5.1-3.4,7.7c-1,1.9-2.1,3.9-2.9,6
			c-1.2-3.2-4.2-7.6-11-10.3c-0.9-0.3-1.9,0-2.4,0.7c-0.9,1.4-3,5-2,9.3c0.7,3.4,3.1,6.5,7,9.2c0.9,0.7,2.2,0.3,2.8-0.6l0,0
			C8.6,55,6,52,5.2,48.7c-0.7-3,0.4-5.6,1.2-7c0.2-0.4,0.8-0.6,1.2-0.4c4.5,1.9,6.9,4.6,8.3,7c1.2,2.2,1.6,4.8,1.2,7.3
			c-0.6,3.8-0.7,7.9-0.1,12c0.1,0.6,0.2,1.2,0.3,1.8c-2.6-2.7-6.9-5.3-14-5.2c-1.1,0-1.9,0.9-2,1.9C1.1,69,1.5,78.4,12.5,81
			c1.1,0.3,2.2-0.5,2.4-1.6l0,0C4.9,77.9,3.4,71,3.3,67.2c0-0.6,0.4-1,1-1c7.2,0.2,10.9,3.3,12.8,6c0.8,1.2,1.4,2.5,1.8,3.8
			c1.5,4.8,3.5,9.3,6.1,13.3c-4.2-2.1-10.5-3.7-15.8,1.3c-0.7,0.7-0.8,1.9-0.2,2.7c1.6,2.1,6.4,7.8,12.8,7.8c1,0,2-0.1,3.1-0.4
			c1.2-0.3,1.7-1.6,1.2-2.7l0,0c-6.8,3.4-12.6-2.4-14.9-5.1c-0.3-0.4-0.3-1,0.1-1.3c3.9-3.1,8.3-2.4,11.7-1c2.6,1.1,4.9,2.9,6.8,5
			c3.1,3.5,6.7,6.5,10.7,8.9c0.1,0.1,0.2,0.1,0.3,0.2c-4.1,0.3-9.3,2.2-13.4,8.8c-0.6,0.9-0.3,2.2,0.6,2.8c1.3,0.9,4.5,2.6,8.5,2.6
			c3,0,6.4-1,9.8-4c0.9-0.8,0.9-2.1,0.1-2.9h0c-6.6,7-13.1,4.9-16.3,3.1c-0.5-0.3-0.6-0.9-0.3-1.4c7-10.1,16.6-6.4,17-6.3
			c0.8,0.3,1.6,0.6,2.5,0.9c1.7,0.6,3.4,1.3,5,2c2.4,1,4.3,2.1,6,3.2c0.6,0.4,1.6,1.2,2.7,2.2c0.5,0.4,0.9,0.8,1.3,1.1
			c0.5,0.5,1.2,0.7,1.9,0.7s1.4-0.2,1.9-0.7c0.4-0.3,0.8-0.7,1.2-1.1c1.1-1,2.2-1.8,2.7-2.2c1.7-1.1,3.6-2.2,6-3.2
			c1.6-0.7,3.4-1.4,5-2c0.8-0.3,1.6-0.6,2.5-0.9v0c0.4-0.2,10-3.8,17,6.2c0.3,0.5,0.2,1.1-0.3,1.4c-3.2,1.8-9.8,3.9-16.3-3.1l0,0
			c-0.9,0.8-0.8,2.2,0.1,2.9c3.4,3,6.8,4,9.8,4c4,0,7.2-1.8,8.5-2.6c0.9-0.6,1.2-1.8,0.6-2.8c-4.1-6.5-9.3-8.5-13.4-8.8
			c0.1-0.1,0.2-0.1,0.3-0.2c4.7-2.7,8.8-6.4,12.3-10.7c1.3-1.1,10-7.9,16.9-2.3c0.4,0.3,0.5,0.9,0.1,1.3c-2.3,2.8-8.1,8.6-14.9,5.2
			l0,0c-0.5,1.1,0.1,2.4,1.2,2.7c1.1,0.3,2.1,0.4,3.1,0.4c6.4,0,11.2-5.7,12.8-7.8c0.6-0.8,0.5-2-0.2-2.7c-5.3-5-11.6-3.4-15.8-1.3
			c2.8-4.3,4.9-9.1,6.4-14.2c0.9-2.4,4.1-8.7,14.3-8.9c0.6,0,1,0.4,1,1C129,71,127.4,77.9,117.4,79.3z"/>
		<path class="st2" d="M43.4,24.4c0.5-1.9,1-3.3,1.4-4.8c-1.2-1-2.3-1.9-3.9-3.1c2,0,3.4,0,4.9,0c0.6-1.6,1.1-3,1.8-4.9
			c0.4,1.1,0.7,1.8,0.9,2.5c0.2,0.7,0.4,1.3,0.7,2.1c1.5,0.1,3,0.2,4.9,0.3c-1.4,1.1-2.4,2-3.7,3c0.4,1.4,0.8,2.8,1.4,4.9
			c-1.6-1.1-2.8-2-4.1-2.9C46.4,22.5,45.1,23.3,43.4,24.4z"/>
		<path class="st2" d="M80.1,24.4c0.5-1.9,1-3.3,1.4-4.8c-1.2-1-2.3-1.9-3.9-3.1c2,0,3.4,0,4.9,0c0.6-1.6,1.1-3,1.8-4.9
			c0.4,1.1,0.7,1.8,0.9,2.5c0.2,0.7,0.4,1.3,0.7,2.1c1.5,0.1,3,0.2,4.9,0.3c-1.4,1.1-2.4,2-3.7,3c0.4,1.4,0.8,2.8,1.4,4.9
			c-1.6-1.1-2.8-2-4.1-2.9C83,22.5,81.8,23.3,80.1,24.4z"/>
		<path class="st2" d="M61.7,14.5c0.5-1.9,1-3.3,1.4-4.8c-1.2-1-2.3-1.9-3.9-3.1c2,0,3.4,0,4.9,0c0.6-1.6,1.1-3,1.8-4.9
			c0.4,1.1,0.7,1.8,0.9,2.5c0.2,0.7,0.4,1.3,0.7,2.1c1.5,0.1,3,0.2,4.9,0.3c-1.4,1.1-2.4,2-3.7,3c0.4,1.4,0.8,2.8,1.4,4.9
			c-1.6-1.1-2.8-2-4.1-2.9C64.7,12.6,63.4,13.5,61.7,14.5z"/>
	</g>
</g>
</svg>
