<svg width="38" height="24" viewBox="0 0 38 24" fill="none" xmlns="http://www.w3.org/2000/svg">
<g clip-path="url(#clip0_1_55)">
<path d="M34.3872 0H3.61284C3.48465 0 3.35623 0 3.22826 0.00067947C3.12023 0.00158543 3.01242 0.00271788 2.90438 0.00566225C2.66906 0.012004 2.4317 0.0260463 2.19932 0.0677205C1.96627 0.107648 1.74048 0.182074 1.52936 0.288548C1.10496 0.504411 0.759996 0.849374 0.544133 1.27378C0.437469 1.48497 0.363034 1.71095 0.323305 1.94419C0.281178 2.17679 0.267362 2.41393 0.26102 2.64903C0.25826 2.75697 0.256599 2.86493 0.256038 2.97291C0.255585 3.10065 0.255585 3.22884 0.255585 3.35726V20.6425C0.255585 20.7709 0.255585 20.8989 0.256038 21.0273C0.256717 21.1351 0.258076 21.2432 0.26102 21.3512C0.267362 21.5858 0.281405 21.8232 0.323305 22.0556C0.362953 22.2888 0.437311 22.5148 0.543906 22.726C0.651078 22.9369 0.790968 23.1296 0.958383 23.2967C1.12551 23.4642 1.31816 23.6041 1.52914 23.7112C1.74362 23.8206 1.96332 23.8902 2.19955 23.9325C2.4317 23.974 2.66906 23.988 2.90438 23.9943C3.01242 23.9968 3.12023 23.9982 3.22826 23.9989C3.35623 23.9998 3.48465 23.9998 3.61284 23.9998H34.3872C34.5151 23.9998 34.6435 23.9998 34.7715 23.9989C34.8793 23.9984 34.9871 23.9968 35.0956 23.9943C35.3305 23.988 35.5678 23.974 35.8007 23.9325C36.0338 23.8925 36.2596 23.818 36.4706 23.7112C36.8948 23.4951 37.2397 23.1502 37.4559 22.726C37.5653 22.5115 37.6346 22.2918 37.6765 22.0556C37.7186 21.8232 37.7322 21.5858 37.7385 21.3512C37.7415 21.2432 37.7431 21.1351 37.7435 21.0273C37.7444 20.8989 37.7444 20.7709 37.7444 20.6425V3.35749C37.7444 3.22907 37.7444 3.10087 37.7435 2.97268C37.7431 2.86478 37.7414 2.75689 37.7385 2.64903C37.7322 2.41393 37.7186 2.17679 37.6765 1.94419C37.637 1.71091 37.5627 1.4849 37.4559 1.27378C37.2399 0.849448 36.895 0.504513 36.4706 0.288548C36.2595 0.182184 36.0337 0.107836 35.8007 0.067947C35.5678 0.0260463 35.3305 0.0122305 35.0956 0.00588874C34.9876 0.00314533 34.8796 0.00148432 34.7715 0.000905959C34.6435 0 34.5151 0 34.3872 0Z" fill="#E4E4E4"/>
<path d="M34.3871 0.799957L34.7658 0.800637C34.8682 0.801316 34.9708 0.802449 35.0739 0.805167C35.2535 0.810149 35.4632 0.819888 35.6589 0.854994C35.8288 0.88557 35.9714 0.932001 36.1082 1.00176C36.382 1.14095 36.6044 1.3636 36.7433 1.63752C36.8126 1.77341 36.8588 1.91519 36.8894 2.08665C36.9243 2.28007 36.934 2.49048 36.9388 2.67099C36.9417 2.77291 36.9431 2.87483 36.9433 2.97902C36.9444 3.10517 36.9444 3.2311 36.9444 3.35748V20.6427C36.9444 20.7691 36.9444 20.895 36.9435 21.0237C36.9431 21.1256 36.9417 21.2275 36.939 21.3295C36.934 21.5097 36.9243 21.7201 36.889 21.9158C36.8633 22.0715 36.814 22.2223 36.7429 22.3632C36.6037 22.6372 36.3809 22.8598 36.1069 22.9989C35.971 23.0682 35.8288 23.1146 35.6605 23.145C35.4609 23.1806 35.2421 23.1903 35.0775 23.1948C34.974 23.1971 34.8709 23.1987 34.7652 23.1991C34.6395 23.2 34.5131 23.2 34.3871 23.2H3.60786C3.48329 23.2 3.35872 23.2 3.23188 23.1991C3.12995 23.1987 3.02803 23.1973 2.92612 23.1951C2.75761 23.1905 2.53882 23.1806 2.34087 23.1452C2.18436 23.1191 2.03271 23.0695 1.89106 22.998C1.7552 22.929 1.63119 22.8388 1.5237 22.7307C1.41587 22.6231 1.32581 22.499 1.25689 22.3632C1.18572 22.2215 1.13639 22.07 1.11058 21.9136C1.07525 21.7181 1.06528 21.5086 1.06075 21.3297C1.05819 21.2274 1.05668 21.1251 1.05622 21.0228L1.05554 20.7222V3.27821L1.05599 2.97811C1.05646 2.87565 1.05797 2.77319 1.06052 2.67076C1.06551 2.49138 1.07525 2.28188 1.11081 2.08483C1.13666 1.92875 1.18599 1.77748 1.25712 1.63616C1.32619 1.50026 1.4164 1.37618 1.52438 1.26856C1.63213 1.16064 1.75627 1.07044 1.8922 1.00131C2.03349 0.93032 2.18467 0.880997 2.34065 0.854994C2.53656 0.819888 2.74652 0.810149 2.92635 0.805167C3.02855 0.802643 3.13078 0.801133 3.23302 0.800637L3.61284 0.799957H34.3871Z" fill="white"/>
<path d="M10.1097 8.10155C10.4277 7.70406 10.6433 7.17022 10.5865 6.62483C10.1213 6.64793 9.55367 6.93173 9.22481 7.32967C8.92969 7.67031 8.66855 8.22634 8.73649 8.74885C9.25878 8.79415 9.78061 8.48794 10.1097 8.10155ZM10.5806 8.851C9.82183 8.8057 9.17724 9.28133 8.81509 9.28133C8.4527 9.28133 7.89803 8.87365 7.29806 8.88475C6.51735 8.89607 5.79303 9.33773 5.39667 10.0398C4.58176 11.4441 5.18151 13.5278 5.97422 14.6716C6.35903 15.2378 6.82288 15.8606 7.43395 15.8382C8.0115 15.8156 8.23776 15.4645 8.93943 15.4645C9.64087 15.4645 9.84471 15.8382 10.456 15.8269C11.0897 15.8156 11.4861 15.2607 11.8709 14.6944C12.3125 14.0489 12.4931 13.4261 12.5044 13.3921C12.4931 13.3808 11.2822 12.9163 11.2709 11.5234C11.2596 10.3569 12.2217 9.80203 12.267 9.76783C11.7237 8.96425 10.8748 8.87365 10.5803 8.851" fill="black"/>
<path d="M18.1422 7.27258C19.7906 7.27258 20.9386 8.40888 20.9386 10.0632C20.9386 11.7233 19.767 12.8655 18.101 12.8655H16.2759V15.7682H14.9573V7.27258H18.1422ZM16.2759 11.7587H17.7889C18.9372 11.7587 19.5904 11.1406 19.5904 10.0691C19.5904 8.99776 18.9369 8.38533 17.7947 8.38533H16.2759V11.7587ZM21.2657 14.0077C21.2657 12.9185 22.0958 12.2945 23.6264 12.2003L25.2689 12.1002V11.6291C25.2689 10.9406 24.8157 10.5637 24.0092 10.5637C23.3437 10.5637 22.8609 10.905 22.7612 11.4289H21.5717C21.6072 10.3282 22.6432 9.52752 24.0445 9.52752C25.5516 9.52752 26.5348 10.3164 26.5348 11.541V15.768H25.3162V14.7495H25.2868C24.9394 15.4147 24.1738 15.8325 23.3437 15.8325C22.1193 15.8325 21.2657 15.1028 21.2657 14.0077ZM25.2689 13.4603V12.9833L23.8031 13.0775C22.9786 13.1305 22.5492 13.4365 22.5492 13.9722C22.5492 14.4904 22.9965 14.826 23.6971 14.826C24.5917 14.826 25.2689 14.2548 25.2689 13.4603ZM27.6552 18.0404V17.0221C27.7376 17.0336 27.9376 17.0454 28.0436 17.0454C28.6264 17.0454 28.9562 16.7985 29.1564 16.1623L29.2742 15.7857L27.0428 9.60407H28.4203L29.9747 14.6199H30.0041L31.5583 9.60407H32.9007L30.5869 16.0975C30.0569 17.5872 29.4506 18.0759 28.1673 18.0759C28.0672 18.0759 27.7433 18.0641 27.6552 18.0404Z" fill="black"/>
</g>
<defs>
<clipPath id="clip0_1_55">
<rect width="38" height="24" fill="white"/>
</clipPath>
</defs>
</svg>
