<svg width="270" height="80" viewBox="0 0 270 80" fill="none" xmlns="http://www.w3.org/2000/svg">
<path d="M108.723 36.4179L105.075 27.1973H107.197L109.121 32.1725C109.254 32.4378 109.32 32.7031 109.386 32.9022C109.453 33.1012 109.519 33.3002 109.585 33.4992C109.652 33.6982 109.718 33.8308 109.718 34.0298C109.784 34.2289 109.851 34.3615 109.851 34.5605H109.453C109.519 34.2952 109.585 34.0298 109.652 33.8308C109.718 33.6318 109.784 33.3665 109.917 33.1012C109.983 32.8358 110.116 32.5705 110.249 32.1725L112.106 27.1973H114.162L110.448 36.4179H108.723Z" fill="#801619"/>
<path d="M117.546 36.4179L121.128 27.1973H122.919L126.501 36.4179H124.444L122.587 31.4428C122.521 31.3101 122.454 31.1111 122.388 30.9121C122.322 30.7131 122.255 30.4478 122.189 30.1824C122.123 29.9171 122.056 29.7181 121.99 29.4527C121.924 29.2537 121.857 29.0547 121.857 28.9221H122.189C122.123 29.1211 122.056 29.3201 121.99 29.5191C121.924 29.7181 121.857 29.9834 121.791 30.1824C121.725 30.3814 121.658 30.6468 121.592 30.8458C121.526 31.0448 121.459 31.2438 121.393 31.4428L119.536 36.3516H117.546V36.4179ZM119.204 34.4942L119.867 32.9022H124.113L124.776 34.4942H119.204Z" fill="#801619"/>
<path d="M142.222 36.5506C141.559 36.5506 140.895 36.4179 140.365 36.2189C139.768 35.9536 139.303 35.6882 138.905 35.2239C138.507 34.8259 138.176 34.2952 137.91 33.6982C137.711 33.1012 137.579 32.5042 137.579 31.7745C137.579 31.1111 137.711 30.4478 137.91 29.9171C138.176 29.3201 138.507 28.8557 138.905 28.3914C139.303 27.9934 139.834 27.6617 140.431 27.3964C141.028 27.131 141.625 27.0647 142.289 27.0647C142.753 27.0647 143.151 27.131 143.615 27.2637C144.013 27.3964 144.411 27.529 144.809 27.7944C145.141 27.9934 145.473 28.325 145.738 28.5904L144.478 29.9834C144.279 29.7844 144.08 29.5854 143.814 29.4527C143.615 29.3201 143.35 29.1874 143.085 29.1211C142.819 29.0547 142.554 28.9884 142.289 28.9884C141.891 28.9884 141.559 29.0547 141.227 29.1874C140.895 29.3201 140.63 29.5191 140.365 29.7844C140.099 30.0498 139.9 30.3151 139.768 30.7131C139.635 31.0448 139.569 31.4428 139.569 31.9071C139.569 32.3715 139.635 32.7695 139.768 33.1012C139.9 33.4328 140.099 33.7645 140.365 34.0299C140.63 34.2952 140.895 34.4942 141.293 34.6269C141.625 34.7595 142.023 34.8259 142.488 34.8259C142.753 34.8259 143.018 34.7595 143.284 34.6932C143.549 34.6269 143.814 34.4942 144.013 34.3615C144.212 34.2289 144.411 34.0299 144.61 33.8972L145.539 35.4229C145.34 35.6882 145.075 35.8872 144.677 36.0862C144.345 36.2852 143.947 36.4179 143.483 36.5506C143.085 36.4843 142.62 36.5506 142.222 36.5506Z" fill="#801619"/>
<path d="M150.381 36.4179V27.1973H152.371V34.6269H156.551V36.4179H150.381Z" fill="#801619"/>
<path d="M160.398 36.4179L163.98 27.1973H165.771L169.353 36.4179H167.297L165.439 31.4428C165.373 31.3101 165.307 31.1111 165.24 30.9121C165.174 30.7131 165.108 30.4478 165.041 30.1824C164.975 29.9171 164.909 29.7181 164.842 29.4527C164.776 29.2537 164.71 29.0547 164.71 28.9221H165.041C164.975 29.1211 164.909 29.3201 164.842 29.5191C164.776 29.7181 164.71 29.9834 164.643 30.1824C164.577 30.3814 164.511 30.6468 164.444 30.8458C164.378 31.0448 164.312 31.2438 164.245 31.4428L162.388 36.3516H160.398V36.4179ZM162.123 34.4942L162.786 32.9022H167.031L167.695 34.4942H162.123Z" fill="#801619"/>
<path d="M173.599 36.4179V34.6932H175.124V28.8557H173.599V27.1973H178.64V28.9221H177.114V34.7595H178.64V36.4842H173.599V36.4179Z" fill="#801619"/>
<path d="M183.947 36.4179V27.1973H185.738L189.121 32.6368H187.927L191.31 27.1973H193.035V36.4179H191.111V33.2338C191.111 32.4378 191.111 31.7081 191.177 31.1111C191.244 30.4478 191.31 29.8507 191.376 29.2537L191.642 29.8507L188.922 34.0298H188.06L185.406 29.8507L185.605 29.1874C185.672 29.7844 185.738 30.3814 185.804 30.9784C185.871 31.5755 185.871 32.3051 185.871 33.1675V36.3516H183.947V36.4179Z" fill="#801619"/>
<path d="M201.592 36.5506C200.995 36.5506 200.531 36.4842 200 36.3516C199.536 36.2189 199.138 36.0199 198.74 35.7546C198.408 35.4892 198.076 35.1575 197.745 34.7595L199.005 33.3665C199.403 33.9635 199.867 34.3615 200.265 34.5605C200.663 34.7595 201.128 34.8922 201.658 34.8922C201.924 34.8922 202.189 34.8259 202.388 34.7595C202.587 34.6932 202.786 34.5605 202.919 34.4279C203.051 34.2952 203.118 34.0962 203.118 33.8972C203.118 33.7645 203.118 33.6318 203.051 33.4992C202.985 33.3665 202.919 33.3002 202.786 33.1675C202.653 33.1012 202.521 32.9685 202.388 32.9022C202.255 32.8358 202.056 32.7695 201.857 32.7032C201.658 32.6368 201.459 32.5705 201.194 32.5705C200.73 32.4378 200.265 32.3051 199.934 32.1725C199.536 32.0398 199.27 31.8408 199.005 31.5755C198.74 31.3101 198.607 31.0448 198.474 30.7794C198.342 30.4478 198.275 30.1161 198.275 29.7181C198.275 29.3201 198.342 28.9884 198.541 28.5904C198.74 28.2587 198.939 27.9934 199.27 27.728C199.602 27.4627 199.934 27.2637 200.332 27.131C200.73 26.9983 201.194 26.932 201.658 26.932C202.189 26.932 202.72 26.9983 203.118 27.131C203.516 27.2637 203.914 27.4627 204.245 27.6617C204.577 27.927 204.842 28.1924 205.041 28.524L203.781 29.7181C203.582 29.4527 203.383 29.2537 203.184 29.1211C202.985 28.9221 202.72 28.8557 202.454 28.7231C202.189 28.6567 201.924 28.5904 201.658 28.5904C201.393 28.5904 201.128 28.6567 200.929 28.7231C200.73 28.7894 200.531 28.9221 200.464 29.0547C200.332 29.1874 200.265 29.3864 200.265 29.5854C200.265 29.7181 200.332 29.8507 200.398 29.9834C200.464 30.1161 200.597 30.1824 200.73 30.3151C200.862 30.3814 201.061 30.5141 201.26 30.5804C201.459 30.6468 201.725 30.7131 201.99 30.7794C202.454 30.8458 202.919 30.9784 203.317 31.1774C203.715 31.3101 204.046 31.5091 204.312 31.7745C204.577 31.9735 204.776 32.2388 204.975 32.5705C205.108 32.9022 205.174 33.2338 205.174 33.5655C205.174 34.1625 205.041 34.6932 204.71 35.1575C204.444 35.6219 203.98 35.9536 203.449 36.1526C202.919 36.4179 202.322 36.5506 201.592 36.5506Z" fill="#801619"/>
<path d="M102.222 65.2073V62.4212L103.748 62.2222L110.381 43.7811H115.356L121.924 62.2222L123.449 62.4212V65.2073H115.821V62.4212L117.28 62.1559L116.484 59.5025H109.254L108.458 62.1559L109.917 62.4212V65.2073H102.222ZM110.315 56.1194H115.423L113.101 49.1542L112.902 48.4909H112.769L112.504 49.2206L110.315 56.1194Z" fill="#0A1739"/>
<path d="M135.987 65.539C133.93 65.539 132.139 65.141 130.547 64.2786C128.955 63.4163 127.761 62.2222 126.899 60.6302C126.036 59.0381 125.572 57.1808 125.572 54.9254V54.063C125.572 52.0066 125.97 50.1493 126.833 48.5572C127.629 46.9652 128.823 45.7048 130.348 44.7761C131.874 43.8474 133.665 43.3831 135.788 43.3831C137.247 43.3831 138.64 43.5821 139.967 43.9801C141.294 44.3781 142.488 45.0415 143.549 45.9038V51.2106H140.1L139.635 48.0265C139.303 47.8275 138.972 47.6285 138.574 47.4295C138.176 47.2305 137.778 47.1642 137.38 47.0315C136.915 46.9652 136.451 46.8988 135.987 46.8988C134.859 46.8988 133.798 47.1642 133.002 47.7612C132.206 48.3582 131.476 49.0879 131.078 50.1493C130.614 51.2106 130.415 52.471 130.415 53.9304V54.7927C130.415 56.1857 130.68 57.4461 131.144 58.5075C131.609 59.5688 132.272 60.3648 133.134 60.9619C133.997 61.5589 134.992 61.8242 136.186 61.8242C136.783 61.8242 137.38 61.7579 137.977 61.6252C138.574 61.4925 139.171 61.2935 139.701 61.0945L140.166 58.1095H143.615V63.3499C142.753 63.9469 141.692 64.4113 140.431 64.8093C139.038 65.34 137.579 65.539 135.987 65.539Z" fill="#0A1739"/>
<path d="M146.733 65.2073V62.4212L148.259 62.2222L154.892 43.7811H159.867L166.434 62.2222L167.96 62.4212V65.2073H160.332V62.4212L161.791 62.1559L160.995 59.5025H153.764L152.968 62.1559L154.428 62.4212V65.2073H146.733ZM154.759 56.1194H159.867L157.546 49.1542L157.347 48.4909H157.28L157.015 49.2206L154.759 56.1194Z" fill="#0A1739"/>
<path d="M170.945 65.2073V62.4212L173.201 61.8906V47.0978L170.945 46.5672V43.7811H173.201H180.63C182.554 43.7811 184.279 44.2454 185.738 45.1078C187.197 46.0365 188.391 47.2305 189.187 48.8226C190.05 50.4146 190.448 52.2056 190.448 54.262V54.66C190.448 56.7164 190.05 58.5075 189.187 60.0995C188.391 61.6915 187.197 62.9519 185.738 63.8143C184.279 64.6766 182.554 65.141 180.63 65.141H170.945V65.2073ZM177.91 61.6252H180.431C181.559 61.6252 182.554 61.3599 183.35 60.7629C184.146 60.1658 184.743 59.3698 185.141 58.3085C185.539 57.2471 185.738 56.0531 185.738 54.7264V54.3284C185.738 52.9353 185.539 51.7413 185.141 50.6799C184.743 49.6186 184.146 48.8226 183.35 48.2255C182.554 47.6285 181.625 47.3632 180.431 47.3632H177.91V61.6252Z" fill="#0A1739"/>
<path d="M194.03 65.2073V62.4212L196.285 61.9569V47.0315L194.03 46.5672V43.7811H210.879V49.7512H207.297L207.164 47.4295H200.995V52.3383H208.026V55.9867H200.995V61.6252H207.429L207.562 59.1708H211.078V65.2073H194.03Z" fill="#0A1739"/>
<path d="M214.992 65.2073V62.4212L217.247 61.9569V47.0315L214.992 46.5672V43.7811H217.247H224.345L229.851 58.3085H229.917L235.29 43.7811H244.577V46.5672L242.322 47.0315V61.9569L244.577 62.4212V65.2073H235.357V62.4212L237.678 61.9569V58.4411L237.745 48.5572H237.678L231.509 65.0746H227.861L221.559 48.7562H221.426L221.758 57.9105V61.9569L224.279 62.4212V65.2073H214.992Z" fill="#0A1739"/>
<path d="M253.599 65.2073V62.4212L255.854 61.9569V57.9768L249.552 46.8988L247.429 46.5672V43.7811H256.318V46.5672L254.726 46.8325L257.977 53.2007L258.308 53.9304H258.441L258.773 53.267L262.487 46.8325L260.166 46.5672V43.7811H268.856V46.5672L266.667 46.8988L260.431 57.6451V61.9569L262.686 62.4212V65.2073H253.599Z" fill="#0A1739"/>
<path d="M70.7793 43.3831C70.7793 42.4544 70.6467 41.4594 70.514 40.5307C70.315 39.403 69.519 38.5406 68.4576 38.209L65.8042 37.3466C65.8042 37.3466 68.3249 37.5456 69.519 37.6119C69.7843 37.6119 69.917 37.4129 69.8506 37.1476C69.519 36.2852 69.2536 34.5605 68.922 33.8972C68.0596 31.1775 66.9982 27.728 66.1359 25.0083C61.8241 24.6766 57.5787 23.8143 53.5322 22.4212C54.5936 26.136 56.451 31.5091 54.1956 36.4843C54.0629 36.8159 53.2669 38.01 52.2719 38.607C51.4095 39.1377 50.2155 38.7396 49.8175 37.7446C49.3531 36.4843 49.4858 34.7595 49.0878 33.5655C48.5571 29.6517 45.2404 29.2537 46.8987 28.0597C43.184 27.728 33.8971 27.2637 35.6218 32.3051C38.7395 29.1211 40.5306 35.4229 38.6069 37.6783C38.0098 38.5406 37.0812 38.9386 36.1525 38.806C35.4891 38.7396 34.8258 38.408 34.3614 37.9436C30.6467 34.5605 31.9734 27.33 33.7644 22.4212C29.7843 23.7479 25.6052 24.6103 21.4261 24.942C20.4974 27.5954 19.5024 31.1111 18.5737 33.8309C17.048 38.408 17.247 37.4129 21.4924 37.2139C20.7627 37.6119 17.1143 38.0763 16.9817 39.204C16.65 41.194 16.053 44.5108 16.65 46.3682C16.7826 46.3018 24.4112 43.4494 24.5438 43.3831C24.4112 43.4494 19.3697 46.1692 17.5123 47.1642C17.048 47.3632 16.849 47.8939 16.9153 48.3582C17.3133 50.9453 18.839 54.063 20.2321 56.1857L20.4311 55.9867L25.4062 51.675C19.1707 59.1708 19.3697 55.6551 25.7379 62.3549C26.7329 60.8292 29.1873 57.5788 30.3813 56.1194C30.116 56.5838 27.3962 61.6916 26.6002 63.0846C26.4012 63.4163 31.708 66.4013 32.305 66.6667C32.4377 66.7993 38.5405 58.3748 38.6069 58.4411L34.4278 67.927L34.2951 68.1924C34.0961 68.5904 42.786 71.9735 43.6483 72.2388C44.6433 71.9735 52.9352 68.7231 53.0679 68.1924C53.0016 67.9934 49.3531 58.6401 49.2205 58.4411C49.4195 58.7065 54.7926 66.7993 54.7926 66.7993C54.7926 66.8657 55.2569 66.6667 55.7213 66.4013C57.446 65.4726 60.8291 63.2836 60.7627 63.1509L60.6301 62.9519L56.9817 56.3848C58.1094 57.8441 60.6301 61.0945 61.6251 62.6202C63.4825 60.9619 65.2072 59.1708 66.6002 57.1144C65.5389 56.0531 62.9518 53.1343 61.9568 51.874C62.0895 51.9403 67.0646 56.2521 67.1309 56.3848C68.6566 54.063 69.7843 51.476 70.315 48.7562C70.4477 48.1592 70.1823 47.6285 69.6516 47.2969L62.7528 43.5821L70.6467 46.5672C71.0447 45.9702 70.713 43.6484 70.7793 43.3831ZM37.1475 30.3151C37.0812 30.3151 37.0812 30.3151 37.0148 30.3151C38.5405 29.0547 42.3216 28.9221 45.174 29.1211C47.8274 32.3715 47.9601 33.1012 48.5571 37.4129C48.5571 37.4793 48.5571 38.2753 48.5571 38.3416C48.0928 38.1426 47.8274 38.2753 47.5621 38.6733C47.4294 38.7396 47.1641 39.204 46.9651 39.0713C46.5007 38.806 44.6433 37.811 44.2453 37.6119C43.6483 37.5456 41.1939 38.9386 40.5969 39.1377C40.2652 39.2703 39.8672 38.607 39.6019 38.4743C41.3266 35.5556 40.9949 30.5141 37.1475 30.3151ZM46.6997 51.277C47.0977 52.7363 47.5621 54.1957 48.1591 56.3184C46.5007 55.1907 45.2404 54.262 43.8473 53.3333C42.4543 54.1957 41.1276 55.0581 39.4029 56.2521C39.9336 54.3284 40.3979 52.8027 40.8622 51.277C39.6019 50.2819 38.4742 49.3532 36.8158 48.0929H41.8573C42.4543 46.4345 42.985 44.9751 43.7147 43.0514C44.179 44.2454 44.4443 44.9751 44.7097 45.7048C44.975 46.3682 45.174 47.0978 45.4394 47.8939C47.0314 47.9602 48.4908 48.0929 50.4808 48.1592C49.1541 49.2869 48.0264 50.2156 46.6997 51.277Z" fill="#0A1739"/>
<path d="M41.2602 31.1111H41.3266C41.7246 31.0448 41.9236 30.7131 41.8572 30.3151C41.7909 30.0498 41.5256 29.8508 41.2602 29.8508C40.9285 29.8508 40.6632 30.1161 40.6632 30.4478C40.6632 30.6468 40.7295 30.7794 40.8622 30.9121C40.9285 31.0448 41.1276 31.1111 41.2602 31.1111Z" fill="#0A1739"/>
<path d="M77.8772 52.6037C78.0099 53.3334 78.7396 53.864 79.4693 53.665C86.7661 51.9403 87.0315 45.7048 86.8988 43.7811C86.8325 43.0514 86.3018 42.5207 85.5721 42.5207C85.5057 42.5207 85.3731 42.5207 85.3067 42.5207C80.796 42.5207 78.0099 44.1791 76.2852 45.9038C76.3515 45.5058 76.4179 45.1078 76.4842 44.7098C76.9485 41.4594 76.8159 38.209 76.1525 35.2902C76.2188 34.7596 76.6832 29.9171 82.6533 27.33C82.9187 27.1974 83.3167 27.33 83.4494 27.5954C83.98 28.5241 84.7097 30.2488 84.2454 32.2388C83.781 34.4279 81.99 36.4179 79.0713 38.209C79.4693 38.8723 80.3316 39.0713 80.9286 38.607C83.5157 36.8159 85.1077 34.7596 85.5721 32.5042C86.2354 29.5854 84.8424 27.1974 84.2454 26.335C83.9137 25.8043 83.2504 25.6053 82.6533 25.8707C78.0762 27.6617 76.1525 30.5804 75.3565 32.7032C74.8258 31.3101 74.0961 29.9834 73.4328 28.7231C72.5041 26.9984 71.6417 25.4063 71.1774 23.6153C70.5804 21.4925 70.912 19.0382 72.0397 16.7828C72.8358 15.1244 73.9635 13.9967 73.9635 13.9967C74.3615 13.5324 74.8258 13.1343 75.2902 12.8027C75.5555 12.6037 75.9535 12.67 76.1525 12.9353C76.9485 14.063 78.0099 15.9204 77.9436 18.4411C77.8772 21.9569 75.6882 24.2123 74.9585 24.8093C75.4892 25.4063 76.3515 25.4063 76.8822 24.8093C77.9436 23.5489 79.2039 21.4262 79.2703 18.5075C79.3366 15.1244 77.7446 12.7363 76.7495 11.6086C76.2852 11.078 75.5555 11.0116 75.0248 11.3433C74.2288 11.8076 73.5655 12.4047 72.9021 13.068C72.8358 13.1343 71.6417 14.3947 70.7794 16.2521C69.519 18.8391 69.1873 21.6252 69.8507 24.0796C70.3814 26.0033 71.3101 27.7944 72.2388 29.5191C73.0348 30.9785 73.8308 32.5042 74.3615 34.0962C75.4228 37.3466 75.6882 41.0614 75.1575 44.7098C74.8922 46.4345 74.5605 48.0929 74.0961 49.6849C73.9635 50.0166 73.8971 50.2819 73.8971 50.2819C72.6368 54.3947 70.6467 58.1758 68.0596 61.3599C65.8706 64.146 63.2172 66.4677 60.2321 68.1924C58.5074 69.1874 56.5174 69.9171 54.66 70.6468C53.5323 71.0448 52.3383 71.5091 51.2769 71.9735C49.6185 72.7032 48.2255 73.4328 47.0978 74.2289C46.6998 74.4942 45.9701 75.0912 45.1741 75.7546C44.8424 76.0199 44.5771 76.2853 44.3117 76.5506C44.1127 76.7496 43.8474 76.6833 43.6484 76.5506C43.383 76.2853 43.1177 76.0199 42.786 75.7546C41.99 75.0912 41.2603 74.4942 40.8623 74.2289C39.6683 73.4328 38.2752 72.7032 36.6832 71.9735C35.5555 71.5091 34.4278 71.0448 33.3001 70.6468C31.3764 69.9171 29.4527 69.2537 27.728 68.1924C24.7429 66.4677 22.0895 64.0796 19.9004 61.3599C17.3134 58.1758 15.3233 54.3947 14.063 50.2819C14.063 50.2819 13.9966 50.0829 13.864 49.7513C13.3996 48.0929 13.0016 46.4345 12.7363 44.7098C12.2056 40.995 12.4709 37.3466 13.5323 34.0962C14.063 32.5042 14.859 30.9785 15.655 29.5191C16.5837 27.7944 17.5124 26.0697 18.0431 24.0796C18.7064 21.6252 18.3747 18.8391 17.1144 16.2521C16.252 14.3947 14.9916 13.1343 14.9916 13.068C14.3946 12.4047 13.6649 11.8076 12.8689 11.3433C12.3382 11.0116 11.5422 11.078 11.1442 11.6086C10.1492 12.7363 8.55715 15.1244 8.62349 18.5075C8.68983 20.6965 9.48585 22.8192 11.0779 24.743C11.5422 25.34 12.4709 25.4063 13.0016 24.8756C11.0779 22.8856 10.0829 20.7629 10.0165 18.5075C9.95019 15.9867 11.0115 14.1294 11.8076 13.0017C12.0066 12.7363 12.4046 12.67 12.6699 12.869C13.1343 13.2007 13.5986 13.5987 13.9966 14.063C13.9966 14.063 15.1243 15.2571 15.9203 16.8491C17.048 19.1045 17.3134 21.5589 16.7827 23.6816C16.3183 25.4726 15.456 27.0647 14.5273 28.7894C13.864 30.0498 13.1343 31.3765 12.6036 32.7695C11.8076 30.6468 9.81752 27.728 5.30674 25.937C4.70973 25.738 4.04638 25.937 3.7147 26.4013C3.11769 27.33 1.72465 29.7181 2.388 32.5705C2.85235 34.8259 4.44439 36.8823 7.03145 38.6733C7.62847 39.1377 8.49082 38.8723 8.88883 38.2753C5.70475 36.4843 3.98004 34.4942 3.44936 32.3052C2.98502 30.3151 3.7147 28.5904 4.24538 27.6617C4.37805 27.3964 4.77606 27.2637 5.0414 27.3964C8.02647 28.6567 9.61851 30.4478 10.5472 32.0398C11.3432 33.4992 11.6086 35.2239 11.3432 36.8823C10.9452 39.403 10.8789 42.1227 11.2769 44.8425C11.3432 45.2405 11.4096 45.6385 11.4759 46.0365C9.75118 44.2455 6.89878 42.5207 2.189 42.5871C1.45931 42.5871 0.928631 43.1841 0.862296 43.8474C0.729626 45.7712 0.994966 52.0066 8.29181 53.7314C9.0215 53.9304 9.75118 53.3997 9.88385 52.67C3.25036 51.675 2.25533 47.0979 2.189 44.5771C2.189 44.1791 2.45434 43.9138 2.85235 43.9138C7.62847 44.0464 10.0829 46.1028 11.3432 47.8939C11.8739 48.6899 12.2719 49.5523 12.5373 50.4146C13.5323 53.5987 14.859 56.5838 16.5837 59.2372C13.7976 57.8441 9.61852 56.7828 6.10276 60.0995C5.63841 60.5639 5.57208 61.3599 5.97009 61.8906C7.03145 63.2836 10.2155 67.0647 14.461 67.0647C15.1243 67.0647 15.7877 66.9984 16.5174 66.7993C17.3134 66.6003 17.645 65.738 17.3134 65.0083C12.8026 67.2637 8.95516 63.4163 7.42946 61.6252C7.23045 61.3599 7.23045 60.9619 7.4958 60.7629C10.0829 58.7065 13.0016 59.1708 15.257 60.0995C16.9817 60.8292 18.5074 62.0232 19.7678 63.4163C21.8242 65.738 24.2122 67.728 26.8656 69.3201C26.9319 69.3864 26.9983 69.3864 27.0646 69.4527C24.3449 69.6518 20.8955 70.9121 18.1757 75.2902C17.7777 75.8872 17.9767 76.7496 18.5737 77.1476C19.4361 77.7446 21.5588 78.8723 24.2122 78.8723C26.2023 78.8723 28.4577 78.209 30.713 76.2189C31.3101 75.6882 31.3101 74.8259 30.7794 74.2952C26.4013 78.9387 22.0895 77.5456 19.9668 76.3516C19.6351 76.1526 19.5688 75.7546 19.7678 75.4229C24.4112 68.7231 30.7794 71.1775 31.0447 71.2438C31.5754 71.4428 32.1061 71.6418 32.7031 71.8408C33.8308 72.2388 34.9585 72.7032 36.0198 73.1675C37.6119 73.8309 38.8722 74.5605 39.9999 75.2902C40.3979 75.5556 41.0613 76.0863 41.791 76.7496C42.1227 77.0149 42.388 77.2803 42.6533 77.4793C42.985 77.811 43.4494 77.9436 43.9137 77.9436C44.3781 77.9436 44.8424 77.811 45.1741 77.4793C45.4394 77.2803 45.7048 77.0149 45.9701 76.7496C46.6998 76.0863 47.4295 75.5556 47.7611 75.2902C48.8888 74.5605 50.1492 73.8309 51.7412 73.1675C52.8026 72.7032 53.9966 72.2388 55.058 71.8408C55.5887 71.6418 56.1193 71.4428 56.7164 71.2438C56.9817 71.1111 63.3499 68.7231 67.9933 75.3566C68.1923 75.6882 68.126 76.0863 67.7943 76.2853C65.6716 77.4793 61.2935 78.8723 56.9817 74.2289C56.3847 74.7596 56.451 75.6882 57.048 76.1526C59.3034 78.1426 61.5588 78.806 63.5489 78.806C66.2023 78.806 68.325 77.612 69.1873 77.0813C69.7844 76.6833 69.9834 75.8872 69.5854 75.2239C66.8656 70.9121 63.4162 69.5854 60.6965 69.3864C60.7628 69.3201 60.8291 69.3201 60.8955 69.2537C64.0132 67.4627 66.7329 65.0083 69.0547 62.1559C69.917 61.4262 75.6882 56.9154 80.2653 60.6302C80.5306 60.8292 80.597 61.2272 80.3316 61.4925C78.8059 63.3499 74.9585 67.1974 70.4477 64.942C70.116 65.6717 70.514 66.534 71.2437 66.733C71.9734 66.932 72.6368 66.9984 73.3001 66.9984C77.5455 66.9984 80.7296 63.2173 81.791 61.8242C82.189 61.2935 82.1227 60.4975 81.6583 60.0332C78.1426 56.7164 73.9635 57.7778 71.1774 59.1708C73.0348 56.3184 74.4278 53.1343 75.4228 49.7513C76.0198 48.1592 78.1426 43.9801 84.9087 43.8474C85.3067 43.8474 85.5721 44.1128 85.5721 44.5108C85.5721 47.0979 84.5107 51.675 77.8772 52.6037Z" fill="#0A1739"/>
<path d="M28.7894 16.1857C29.121 14.9254 29.4527 13.9967 29.718 13.0017C28.922 12.3383 28.1923 11.7413 27.131 10.9453C28.4577 10.9453 29.3864 10.9453 30.3814 10.9453C30.7794 9.88392 31.1111 8.95523 31.5754 7.69487C31.8408 8.42455 32.0398 8.8889 32.1724 9.35324C32.3051 9.81759 32.4378 10.2156 32.6368 10.7463C33.6318 10.8126 34.6268 10.8789 35.8872 10.9453C34.9585 11.675 34.2952 12.272 33.4328 12.9353C33.6981 13.864 33.9635 14.7927 34.3615 16.1857C33.3001 15.4561 32.5041 14.859 31.6418 14.262C30.7794 14.9254 29.9171 15.4561 28.7894 16.1857Z" fill="#0A1739"/>
<path d="M53.1343 16.1857C53.466 14.9254 53.7977 13.9967 54.063 13.0017C53.267 12.3383 52.5373 11.7413 51.476 10.9453C52.8027 10.9453 53.7313 10.9453 54.7264 10.9453C55.1244 9.88392 55.4561 8.95523 55.9204 7.69487C56.1857 8.42455 56.3847 8.8889 56.5174 9.35324C56.6501 9.81759 56.7828 10.2156 56.9818 10.7463C57.9768 10.8126 58.9718 10.8789 60.2322 10.9453C59.3035 11.675 58.6401 12.272 57.7778 12.9353C58.0431 13.864 58.3085 14.7927 58.7065 16.1857C57.6451 15.4561 56.8491 14.859 55.9867 14.262C55.058 14.9254 54.262 15.4561 53.1343 16.1857Z" fill="#0A1739"/>
<path d="M40.9286 9.61858C41.2603 8.35822 41.592 7.42952 41.8573 6.4345C41.0613 5.77115 40.3316 5.17414 39.2703 4.37812C40.597 4.37812 41.5257 4.37812 42.5207 4.37812C42.9187 3.31676 43.2504 2.38807 43.7147 1.1277C43.98 1.85739 44.1791 2.32173 44.3117 2.78608C44.4444 3.25042 44.5771 3.64843 44.7761 4.17911C45.7711 4.24545 46.7661 4.31178 48.0265 4.37812C47.0978 5.1078 46.4344 5.70482 45.5721 6.36817C45.8374 7.29686 46.1028 8.22555 46.5008 9.61858C45.4394 8.8889 44.6434 8.29188 43.781 7.69487C42.9187 8.35822 42.0563 8.95523 40.9286 9.61858Z" fill="#0A1739"/>
</svg>
